<svg xmlns="http://www.w3.org/2000/svg" viewBox="0 0 1600 530"><filter id="b"><feGaussianBlur stdDeviation="10" /></filter><path fill="#97a3a7" d="M0 0h1600v525H0z"/><g filter="url(#b)" fill-opacity=".5"><path fill="#002843" d="M534.4 621.9l775-243.8-818.8 31.3z"/><path fill="#cbcdcd" d="M334.4 478.1L1696.9 59.4 109.4-97z"/><path fill="#0a2833" d="M-96.9 415.6L409.4 347 146.9 622z"/><path fill="#00233a" d="M1696.9 390.6l-312.5 6.3 93.7 225z"/><path fill="#ffffe8" d="M1146.9 234.4l237.5 225L1090.6-97z"/><path fill="#ffffe6" d="M384.4 478.1L190.6 159.4 222-97z"/><path fill="#435b5d" d="M1321.9 359.4L703 453l656.3 162.5z"/><path fill="#ffffe3" d="M496.9 440.6l-131.3 68.8-18.7-150z"/><path fill="#6a6f6e" d="M1040.6 146.9L1028.1-97l150 443.8z"/><path fill="#40697b" d="M353.1 621.9L534.4 378l693.7 75z"/><path fill="#9d8872" d="M246.9 521.9l243.7-206.3L334.4 297z"/><path fill="#c8b99f" d="M1078.1 546.9l306.3-231.3 12.5 131.3z"/><path fill="#b3bcc3" d="M-96.9 346.9L222 403 90.6-96.9z"/><path fill="#2b5565" d="M1296.9 584.4l387.5-193.8-268.8 12.5z"/><path fill="#9aacb6" d="M1334.4 415.6l362.5-325-587.5-187.5z"/><path fill="#64818d" d="M1059.4 496.9l-812.5-12.5L578 621.9z"/><path fill="#1d4a62" d="M-96.9 396.9l350-6.3-275 225z"/><path fill="#ffe" d="M1090.6 34.4L1234.4 303l-81.3-400z"/><path fill="#6e716a" d="M165.6-3.1l-6.2 218.7L265.6 397z"/><path fill="#fffff4" d="M259.4 3.1l12.5 256.3L146.9-97z"/><path fill="#7798a2" d="M1509.4 446.9l-150 37.5 337.5 37.5z"/><path fill="#a8b6be" d="M1028.1-15.6l56.3 406.2H396.9z"/><path fill="#ffffeb" d="M721.9 228.1l-18.8 175-25-81.2z"/><path fill="#04020f" d="M221.9 359.4L328 390.6H215.6z"/><path fill="#274b5b" d="M959.4 440.6l-487.5-56.2 212.5 100z"/><path fill="#fffff1" d="M496.9 465.6l-93.8-100-56.2 93.8z"/><path fill="#ffffe4" d="M1328.1 453.1l56.3-87.5-12.5 118.8z"/><path fill="#5d3d2e" d="M453.1 334.4l-43.7-18.8 31.2 68.8z"/><path fill="#ffecd0" d="M1184.4 121.9l12.5 237.5 106.2 6.2z"/><path fill="#ffffe1" d="M628.1 478.1l-18.7-18.7L578 478z"/><path fill="#a5adae" d="M321.9 321.9l418.7 87.5L240.6-97z"/><path fill="#0b3b47" d="M1371.9 515.6l300 81.3-31.3-100z"/><path fill="#4b4e45" d="M1165.6 465.6l143.8-50-43.8 43.8z"/><path fill="#fffbe4" d="M221.9 253.1l43.7-175L322 372z"/><path fill="#aba394" d="M184.4 384.4h156.2L322 428z"/><path d="M1171.9 409.4l-37.5-25 81.2 6.2z"/><path fill="#9eacb3" d="M1696.9 40.6L1134.4-96.9l162.5 456.3z"/><path fill="#35576a" d="M490.6 396.9l131.3-6.3-125 93.8z"/><path fill="#8e8672" d="M-96.9 621.9H422L340.6 453z"/><path fill="#aa977c" d="M1321.9 453.1l25-87.5-156.3 43.8z"/></g></svg>