<svg xmlns="http://www.w3.org/2000/svg" viewBox="0 0 1900 602"><filter id="b"><feGaussianBlur stdDeviation="10" /></filter><path fill="#7e847e" d="M0 0h1900v601H0z"/><g filter="url(#b)" fill-opacity=".5"><path fill="#ffffc8" d="M716.2 530.7l1105.9 185.5 193-311.7z"/><path fill="#373423" d="M159.6-115L-115 285.7h1759z"/><path fill="#92b0c2" d="M1948.2 308L-115 271l608.6 400.8z"/><path fill="#09090e" d="M1302.5 293.2l712.5-7.5-363.6-96.4z"/><path fill="#f8c89f" d="M515.8 590L2015 708.8l-616-282z"/><path fill="#747464" d="M686.5-115l1276.6 341.4-1387.9 7.4z"/><path fill="#957551" d="M1369.3 434.2L708.8 552.9 872 382.2z"/><path fill="#50829f" d="M-115 604.9L560.4 538 218.9 248.6z"/><path fill="#2a2914" d="M389.6 115L694 219l-668-7.5z"/><path fill="#fdf8ea" d="M1102.1 233.8h163.3l-118.7-52z"/><path fill="#001949" d="M11.1-115L-115 152 115 18.6z"/><path fill="#f6d8c0" d="M1785 456.4l-683 66.8 913 155.9z"/><path fill="#606e7a" d="M11.1 85.4l1469.6 51.9L872-115z"/><path fill="#93b3c9" d="M293.2 285.7l994.5 14.9-489.8 133.6z"/><path fill="#8d6845" d="M1644 419.3l-193 66.8-259.8-74.2z"/><path fill="#8f846b" d="M2015 233.8L1725.6 11l-460.2 215.3z"/><path fill="#6f98b2" d="M916.6 419.3L-115 248.6l103.9 274.6z"/><path fill="#535639" d="M1881.4 85.4L1562.3 167l452.7 7.4z"/><path fill="#cea360" d="M708.8 501L1117 716.2l564-59.4z"/><path fill="#99694b" d="M1644 419.3l207.8 7.5-170.7 52z"/><path fill="#73a8c9" d="M1428.7 389.6l586.3-7.4-252.3-89z"/><path fill="#111212" d="M2007.6 233.8l-207.8 66.8-222.7-59.4z"/><path fill="#56573f" d="M953.7 219l81.7-148.5 445.3 52z"/><path fill="#e0b08e" d="M1777.5 55.7l-237.5 37 59.4-66.7z"/><path fill="#37444b" d="M1532.6 144.7l126.2 74.2h-252.4z"/><path fill="#a0b7c7" d="M1673.6 300.6h-586.3l378.5 103.9z"/><path fill="#b8b6a8" d="M820.1 486.1L263.5 605l794.1 111.3z"/><path fill="#bfb098" d="M1413.9 144.7l193 52h-363.7z"/><path fill="#221f1e" d="M1079.9 233.8l185.5 59.4 193-44.6z"/><path fill="#5e6e6c" d="M515.8 523.2L92.8 501-78 649.4z"/><path fill="#454033" d="M26 270.9L-85.4-18.6l371.1 304.3z"/><path fill="#bcb9b9" d="M1918.6 196.7l-245-7.4 133.6-44.6z"/><path fill="#787c8d" d="M1777.5 11.1L946.3 122.5 916.6-115z"/><path fill="#6e6f66" d="M968.6 404.5l-81.7 103.9-259.8-81.6z"/><path fill="#bea141" d="M1495.5 144.7l267.2 7.4-111.3-51.9z"/><path fill="#1c2126" d="M1644 189.3h193l-104 29.6z"/><path fill="#5d522f" d="M553 241.2l660.5 22.3-386-148.5z"/><path fill="#af998a" d="M174.4 70.5h81.7L137.3-11z"/><path fill="#e3cdac" d="M1161.5 463.9l-371 52 423 59.3z"/><path fill="#755d3e" d="M931.4 456.4l89.1-37 52 89z"/></g></svg>