<svg xmlns="http://www.w3.org/2000/svg" viewBox="0 0 1726 400"><filter id="b"><feGaussianBlur stdDeviation="10" /></filter><path fill="#99938b" d="M0 0h1726v397H0z"/><g filter="url(#b)" fill-opacity=".5"><path fill="#fff" d="M846.1 252.8L1830.5-37l-1935 47.2z"/><path fill="#070000" d="M1830.5 172L724.8 502.2l-829.3-276.4z"/><path fill="#fff" d="M1142.8-104.5l87.6 337.1L-104.5 118z"/><path fill="#281608" d="M1082.1 219.1l748.4-155-269.7 397.7z"/><path fill="#050000" d="M-104.5 185.4l276.4 188.8 343.9-209z"/><path fill="#fff" d="M-104.5-97.8l1935 121.4L745 246.1z"/><path fill="#fff" d="M1109 70.8L-57.2 185.4 57.3-104.5z"/><path fill="#180f17" d="M1466.4 374.2L1392.3 64l-161.9 67.4z"/><path fill="#aa6f30" d="M1351.8 313.5L731.5 502.3 64.1 333.7z"/><path fill="#fff" d="M1405.7-104.5v242.7l418-101.1z"/><path fill="#1a2427" d="M596.7 360.7L873 226l-714.7-60.7z"/><path fill="#0c080d" d="M1830.5 118l-424.8 161.8 74.2-168.6z"/><path fill="#ae875a" d="M1830.5 313.5l-357.3-74.2-6.8 263z"/><path fill="#fff" d="M468.6 178.7l728.1 20.2 161.9-303.4z"/><path fill="#1e0f10" d="M1729.4 333.7l-155.1-148.3 20.2-134.8z"/><path fill="#13273e" d="M1392.3 165.2l-209 121.3 67.4-182z"/><path fill="#1c4367" d="M859.6 306.8l397.8-94.4-445-13.5z"/><path fill="#543f32" d="M1405.7 293.3l-128 67.4L1372-23.6z"/><path fill="#d8852e" d="M-104.5 225.9l579.8 263-579.8-60.8z"/><path fill="#fff" d="M1331.6-104.5l6.7 236L900.1-64.1z"/><path fill="#edfcff" d="M-57.3-104.5L637 145l-741.6 27z"/><path fill="#fff" d="M1621.5 111.2l-20.2-215.7 229.2 121.4z"/><path fill="#262015" d="M77.5 333.7l-182-128 478.7-47.3z"/><path fill="#a1805b" d="M1412.5 279.8l-593.3 87.6 559.6 134.9z"/><path fill="#fff" d="M1324.8-104.5l121.4 263 182-263z"/><path fill="#603e14" d="M306.8 387.7L3.4 266.3l681 47.2z"/><path fill="#feffff" d="M1095.6-43.8L178.6 91l377.6 101.2z"/><path fill="#94795b" d="M1830.5 455.1l-472 47.2L1608 205.6z"/><path fill="#2f2929" d="M1318.1 333.7l236-141.5-317-87.7z"/><path fill="#feffff" d="M697.8 219.1l-182-323.6 755.1 202.3z"/><path fill="#c39c6f" d="M1776.6 502.3l53.9-229.2-141.6-67.5z"/><path fill="#2e2d25" d="M826 354L468.5 172l-478.7 53.9z"/><path d="M1453 381l13.4-182.1-54 141.6z"/><path fill="#432109" d="M1378.8 37V17l-40.5 13.4z"/><path fill="#90a1ad" d="M1257.4 158.4l27 6.8v60.7z"/><path fill="#1c2c51" d="M1635 131.5l-54-81-6.7 108z"/><path fill="#fff" d="M1250.7-84.3l445-20.2L1527 118z"/><path fill="#5a7fab" d="M670.8 219.1l263-20.2-155 74.2z"/><path fill="#2d2113" d="M1628.2 306.8l54-101.2 27 121.4z"/><path fill="#3f474b" d="M1399 185.4l-519.1 182-317-121.3z"/></g></svg>