<svg xmlns="http://www.w3.org/2000/svg" viewBox="0 0 1600 525"><filter id="b"><feGaussianBlur stdDeviation="10" /></filter><path fill="#788977" d="M0 0h1600v525H0z"/><g filter="url(#b)" fill-opacity=".5"><path fill="#dcf1ff" d="M1603.1 15.6L-96.9-96.9l400 375z"/><path fill="#000c00" d="M1696.9 234.4L1265.6 46.9 834.4 559.4z"/><path fill="#5f6919" d="M84.4 178.1l1575 331.3L-97 609.4z"/><path fill="#a6c0e8" d="M1090.6 309.4L1159.4-97-97 147z"/><path fill="#547a9b" d="M-84.4 253.1l693.8-125L1265.6 372z"/><path fill="#0d2304" d="M1653.1 115.6L1097 197l431 187.4z"/><path fill="#dce4f0" d="M1565.6-96.9L984.4 59.4 1621.9 78z"/><path fill="#c5d3d8" d="M271.9-96.9l887.5 237.5L-97 178.1z"/><path d="M40.6 71.9L159.4-97-97 34.4z"/><path fill="#d6c2c0" d="M1303.1 359.4L1684.4 578l-93.8-187.5z"/><path fill="#95af00" d="M1696.9 596.9L1309.4 378 953 590.6z"/><path fill="#69663a" d="M721.9 303.1l756.2 31.3L472 621.9z"/><path fill="#c4d2d1" d="M1059.4 228.1l287.5-325-962.5 212.5z"/><path fill="#111e1b" d="M1103.1 178.1l187.5 181.3L1378.1 53z"/><path fill="#c7d7e6" d="M1353.1-96.9l81.3 231.3 262.5-162.5z"/><path fill="#678400" d="M1590.6 396.9L1372 353l318.6-106z"/><path fill="#001d10" d="M453.1 290.6l125 43.8-225-6.3z"/><path fill="#5d81ae" d="M578.1 359.4L1090.6 228 347 159.4z"/><path fill="#535327" d="M-96.9 459.4l912.5-12.5-287.5 175z"/><path fill="#3e5b5a" d="M1553.1 78.1l-168.7 187.5 312.5-106.2z"/><path fill="#b1b86f" d="M1178.1 365.6l-87.5-56.2-106.2 56.2z"/><path fill="#11211c" d="M1109.4 228.1L1228 415.6l-31-331.2z"/><path fill="#727b52" d="M871.9 296.9l362.5 325-800-337.5z"/><path fill="#aac0d1" d="M140.6 215.6l-200-150 643.8 62.5z"/><path fill="#134421" d="M878.1 340.6l-225-18.7 137.5-25z"/><path fill="#949a66" d="M190.6 334.4l287.5 81.2L747 334.4z"/><path fill="#365e00" d="M-96.9 265.6l300 87.5h-250z"/><path fill="#bdc9cd" d="M1696.9-3.1L934.4 134.4 578-97z"/><path fill="#5b83b3" d="M796.9 315.6l312.5-12.5v-100z"/><path fill="#32453a" d="M1403.1 65.6L1197 97l-69 237.4z"/><path fill="#95b952" d="M1290.6 384.4l-75-18.8 37.5-68.7z"/><path fill="#567679" d="M-96.9 315.6l406.3 6.3-225-156.3z"/><path fill="#727f32" d="M-96.9 378.1l531.3 162.5L746.9 372z"/><path fill="#000001" d="M1296.9 390.6L1240.6 222l68.8-68.8z"/><path fill="#426e19" d="M1290.6 359.4l18.8-93.8 143.7 93.8z"/><path fill="#b8cacf" d="M84.4 84.4L1090.6 203l218.8-300z"/><path fill="#708f8d" d="M9.4 284.4l375-100 400 125z"/><path fill="#ccd7df" d="M1428.1-71.9l81.3 187.5-62.5 6.3z"/><path fill="#a99171" d="M890.6 346.9l43.8 187.5 6.2-131.3z"/><path fill="#0b1414" d="M109.4-28.1L-3.1 40.6 28 78.1z"/></g></svg>