<svg xmlns="http://www.w3.org/2000/svg" width="240.015" height="150.082" viewBox="0 0 240.015 150.082"><defs><style>.a{fill:#f47b20;}.b{fill:#f99d1c;}.c{fill:#034ea2;}.d{fill:#f58220;}.e{fill:#f6871f;}.f{fill:#ffd400;}.g{fill:#009a4e;}.h{fill:#8bca81;}.i{fill:#231f20;stroke:#231f20;stroke-width:4px;}.j{fill:#a6ce39;}.k{fill:#fff;}</style></defs><g transform="translate(1.82)"><path class="a" d="M54.957,133.531s.281-17.6-13.908-14.2-14.477,3.4-20.722,1.874S-1.82,119.042-1.82,119.042s9.487-2.3,16.182-3.7c7.382-1.543,23-3.7,28.954-.924s8.231,3.679,10.5,8.606a31.633,31.633,0,0,1,2.554,10.186Z" transform="translate(0 -41.668)"/><path class="b" d="M57.907,125.912s-2.273-14.82-10.217-17.906-15.045-6.489-20.154-7.1S9.368,99.975,7.095,99.357,0,96.89,0,96.89s14.2,7.1,18.449,8.95,6.245,3.085,15.332,3.4,15.894,1.543,17.887,5.558,2.267,12.041,2.267,12.041Z" transform="translate(-0.683 -35.65)"/><path class="c" d="M88.756,86.755s-6.526-11.735.287-40.139S104.089,0,104.089,0,94.433,45.073,93.865,51.556,95,68.537,95,68.537l5.109-11.111A4.093,4.093,0,0,1,97.556,59.3l-1.986.625s5.677-6.839,8.231-12.378,4.259-11.117,6.533-15.133,6.526-10.492,6.526-10.492-9.087,20.372-11.922,27.786S94.721,72.24,95.57,76.874l.849,4.634Z" transform="translate(-32.345)"/><path class="d" d="M90.715,88.256S83.339,65.1,84.469,46.581A359.848,359.848,0,0,1,89.578,7.366S91,18.789,91,20.332v1.543L94.406,4s-.281,31.464-.281,34.549-1.137,15.414-1.137,15.414,5.109-5.246,7.663-16.057c.762-3.229.849-9.568,2.273-13.584,2.579-7.288,10.5-16.675,10.5-16.675s-5.677,10.186-6.245,13.584-3.41,18.83-5.964,24.982S97.99,51.971,94.693,60.1c-4.259,10.5-1.986,21.609-.849,23.158s3.123.306,3.123.306Z" transform="translate(-31.765 -1.502)"/><path class="e" d="M121.36,68.559s4.259-8.369,11.354-19.454,19.3-26.855,19.3-26.855-12.491,19.142-16.463,25.931S121.36,68.559,121.36,68.559Z" transform="translate(-45.401 -8.354)"/><path class="f" d="M102.72,89.671s1.137-13.278,8.231-17.287,17.6-14.2,21.009-21,9.081-16.975,12.778-18.83,4.54-3.4,4.54-3.4-7.382,7.1-9.649,11.729-7.669,15.751-10.224,18.836l-2.554,3.06S139.624,47.041,141.9,43.643a14.933,14.933,0,0,1,6.526-4.94s-4.821,4.047-6.807,7.751S131.111,62.2,125.434,65.6a74.054,74.054,0,0,0-14.2,11.735,6.76,6.76,0,0,0-1.986,5.558Z" transform="translate(-38.471 -10.948)"/><path class="e" d="M107.559,85.041s-1.418-6.177,2.273-9.88S126.3,55.094,131.691,49.23s16.75-22.54,16.75-22.54-16.469,23.464-20.722,29.641-16.75,17.905-17.887,21.609.568,5.864.568,5.864Z" transform="translate(-40.175 -10.021)"/><path class="g" d="M125.74,62.521C114.954,70.533,81.46,97.1,68.4,115.931c-8.637,12.491-9.724,31.6-9.418,45.548,0,.362.131,4.047.156,4.372h7.3c-.037-.387-.187-4.109-.187-4.509a136.576,136.576,0,0,1,1.58-21.041c1.986-13.584,9.087-20.685,21.859-31.183S118.645,80.1,126.877,68.985s17.6-22.515,17.6-22.515A183.469,183.469,0,0,1,125.74,62.521Z" transform="translate(-22.243 -16.019)"/><path class="h" d="M105.287,100.435c-6.814,6.483-30.053,29.041-34.062,38.284-3.029,6.982-4.472,19.617-3.891,30.727,0,.362.119,4.047.137,4.372H68.72c-.044-.418-.162-4.178-.2-4.615a78.311,78.311,0,0,1,2.442-28.348c3.516-11.748,30.659-33.344,36.055-38.59S135.4,67.69,135.4,67.69,112.1,93.952,105.287,100.435Z" transform="translate(-25.336 -23.986)"/><path class="h" d="M69.407,201.608V189s-.269-7.407-.269-15.126a54.1,54.1,0,0,1,1.986-14.2s-3.691,9.262-3.4,17.906C68.114,189.729,68.514,189.985,69.407,201.608Z" transform="translate(-26.104 -58.521)"/><path class="i" d="M91.31,68.987c0-4.853-.137-9.106-.462-12.753,1.112.094,2.217.137,3.235.137,2.636,0,5-.231,7.12-.231,6.7,0,10.261,2.91,10.261,8.181,0,5.621-4.578,9.243-12.385,9.243-.968,0-2.08,0-3.422-.044v3.885c0,2.542.044,6.008.231,10.4a11.865,11.865,0,0,0-2.542-.231,12.259,12.259,0,0,0-2.586.231C91.128,81.659,91.31,75.363,91.31,68.987Zm5.846,2.729c6.245,0,9.368-2.5,9.368-7.257,0-3.972-2.636-6.426-7.438-6.426-.625,0-1.755.044-3.191.137-.187,2.96-.231,5.084-.231,6.283v7.213C96.162,71.716,96.674,71.716,97.155,71.716Z" transform="translate(-34.152 -20.65)"/><path class="i" d="M134.467,93.725c-3.835,0-6.377-2.5-6.377-6.052,0-4.484,2.355-5.733,7.532-6.87l4.2-.924c1.293-.275,1.8-.881,1.8-2.355,0-3.279-1.986-5.221-5.221-5.221a5.658,5.658,0,0,0-5.546,3.654l-.956-.393.231-2.5a10.5,10.5,0,0,1,7.438-2.729c5.777,0,7.857,2.267,7.857,7.351V88.641c0,1.874.187,2.636,1.986,2.636.137,0,.556-.044,1.343-.044V92.2a10.524,10.524,0,0,1-4.2,1.155c-1.874,0-2.773-.968-3.048-3.123A8.968,8.968,0,0,1,134.467,93.725Zm4.247-11.735c-4.2.787-6.2,2.267-6.2,4.946,0,2.5,1.48,4.066,3.747,4.066a4.948,4.948,0,0,0,5.221-5.315V81.434Z" transform="translate(-47.922 -25.905)"/><path class="i" d="M168.558,78.559a54.016,54.016,0,0,0-.368-7.494,14.557,14.557,0,0,0,2.448.187,14.026,14.026,0,0,0,2.4-.187,27.122,27.122,0,0,0-.368,4.116v.556c1.8-3.51,4.116-5.177,7.257-5.177a8.52,8.52,0,0,1,1.062.044,16.463,16.463,0,0,0-.187,2.173,19.424,19.424,0,0,0,.187,2.267,14.489,14.489,0,0,0-3.123-.506,4.846,4.846,0,0,0-3.554,1.574c-1.618,1.8-1.711,3.6-1.711,5.621v4.809q0,2.842.275,6.658a13.568,13.568,0,0,0-2.355-.231,13.043,13.043,0,0,0-2.311.231C168.515,90.856,168.558,85.954,168.558,78.559Z" transform="translate(-62.754 -25.992)"/><path class="i" d="M200.767,93.74c-3.835,0-6.377-2.5-6.377-6.052,0-4.484,2.355-5.733,7.532-6.87l4.2-.924c1.293-.275,1.8-.881,1.8-2.354,0-3.279-1.986-5.221-5.221-5.221a5.658,5.658,0,0,0-5.546,3.654l-.968-.368.231-2.5a10.492,10.492,0,0,1,7.438-2.729c5.777,0,7.857,2.267,7.857,7.351V88.656c0,1.874.187,2.636,1.986,2.636.137,0,.556-.044,1.343-.044v.968a10.524,10.524,0,0,1-4.2,1.155c-1.874,0-2.773-.968-3.048-3.123A8.975,8.975,0,0,1,200.767,93.74ZM205.02,82c-4.2.787-6.2,2.267-6.2,4.946,0,2.5,1.48,4.066,3.747,4.066a4.948,4.948,0,0,0,5.221-5.315V81.449Z" transform="translate(-72.38 -25.92)"/><path class="i" d="M253.335,64c0,10.673.094,18.024.275,22a10.542,10.542,0,0,0-4.372,0c.187-1.618.275-3,.325-4.116-1.755,3.191-4.066,4.665-7.532,4.665-5.914,0-9.431-4.2-9.431-11.866,0-7.12,3.747-11.367,9.287-11.367,3.51,0,5.914,1.293,7.438,3.928V60.5c0-3.373,0-6.426-.275-9.149a12.978,12.978,0,0,0,2.311.187,12.49,12.49,0,0,0,2.267-.187C253.378,55.31,253.335,59.519,253.335,64ZM243.4,83.988c3.791,0,6.2-3.279,6.2-9.106-.006-6.027-2.379-9.387-6.2-9.387s-6.1,3.373-6.1,9.243,2.355,9.224,6.1,9.224Z" transform="translate(-86.472 -18.876)"/><path class="i" d="M280.741,54.729a2.442,2.442,0,0,1,2.679,2.636,2.317,2.317,0,0,1-2.5,2.448,2.549,2.549,0,1,1-.181-5.084Zm-2.173,19.18a84.758,84.758,0,0,0-.325-8.781,12.976,12.976,0,0,0,2.311.187,13.5,13.5,0,0,0,2.355-.187,70.659,70.659,0,0,0-.325,8.181c0,5.821.094,10.492.325,13.958a13.57,13.57,0,0,0-2.354-.231,13.046,13.046,0,0,0-2.311.231c.231-2.729.325-7.163.325-13.359Z" transform="translate(-103.399 -20.127)"/><path class="i" d="M299.388,87.664c.693,2.91,2.4,4.253,5.452,4.253,3.191,0,5-1.524,5-4.022,0-2.773-2.173-3.123-5.621-4.2-4.116-1.293-6.052-2.91-6.052-6.1,0-4.2,3.235-7.12,8.275-7.12a13.865,13.865,0,0,1,6.008,1.48c-.418,1.249-.881,2.586-1.343,4.022h-.462c-.368-2.355-1.942-3.6-4.578-3.6s-4.372,1.524-4.372,3.7c0,2.5,2.123,2.91,5.546,3.972,4.2,1.293,6.2,2.636,6.2,6.245,0,4.528-3.372,7.438-9.149,7.438a15.258,15.258,0,0,1-6.514-1.386c.368-1.524.787-3.123,1.2-4.665Z" transform="translate(-110.2 -25.957)"/><path class="i" d="M335.564,82.321c0,6.1,2.817,9.474,7.582,9.474a8.307,8.307,0,0,0,6.745-2.96l.625.137a19.722,19.722,0,0,0-.368,2.679,15.451,15.451,0,0,1-8.119,2.123c-6.932,0-11.048-4.253-11.048-11.323,0-7.257,4.2-11.972,10.723-11.972,6.1,0,9.749,3.747,9.749,10.124a13.856,13.856,0,0,1-.044,1.386c-3.466-.094-6.795-.187-9.936-.187-2.036,0-3.972.044-5.871.094Zm2.355-2.311c2.267,0,5.221-.044,8.918-.094a13.022,13.022,0,0,0,.094-1.343c0-3.885-2.173-6.283-5.315-6.283-3.466,0-5.621,2.679-5.914,7.719Z" transform="translate(-122.669 -25.961)"/><path class="i" d="M95.844,154.8a11.863,11.863,0,0,0-2.542-.231,12.1,12.1,0,0,0-2.542.231c.368-6.1.556-12.385.556-18.948,0-4.622-.137-8.781-.462-12.616q1.661.137,3.191.137c2.636,0,5-.231,6.976-.231,6.564,0,10.03,2.636,10.03,7.351,0,4.2-3.123,7.163-9.056,8.225q5.546,7.351,12.385,16.082a27.478,27.478,0,0,0-3.372-.231,26.023,26.023,0,0,0-3.279.231,121.443,121.443,0,0,0-11.092-15.439H95.519v5.04C95.519,147.634,95.656,151.1,95.844,154.8Zm1.249-17.056c6.1,0,9.243-2.355,9.243-6.658,0-3.885-2.729-6.1-7.813-6.1a19.233,19.233,0,0,0-2.729.187,46.392,46.392,0,0,0-.275,5.871V137.7c.556.044,1.062.044,1.568.044Z" transform="translate(-34.143 -45.295)"/><path class="i" d="M138.544,149.321c0,6.1,2.817,9.474,7.582,9.474a8.307,8.307,0,0,0,6.745-2.96l.625.137a19.786,19.786,0,0,0-.368,2.679,15.457,15.457,0,0,1-8.119,2.123c-6.932,0-11.048-4.253-11.048-11.323,0-7.257,4.2-11.972,10.723-11.972,6.1,0,9.749,3.747,9.749,10.124a13.843,13.843,0,0,1-.044,1.386c-3.466-.094-6.795-.181-9.936-.181-2.036,0-3.972.044-5.871.094Zm2.354-2.311c2.267,0,5.221-.044,8.918-.094a13.117,13.117,0,0,0,.094-1.343c0-3.885-2.173-6.283-5.315-6.283-3.466,0-5.621,2.679-5.914,7.719Z" transform="translate(-50.088 -50.64)"/><path class="i" d="M177.123,136.2a18.526,18.526,0,0,0-3.123.275,5.072,5.072,0,0,0,.094-1.155,4.685,4.685,0,0,0-.094-1.155,27.065,27.065,0,0,0,3.747.387v-1.8c0-.625-.044-1.755-.187-3.466a18.293,18.293,0,0,0,4.665-2.123,41.077,41.077,0,0,0-.462,5.221v2.173a33.527,33.527,0,0,0,5.04-.368,8.972,8.972,0,0,0-.094,1.155,10.529,10.529,0,0,0,.094,1.155,32.485,32.485,0,0,0-4.253-.275h-.831l-.225,11.3v1.112c0,4.2.625,6.145,3.747,6.145a14.751,14.751,0,0,0,2.08-.231v1.574a12.777,12.777,0,0,1-4.159.737c-3.972,0-5.733-2.08-5.733-6.514,0-1.874.137-4.253.187-7.207l.137-6.932Z" transform="translate(-64.896 -46.79)"/><path class="i" d="M205.513,145.559a54.012,54.012,0,0,0-.368-7.494,14.59,14.59,0,0,0,2.448.181,14.055,14.055,0,0,0,2.4-.181,27.114,27.114,0,0,0-.368,4.116v.556c1.8-3.51,4.116-5.177,7.257-5.177a8.528,8.528,0,0,1,1.062.044,16.453,16.453,0,0,0-.187,2.173,19.427,19.427,0,0,0,.187,2.267,14.507,14.507,0,0,0-3.123-.506,4.846,4.846,0,0,0-3.6,1.574c-1.618,1.8-1.711,3.6-1.711,5.621v4.809q0,2.842.275,6.658a13.526,13.526,0,0,0-2.355-.231,13.018,13.018,0,0,0-2.311.231C205.47,157.856,205.513,152.954,205.513,145.559Z" transform="translate(-76.385 -50.673)"/><path class="i" d="M237.844,149.321c0,6.1,2.817,9.474,7.582,9.474a8.307,8.307,0,0,0,6.745-2.96l.625.137a19.734,19.734,0,0,0-.368,2.679,15.457,15.457,0,0,1-8.119,2.123c-6.932,0-11.048-4.253-11.048-11.323,0-7.257,4.2-11.972,10.723-11.972,6.1,0,9.749,3.747,9.749,10.124a13.848,13.848,0,0,1-.044,1.386c-3.466-.094-6.795-.181-9.936-.181-2.036,0-3.972.044-5.871.094Zm2.355-2.311c2.267,0,5.221-.044,8.918-.094a13.01,13.01,0,0,0,.094-1.343c0-3.885-2.173-6.283-5.315-6.283-3.466,0-5.621,2.679-5.914,7.719Z" transform="translate(-86.72 -50.64)"/><path class="i" d="M280.877,160.74c-3.835,0-6.377-2.5-6.377-6.052,0-4.484,2.355-5.733,7.532-6.87l4.2-.924c1.293-.275,1.8-.881,1.8-2.355,0-3.279-1.986-5.221-5.221-5.221a5.658,5.658,0,0,0-5.546,3.654l-.968-.368.231-2.5a10.492,10.492,0,0,1,7.438-2.729c5.777,0,7.857,2.267,7.857,7.351v10.954c0,1.874.187,2.636,1.986,2.636.137,0,.556-.044,1.343-.044v.968a10.517,10.517,0,0,1-4.2,1.155c-1.874,0-2.773-.968-3.048-3.123a8.968,8.968,0,0,1-7.032,3.466ZM285.13,149c-4.2.787-6.2,2.267-6.2,4.946,0,2.5,1.48,4.066,3.747,4.066A4.948,4.948,0,0,0,287.9,152.7v-4.253Z" transform="translate(-101.931 -50.599)"/><path class="i" d="M315.833,136.192a18.514,18.514,0,0,0-3.123.275,5.086,5.086,0,0,0,.094-1.155,4.7,4.7,0,0,0-.094-1.155,27.042,27.042,0,0,0,3.791.368v-1.8c0-.625-.044-1.755-.187-3.466a18.287,18.287,0,0,0,4.665-2.123,41.118,41.118,0,0,0-.462,5.221v2.192a33.5,33.5,0,0,0,5.04-.368,8.989,8.989,0,0,0-.094,1.155,10.517,10.517,0,0,0,.094,1.155,32.431,32.431,0,0,0-4.253-.275h-.831l-.231,11.323v1.112c0,4.2.625,6.145,3.747,6.145a14.761,14.761,0,0,0,2.08-.231v1.574a12.777,12.777,0,0,1-4.159.737c-3.972,0-5.733-2.08-5.733-6.514,0-1.874.137-4.253.187-7.207l.137-6.932Z" transform="translate(-115.809 -46.779)"/><path class="i" d="M344.268,154.664c.693,2.91,2.4,4.253,5.452,4.253,3.191,0,5-1.524,5-4.022,0-2.773-2.173-3.123-5.621-4.2-4.116-1.293-6.052-2.91-6.052-6.1,0-4.2,3.235-7.12,8.275-7.12a13.865,13.865,0,0,1,6.008,1.48c-.418,1.249-.881,2.586-1.343,4.022h-.462c-.368-2.355-1.942-3.6-4.578-3.6s-4.372,1.524-4.372,3.7c0,2.5,2.123,2.91,5.546,3.972,4.2,1.293,6.2,2.636,6.2,6.245,0,4.528-3.372,7.438-9.149,7.438a15.258,15.258,0,0,1-6.514-1.386c.369-1.524.787-3.123,1.2-4.665Z" transform="translate(-127.051 -50.637)"/><path class="j" d="M91.31,68.987c0-4.853-.137-9.106-.462-12.753,1.112.094,2.217.137,3.235.137,2.636,0,5-.231,7.12-.231,6.7,0,10.261,2.91,10.261,8.181,0,5.621-4.578,9.243-12.385,9.243-.968,0-2.08,0-3.422-.044v3.885c0,2.542.044,6.008.231,10.4a11.865,11.865,0,0,0-2.542-.231,12.259,12.259,0,0,0-2.586.231C91.128,81.659,91.31,75.363,91.31,68.987Zm5.846,2.729c6.245,0,9.368-2.5,9.368-7.257,0-3.972-2.636-6.426-7.438-6.426-.625,0-1.755.044-3.191.137-.187,2.96-.231,5.084-.231,6.283v7.213C96.162,71.716,96.674,71.716,97.155,71.716Z" transform="translate(-34.152 -20.65)"/><path class="j" d="M134.467,93.725c-3.835,0-6.377-2.5-6.377-6.052,0-4.484,2.355-5.733,7.532-6.87l4.2-.924c1.293-.275,1.8-.881,1.8-2.355,0-3.279-1.986-5.221-5.221-5.221a5.658,5.658,0,0,0-5.546,3.654l-.956-.393.231-2.5a10.5,10.5,0,0,1,7.438-2.729c5.777,0,7.857,2.267,7.857,7.351V88.641c0,1.874.187,2.636,1.986,2.636.137,0,.556-.044,1.343-.044V92.2a10.524,10.524,0,0,1-4.2,1.155c-1.874,0-2.773-.968-3.048-3.123A8.968,8.968,0,0,1,134.467,93.725Zm4.247-11.735c-4.2.787-6.2,2.267-6.2,4.946,0,2.5,1.48,4.066,3.747,4.066a4.948,4.948,0,0,0,5.221-5.315V81.434Z" transform="translate(-47.922 -25.905)"/><path class="j" d="M168.558,78.559a54.016,54.016,0,0,0-.368-7.494,14.557,14.557,0,0,0,2.448.187,14.026,14.026,0,0,0,2.4-.187,27.122,27.122,0,0,0-.368,4.116v.556c1.8-3.51,4.116-5.177,7.257-5.177a8.52,8.52,0,0,1,1.062.044,16.463,16.463,0,0,0-.187,2.173,19.424,19.424,0,0,0,.187,2.267,14.489,14.489,0,0,0-3.123-.506,4.846,4.846,0,0,0-3.554,1.574c-1.618,1.8-1.711,3.6-1.711,5.621v4.809q0,2.842.275,6.658a13.568,13.568,0,0,0-2.355-.231,13.043,13.043,0,0,0-2.311.231C168.515,90.856,168.558,85.954,168.558,78.559Z" transform="translate(-62.754 -25.992)"/><path class="j" d="M200.767,93.74c-3.835,0-6.377-2.5-6.377-6.052,0-4.484,2.355-5.733,7.532-6.87l4.2-.924c1.293-.275,1.8-.881,1.8-2.354,0-3.279-1.986-5.221-5.221-5.221a5.658,5.658,0,0,0-5.546,3.654l-.968-.368.231-2.5a10.492,10.492,0,0,1,7.438-2.729c5.777,0,7.857,2.267,7.857,7.351V88.656c0,1.874.187,2.636,1.986,2.636.137,0,.556-.044,1.343-.044v.968a10.524,10.524,0,0,1-4.2,1.155c-1.874,0-2.773-.968-3.048-3.123A8.975,8.975,0,0,1,200.767,93.74ZM205.02,82c-4.2.787-6.2,2.267-6.2,4.946,0,2.5,1.48,4.066,3.747,4.066a4.948,4.948,0,0,0,5.221-5.315V81.449Z" transform="translate(-72.38 -25.92)"/><path class="j" d="M253.335,64c0,10.673.094,18.024.275,22a10.542,10.542,0,0,0-4.372,0c.187-1.618.275-3,.325-4.116-1.755,3.191-4.066,4.665-7.532,4.665-5.914,0-9.431-4.2-9.431-11.866,0-7.12,3.747-11.367,9.287-11.367,3.51,0,5.914,1.293,7.438,3.928V60.5c0-3.373,0-6.426-.275-9.149a12.978,12.978,0,0,0,2.311.187,12.49,12.49,0,0,0,2.267-.187C253.378,55.31,253.335,59.519,253.335,64ZM243.4,83.988c3.791,0,6.2-3.279,6.2-9.106-.006-6.027-2.379-9.387-6.2-9.387s-6.1,3.373-6.1,9.243,2.355,9.224,6.1,9.224Z" transform="translate(-86.472 -18.876)"/><path class="j" d="M280.741,54.729a2.442,2.442,0,0,1,2.679,2.636,2.317,2.317,0,0,1-2.5,2.448,2.549,2.549,0,1,1-.181-5.084Zm-2.173,19.18a84.758,84.758,0,0,0-.325-8.781,12.976,12.976,0,0,0,2.311.187,13.5,13.5,0,0,0,2.355-.187,70.659,70.659,0,0,0-.325,8.181c0,5.821.094,10.492.325,13.958a13.57,13.57,0,0,0-2.354-.231,13.046,13.046,0,0,0-2.311.231c.231-2.729.325-7.163.325-13.359Z" transform="translate(-103.399 -20.127)"/><path class="j" d="M299.388,87.664c.693,2.91,2.4,4.253,5.452,4.253,3.191,0,5-1.524,5-4.022,0-2.773-2.173-3.123-5.621-4.2-4.116-1.293-6.052-2.91-6.052-6.1,0-4.2,3.235-7.12,8.275-7.12a13.865,13.865,0,0,1,6.008,1.48c-.418,1.249-.881,2.586-1.343,4.022h-.462c-.368-2.355-1.942-3.6-4.578-3.6s-4.372,1.524-4.372,3.7c0,2.5,2.123,2.91,5.546,3.972,4.2,1.293,6.2,2.636,6.2,6.245,0,4.528-3.372,7.438-9.149,7.438a15.258,15.258,0,0,1-6.514-1.386c.368-1.524.787-3.123,1.2-4.665Z" transform="translate(-110.2 -25.957)"/><path class="j" d="M335.564,82.321c0,6.1,2.817,9.474,7.582,9.474a8.307,8.307,0,0,0,6.745-2.96l.625.137a19.722,19.722,0,0,0-.368,2.679,15.451,15.451,0,0,1-8.119,2.123c-6.932,0-11.048-4.253-11.048-11.323,0-7.257,4.2-11.972,10.723-11.972,6.1,0,9.749,3.747,9.749,10.124a13.856,13.856,0,0,1-.044,1.386c-3.466-.094-6.795-.187-9.936-.187-2.036,0-3.972.044-5.871.094Zm2.355-2.311c2.267,0,5.221-.044,8.918-.094a13.022,13.022,0,0,0,.094-1.343c0-3.885-2.173-6.283-5.315-6.283-3.466,0-5.621,2.679-5.914,7.719Z" transform="translate(-122.669 -25.961)"/><path class="j" d="M95.844,154.8a11.863,11.863,0,0,0-2.542-.231,12.1,12.1,0,0,0-2.542.231c.368-6.1.556-12.385.556-18.948,0-4.622-.137-8.781-.462-12.616q1.661.137,3.191.137c2.636,0,5-.231,6.976-.231,6.564,0,10.03,2.636,10.03,7.351,0,4.2-3.123,7.163-9.056,8.225q5.546,7.351,12.385,16.082a27.478,27.478,0,0,0-3.372-.231,26.023,26.023,0,0,0-3.279.231,121.443,121.443,0,0,0-11.092-15.439H95.519v5.04C95.519,147.634,95.656,151.1,95.844,154.8Zm1.249-17.056c6.1,0,9.243-2.355,9.243-6.658,0-3.885-2.729-6.1-7.813-6.1a19.233,19.233,0,0,0-2.729.187,46.392,46.392,0,0,0-.275,5.871V137.7c.556.044,1.062.044,1.568.044Z" transform="translate(-34.143 -45.295)"/><path class="j" d="M138.544,149.321c0,6.1,2.817,9.474,7.582,9.474a8.307,8.307,0,0,0,6.745-2.96l.625.137a19.786,19.786,0,0,0-.368,2.679,15.457,15.457,0,0,1-8.119,2.123c-6.932,0-11.048-4.253-11.048-11.323,0-7.257,4.2-11.972,10.723-11.972,6.1,0,9.749,3.747,9.749,10.124a13.843,13.843,0,0,1-.044,1.386c-3.466-.094-6.795-.181-9.936-.181-2.036,0-3.972.044-5.871.094Zm2.354-2.311c2.267,0,5.221-.044,8.918-.094a13.117,13.117,0,0,0,.094-1.343c0-3.885-2.173-6.283-5.315-6.283-3.466,0-5.621,2.679-5.914,7.719Z" transform="translate(-50.088 -50.64)"/><path class="j" d="M177.123,136.2a18.526,18.526,0,0,0-3.123.275,5.072,5.072,0,0,0,.094-1.155,4.685,4.685,0,0,0-.094-1.155,27.065,27.065,0,0,0,3.747.387v-1.8c0-.625-.044-1.755-.187-3.466a18.293,18.293,0,0,0,4.665-2.123,41.077,41.077,0,0,0-.462,5.221v2.173a33.527,33.527,0,0,0,5.04-.368,8.972,8.972,0,0,0-.094,1.155,10.529,10.529,0,0,0,.094,1.155,32.485,32.485,0,0,0-4.253-.275h-.831l-.225,11.3v1.112c0,4.2.625,6.145,3.747,6.145a14.751,14.751,0,0,0,2.08-.231v1.574a12.777,12.777,0,0,1-4.159.737c-3.972,0-5.733-2.08-5.733-6.514,0-1.874.137-4.253.187-7.207l.137-6.932Z" transform="translate(-64.896 -46.79)"/><path class="j" d="M205.513,145.559a54.012,54.012,0,0,0-.368-7.494,14.59,14.59,0,0,0,2.448.181,14.055,14.055,0,0,0,2.4-.181,27.114,27.114,0,0,0-.368,4.116v.556c1.8-3.51,4.116-5.177,7.257-5.177a8.528,8.528,0,0,1,1.062.044,16.453,16.453,0,0,0-.187,2.173,19.427,19.427,0,0,0,.187,2.267,14.507,14.507,0,0,0-3.123-.506,4.846,4.846,0,0,0-3.6,1.574c-1.618,1.8-1.711,3.6-1.711,5.621v4.809q0,2.842.275,6.658a13.526,13.526,0,0,0-2.355-.231,13.018,13.018,0,0,0-2.311.231C205.47,157.856,205.513,152.954,205.513,145.559Z" transform="translate(-76.385 -50.673)"/><path class="j" d="M237.844,149.321c0,6.1,2.817,9.474,7.582,9.474a8.307,8.307,0,0,0,6.745-2.96l.625.137a19.734,19.734,0,0,0-.368,2.679,15.457,15.457,0,0,1-8.119,2.123c-6.932,0-11.048-4.253-11.048-11.323,0-7.257,4.2-11.972,10.723-11.972,6.1,0,9.749,3.747,9.749,10.124a13.848,13.848,0,0,1-.044,1.386c-3.466-.094-6.795-.181-9.936-.181-2.036,0-3.972.044-5.871.094Zm2.355-2.311c2.267,0,5.221-.044,8.918-.094a13.01,13.01,0,0,0,.094-1.343c0-3.885-2.173-6.283-5.315-6.283-3.466,0-5.621,2.679-5.914,7.719Z" transform="translate(-86.72 -50.64)"/><path class="j" d="M280.877,160.74c-3.835,0-6.377-2.5-6.377-6.052,0-4.484,2.355-5.733,7.532-6.87l4.2-.924c1.293-.275,1.8-.881,1.8-2.355,0-3.279-1.986-5.221-5.221-5.221a5.658,5.658,0,0,0-5.546,3.654l-.968-.368.231-2.5a10.492,10.492,0,0,1,7.438-2.729c5.777,0,7.857,2.267,7.857,7.351v10.954c0,1.874.187,2.636,1.986,2.636.137,0,.556-.044,1.343-.044v.968a10.517,10.517,0,0,1-4.2,1.155c-1.874,0-2.773-.968-3.048-3.123a8.968,8.968,0,0,1-7.032,3.466ZM285.13,149c-4.2.787-6.2,2.267-6.2,4.946,0,2.5,1.48,4.066,3.747,4.066A4.948,4.948,0,0,0,287.9,152.7v-4.253Z" transform="translate(-101.931 -50.599)"/><path class="j" d="M315.833,136.192a18.514,18.514,0,0,0-3.123.275,5.086,5.086,0,0,0,.094-1.155,4.7,4.7,0,0,0-.094-1.155,27.042,27.042,0,0,0,3.791.368v-1.8c0-.625-.044-1.755-.187-3.466a18.287,18.287,0,0,0,4.665-2.123,41.118,41.118,0,0,0-.462,5.221v2.192a33.5,33.5,0,0,0,5.04-.368,8.989,8.989,0,0,0-.094,1.155,10.517,10.517,0,0,0,.094,1.155,32.431,32.431,0,0,0-4.253-.275h-.831l-.231,11.323v1.112c0,4.2.625,6.145,3.747,6.145a14.761,14.761,0,0,0,2.08-.231v1.574a12.777,12.777,0,0,1-4.159.737c-3.972,0-5.733-2.08-5.733-6.514,0-1.874.137-4.253.187-7.207l.137-6.932Z" transform="translate(-115.809 -46.779)"/><path class="j" d="M344.268,154.664c.693,2.91,2.4,4.253,5.452,4.253,3.191,0,5-1.524,5-4.022,0-2.773-2.173-3.123-5.621-4.2-4.116-1.293-6.052-2.91-6.052-6.1,0-4.2,3.235-7.12,8.275-7.12a13.865,13.865,0,0,1,6.008,1.48c-.418,1.249-.881,2.586-1.343,4.022h-.462c-.368-2.355-1.942-3.6-4.578-3.6s-4.372,1.524-4.372,3.7c0,2.5,2.123,2.91,5.546,3.972,4.2,1.293,6.2,2.636,6.2,6.245,0,4.528-3.372,7.438-9.149,7.438a15.258,15.258,0,0,1-6.514-1.386c.369-1.524.787-3.123,1.2-4.665Z" transform="translate(-127.051 -50.637)"/><path class="k" d="M88.32,191c.781.05,1.405.081,1.874.081s1.093-.031,1.874-.081c.525,2,1.249,4.515,2.336,7.532.9-2.161,1.93-4.659,3.079-7.532.562.05.937.081,1.112.081.331,0,.762-.031,1.287-.081.662,2.08,1.536,4.6,2.785,7.569A57.052,57.052,0,0,0,105.1,191c.487.05.874.081,1.187.081.212,0,.587-.031,1.074-.081q-1.692,4.266-4.372,11.092c-.487-.05-.874-.081-1.168-.081s-.7.031-1.168.081c-.625-1.624-1.536-4.109-2.9-7.42a68.346,68.346,0,0,0-3.023,7.42c-.506-.05-.918-.081-1.249-.081-.175,0-.562.031-1.168.081A110.866,110.866,0,0,0,88.32,191Z" transform="translate(-33.256 -70.285)"/><path class="k" d="M139.812,196.26c3.185,0,5.046,1.374,5.046,3.81,0,2.629-1.93,4.147-5.29,4.147-3.254,0-5.059-1.374-5.059-3.866C134.516,197.746,136.527,196.26,139.812,196.26Zm-.119,7.226c1.618,0,2.723-1.155,2.723-3.235s-1.08-3.26-2.723-3.26-2.735,1.18-2.735,3.26,1.08,3.235,2.742,3.235Z" transform="translate(-50.331 -72.259)"/><path class="k" d="M163.775,200.708v-.393a33.495,33.495,0,0,0-.175-3.847c.375,0,.712.044,1.024.044.837,0,1.742-.081,2.723-.081,2.036,0,3.023.587,3.023,1.992,0,1.08-.812,1.8-2.1,1.874a46.452,46.452,0,0,0,2.979,3.835c-.624-.031-1.149-.056-1.468-.056a12.276,12.276,0,0,0-1.337.056,25.2,25.2,0,0,0-2.536-3.61v1.474a18.678,18.678,0,0,0,.106,2.136c-.5-.031-.906-.056-1.2-.056a10.3,10.3,0,0,0-1.212.056A27.74,27.74,0,0,0,163.775,200.708Zm2.186-.743c1.468,0,2.13-.437,2.13-1.486,0-.943-.568-1.324-1.8-1.324h-.337c-.037.531-.037.956-.037,1.249v1.549Z" transform="translate(-61.083 -72.323)"/><path class="k" d="M187.485,201.112v-1.249a23.619,23.619,0,0,0-.175-3.372c.625,0,1.012.044,1.249.044.393,0,.824,0,1.336-.044a18.9,18.9,0,0,0-.137,2.317v2.935a12.209,12.209,0,0,0,.056,1.493c.931,0,1.874-.031,2.942-.125a4.269,4.269,0,0,0-.037.531,2.265,2.265,0,0,0,.056.531c-1.549-.031-2.685-.056-3.385-.056-.525,0-1.212,0-2.048.056A19.989,19.989,0,0,0,187.485,201.112Z" transform="translate(-69.849 -72.346)"/><path class="k" d="M208.15,201.518v-2.161A21.364,21.364,0,0,0,208,196.5q.543.031,1.13.031c.968,0,1.755-.044,2.361-.044a8.277,8.277,0,0,1,3.616.462,3.22,3.22,0,0,1,1.768,3.2c0,2.673-1.874,4.022-5.546,4.022-.812,0-1.536-.031-2.2-.031H208A17.759,17.759,0,0,0,208.15,201.518Zm3.073,1.874c2.117,0,3.21-1.055,3.21-3.123,0-2.217-.987-2.992-3.2-2.992h-.793c0,1.336-.056,2.392-.056,3.173,0,.587,0,1.549.037,2.892a5,5,0,0,0,.806.05Z" transform="translate(-77.471 -72.346)"/><path class="k" d="M258.471,191.784a3.981,3.981,0,0,0-4.309,4.322c0,3.216,1.536,4.9,4.44,4.9a4.745,4.745,0,0,0,3.7-1.33l.293.112a15.127,15.127,0,0,0-.45,1.655,10.193,10.193,0,0,1-4.172.762c-4.64,0-7.307-2.161-7.307-5.814,0-3.522,2.885-5.733,7.544-5.733a12.047,12.047,0,0,1,4.578.874,12.985,12.985,0,0,0-.624,1.98h-.293C261.337,192.384,260.188,191.784,258.471,191.784Z" transform="translate(-93.204 -70.157)"/><path class="k" d="M286.995,201.112v-1.249a23.663,23.663,0,0,0-.175-3.373c.625,0,1.012.044,1.249.044.393,0,.824,0,1.336-.044a18.912,18.912,0,0,0-.137,2.317v2.935a12.091,12.091,0,0,0,.056,1.493c.931,0,1.874-.031,2.942-.125a4.29,4.29,0,0,0-.038.531,2.265,2.265,0,0,0,.056.531c-1.549-.031-2.686-.056-3.385-.056-.525,0-1.212,0-2.048.056A20.039,20.039,0,0,0,286.995,201.112Z" transform="translate(-106.6 -72.346)"/><path class="k" d="M310.58,196.26c.244,0,.475.044.687.044a3.936,3.936,0,0,0,.687-.044c1.037,2.5,2.2,5.127,3.547,7.825-.581,0-1.012-.031-1.305-.031-.393,0-.837,0-1.349.031-.281-.743-.537-1.461-.812-2.148-.487,0-.968-.031-1.455-.031-.231,0-.712,0-1.455.031-.269.7-.568,1.405-.874,2.148l-.662-.031q-.325,0-.768.031C308.182,201.5,309.431,198.9,310.58,196.26Zm0,4.778h1.093a19.082,19.082,0,0,0-1.08-2.386c-.443.874-.812,1.674-1.093,2.386.431-.012.781,0,1.105,0Z" transform="translate(-113.598 -72.259)"/><path class="k" d="M332.173,202.017h.231a1.8,1.8,0,0,0,2.024,1.436c1.037,0,1.661-.425,1.661-1.112s-.625-.912-1.755-1.349c-1.63-.625-2.548-1.112-2.548-2.348,0-1.436,1.249-2.386,3.491-2.386a5.727,5.727,0,0,1,2.417.475,9.267,9.267,0,0,0-.537,1.474h-.162A1.874,1.874,0,0,0,335.121,197c-.956,0-1.511.437-1.511.987,0,.662.731.856,2.023,1.361,1.5.624,2.417,1.024,2.417,2.33,0,1.574-1.418,2.554-3.872,2.554a7.255,7.255,0,0,1-2.4-.368C331.917,203.2,332.049,202.579,332.173,202.017Z" transform="translate(-122.97 -72.259)"/><path class="k" d="M354.369,202.017h.256a1.8,1.8,0,0,0,2.024,1.436c1.037,0,1.661-.425,1.661-1.112s-.625-.912-1.755-1.349c-1.63-.625-2.548-1.112-2.548-2.348,0-1.436,1.249-2.386,3.491-2.386a5.727,5.727,0,0,1,2.417.475,9.286,9.286,0,0,0-.537,1.474h-.162A1.874,1.874,0,0,0,357.341,197c-.956,0-1.511.437-1.511.987,0,.662.731.856,2.024,1.361,1.5.624,2.417,1.024,2.417,2.33,0,1.574-1.418,2.554-3.872,2.554a7.256,7.256,0,0,1-2.4-.368C354.112,203.2,354.25,202.579,354.369,202.017Z" transform="translate(-131.312 -72.259)"/><path class="k" d="M91.986,228.35,88.07,220c.837.05,1.518.081,2.048.081.294,0,.893-.031,1.774-.081a14.621,14.621,0,0,0,.718,1.967l2.554,5.621,2.436-5.665a12.684,12.684,0,0,0,.662-1.917c.487.05.856.081,1.112.081s.681-.031,1.205-.081a30,30,0,0,0-1.461,2.7l-2.692,5.621a22.478,22.478,0,0,0-1.093,2.779,10.248,10.248,0,0,0-1.093-.081,10.614,10.614,0,0,0-1.093.081A27.077,27.077,0,0,0,91.986,228.35Z" transform="translate(-33.181 -81.173)"/><path class="k" d="M113.886,225.26c.244,0,.475.044.687.044a3.934,3.934,0,0,0,.687-.044c1.037,2.5,2.2,5.127,3.547,7.825-.581,0-1.012-.031-1.312-.031-.393,0-.837,0-1.349.031-.281-.743-.537-1.461-.812-2.148-.487,0-.974-.031-1.455-.031-.231,0-.712,0-1.455.031-.269.7-.568,1.405-.874,2.148l-.662-.031q-.325,0-.768.031C111.513,230.5,112.768,227.9,113.886,225.26Zm0,4.778h1.093a19.132,19.132,0,0,0-1.08-2.386c-.443.874-.812,1.674-1.093,2.386.431-.012.781,0,1.105,0Z" transform="translate(-41.332 -83.148)"/><path class="k" d="M134.29,226a2.754,2.754,0,0,0-2.979,2.992c0,2.223,1.068,3.4,3.073,3.4a3.285,3.285,0,0,0,2.561-.918l.2.081a10.567,10.567,0,0,0-.312,1.149,7.057,7.057,0,0,1-2.873.493c-3.21,0-5.059-1.493-5.059-4.022s2-3.966,5.221-3.966a8.355,8.355,0,0,1,3.173.625,9.028,9.028,0,0,0-.443,1.374h-.2A2.37,2.37,0,0,0,134.29,226Z" transform="translate(-48.267 -83.129)"/><path class="k" d="M151.056,225.26c.244,0,.475.044.687.044a3.935,3.935,0,0,0,.687-.044c1.037,2.5,2.2,5.127,3.547,7.825-.581,0-1.012-.031-1.312-.031-.393,0-.837,0-1.349.031-.281-.743-.537-1.461-.812-2.148-.487,0-.974-.031-1.455-.031-.231,0-.718,0-1.455.031-.269.7-.568,1.405-.874,2.148l-.662-.031q-.325,0-.768.031C148.683,230.5,149.938,227.9,151.056,225.26Zm0,4.778h1.093a19.132,19.132,0,0,0-1.08-2.386c-.443.874-.812,1.674-1.093,2.386.431-.012.787,0,1.105,0Z" transform="translate(-55.056 -83.148)"/><path class="k" d="M169.12,226.433c-.056.625-.056,1.168-.056,1.586v.462a43.946,43.946,0,0,0,.162,4.69c-.625-.031-1.024-.056-1.28-.056a12.035,12.035,0,0,0-1.28.056,35.717,35.717,0,0,0,.187-3.835c0-.625-.037-1.6-.081-2.9a22.068,22.068,0,0,0-2.442.131,5,5,0,0,0,.056-.587,1.953,1.953,0,0,0-.056-.493c1.468.044,2.686.081,3.616.081s2.092-.031,3.6-.075a4.882,4.882,0,0,0-.037.493,4.761,4.761,0,0,0,.038.587,21.828,21.828,0,0,0-2.429-.144Z" transform="translate(-61.355 -83.234)"/><path class="k" d="M182.212,229.337a33.322,33.322,0,0,0-.162-3.847c.525.044.956.081,1.324.081.256,0,.675-.031,1.212-.075-.137,1.449-.15,2.729-.15,3.847v.437a33.123,33.123,0,0,0,.15,3.4c-.556-.031-1.012-.056-1.361-.056a11.1,11.1,0,0,0-1.174.056,36.685,36.685,0,0,0,.162-3.841Z" transform="translate(-67.921 -83.234)"/><path class="k" d="M198.092,225.26c3.185,0,5.046,1.374,5.046,3.81,0,2.629-1.93,4.147-5.29,4.147-3.254,0-5.059-1.374-5.059-3.866C192.79,226.74,194.795,225.26,198.092,225.26Zm-.119,7.226c1.618,0,2.723-1.155,2.723-3.235s-1.08-3.26-2.723-3.26-2.735,1.18-2.735,3.26,1.074,3.235,2.729,3.235Z" transform="translate(-71.848 -83.148)"/><path class="k" d="M216.046,229.33c0-1.012-.037-2.3-.119-3.847.375.031.675.056.893.056a5.381,5.381,0,0,0,.874-.056,66.47,66.47,0,0,0,5.165,5v-2.117c0-.625,0-1.574-.094-2.879a6.723,6.723,0,0,0,.7.056,7.562,7.562,0,0,0,.756-.069,35.345,35.345,0,0,0-.187,4.778v.55a19.365,19.365,0,0,0,.106,2.373c-.337-.031-.625-.056-.812-.056a4.742,4.742,0,0,0-.812.056c-1.73-1.824-3.479-3.5-5.29-5.09V231.2c0,.362,0,1.024.056,1.992a6.69,6.69,0,0,0-.718-.056,3.544,3.544,0,0,0-.674.056C216.034,231.69,216.046,230.423,216.046,229.33Z" transform="translate(-80.388 -83.227)"/><path class="k" d="M247.686,226.12v-.568A48.455,48.455,0,0,0,247.43,220c.543.031,1.03.062,1.48.062,1.205,0,2.5-.112,3.935-.112,2.942,0,4.372.843,4.372,2.873,0,1.561-1.168,2.6-3.041,2.729a67.21,67.21,0,0,0,4.309,5.54c-.937-.05-1.655-.081-2.124-.081s-1.187.031-1.93.081a36.42,36.42,0,0,0-3.666-5.215v2.13a27.149,27.149,0,0,0,.156,3.085c-.718-.05-1.305-.081-1.736-.081s-1.03.031-1.755.081A40.1,40.1,0,0,0,247.686,226.12Zm3.154-1.074c2.123,0,3.079-.625,3.079-2.142,0-1.362-.818-1.917-2.611-1.917h-.487c-.056.762-.056,1.38-.056,1.836v2.242Z" transform="translate(-92.015 -81.154)"/><path class="k" d="M272.645,230.112v-1.249a23.653,23.653,0,0,0-.175-3.373c1.28.031,2.161.056,2.629.056.731,0,1.686,0,2.848-.056a4.964,4.964,0,0,0-.056.506,4.79,4.79,0,0,0,.056.493c-.743-.056-1.443-.081-2.13-.081h-.874q-.044.843-.044,1.649v.624l2.954-.1a3.3,3.3,0,0,0-.056.531,2.176,2.176,0,0,0,.056.518q-1.518-.081-2.954-.1v1.249a12.447,12.447,0,0,0,.069,1.493c.931,0,1.874-.031,2.929-.125a4.3,4.3,0,0,0-.038.531,2.26,2.26,0,0,0,.056.531c-1.549-.031-2.686-.056-3.385-.056-.525,0-1.212,0-2.048.056A20.03,20.03,0,0,0,272.645,230.112Z" transform="translate(-101.3 -83.234)"/><path class="k" d="M288.166,229.33c0-1.012-.044-2.3-.119-3.847.375.031.675.056.893.056a5.381,5.381,0,0,0,.874-.056,66.467,66.467,0,0,0,5.165,5v-2.117c0-.625,0-1.574-.094-2.879a6.722,6.722,0,0,0,.7.056,7.564,7.564,0,0,0,.756-.069,35.328,35.328,0,0,0-.187,4.778v.55a19.347,19.347,0,0,0,.106,2.373c-.337-.031-.625-.056-.812-.056a4.742,4.742,0,0,0-.812.056c-1.73-1.824-3.479-3.5-5.29-5.09V231.2c0,.362,0,1.024.056,1.992a6.691,6.691,0,0,0-.718-.056,3.545,3.545,0,0,0-.674.056C288.154,231.69,288.166,230.423,288.166,229.33Z" transform="translate(-107.017 -83.227)"/><path class="k" d="M312.03,226.433c-.056.625-.056,1.168-.056,1.586v.462a43.881,43.881,0,0,0,.162,4.69c-.625-.031-1.024-.056-1.28-.056a12.035,12.035,0,0,0-1.28.056,35.808,35.808,0,0,0,.187-3.835c0-.625-.044-1.6-.081-2.9a22.061,22.061,0,0,0-2.442.131,5.06,5.06,0,0,0,.056-.587,1.953,1.953,0,0,0-.056-.493c1.468.044,2.686.081,3.616.081s2.092-.031,3.6-.075a4.942,4.942,0,0,0-.038.493,4.8,4.8,0,0,0,.038.587,21.829,21.829,0,0,0-2.429-.144Z" transform="translate(-113.756 -83.234)"/><path class="k" d="M325.55,225.26c.244,0,.475.044.687.044a3.935,3.935,0,0,0,.687-.044c1.037,2.5,2.2,5.127,3.547,7.825-.581,0-1.012-.031-1.305-.031-.393,0-.837,0-1.349.031-.281-.743-.537-1.461-.812-2.148-.487,0-.968-.031-1.455-.031-.231,0-.712,0-1.455.031-.269.7-.568,1.405-.874,2.148l-.662-.031q-.325,0-.768.031C323.17,230.5,324.419,227.9,325.55,225.26Zm0,4.778h1.093a19.167,19.167,0,0,0-1.08-2.386c-.443.874-.812,1.674-1.093,2.386.437-.012.787,0,1.112,0Z" transform="translate(-119.219 -83.148)"/><path class="k" d="M341.515,230.112v-1.249a23.657,23.657,0,0,0-.175-3.372c.624,0,1.012.044,1.249.044.393,0,.824,0,1.336-.044a18.918,18.918,0,0,0-.137,2.317v2.935a12.085,12.085,0,0,0,.056,1.493c.931,0,1.874-.031,2.942-.125a4.29,4.29,0,0,0-.037.531,2.265,2.265,0,0,0,.056.531c-1.549-.031-2.685-.056-3.385-.056-.525,0-1.212,0-2.048.056A20.026,20.026,0,0,0,341.515,230.112Z" transform="translate(-126.559 -83.234)"/><path class="k" d="M355.983,231.007h.231a1.8,1.8,0,0,0,2.023,1.436c1.037,0,1.661-.425,1.661-1.112s-.625-.912-1.755-1.349c-1.63-.625-2.548-1.112-2.548-2.348,0-1.436,1.249-2.386,3.491-2.386a5.726,5.726,0,0,1,2.417.475,9.251,9.251,0,0,0-.537,1.474H360.8a1.874,1.874,0,0,0-1.874-1.205c-.956,0-1.511.437-1.511.987,0,.662.731.856,2.023,1.361,1.5.625,2.417,1.024,2.417,2.33,0,1.574-1.418,2.554-3.872,2.554a7.257,7.257,0,0,1-2.4-.368C355.727,232.194,355.846,231.576,355.983,231.007Z" transform="translate(-131.909 -83.143)"/><path class="j" d="M373.652,130.243a3.429,3.429,0,0,1,1,2.448,3.335,3.335,0,0,1-1,2.429,3.48,3.48,0,1,1-4.915-4.928,3.329,3.329,0,0,1,2.417-.993A3.4,3.4,0,0,1,373.652,130.243Zm-.262.275a3.079,3.079,0,0,0-2.2-.912,2.985,2.985,0,0,0-2.148.887,3.076,3.076,0,1,0,4.347,4.353,2.916,2.916,0,0,0,.881-2.148A3.054,3.054,0,0,0,373.389,130.518Zm-.456,1.249A1.018,1.018,0,0,1,372,132.81l.887,1.836H372.2l-.843-1.749h-.931v1.749H369.8v-3.985h1.461c1.13-.019,1.674.287,1.674,1.08Zm-2.5-.693v1.43h.743c.781,0,1.143-.156,1.143-.7s-.356-.737-1.143-.737Z" transform="translate(-136.456 -47.696)"/><path class="k" d="M370.245,217.81a2.7,2.7,0,1,1-1.932.777A2.71,2.71,0,0,1,370.245,217.81Zm0,5.028a2.317,2.317,0,1,0-2.242-2.33,2.242,2.242,0,0,0,2.242,2.33Zm-1.062-3.9h1.249c.756,0,1.112.3,1.112.906a.818.818,0,0,1-.837.862l.906,1.4h-.531l-.862-1.362h-.531V222.1H369.2Zm.493,1.405h.512c.437,0,.837,0,.837-.525s-.362-.487-.7-.487H369.7Z" transform="translate(-136.385 -80.351)"/></g></svg>