<svg xmlns="http://www.w3.org/2000/svg" viewBox="0 0 440 272"><filter id="b"><feGaussianBlur stdDeviation="10" /></filter><path fill="#8b959c" d="M0 0h440v271H0z"/><g filter="url(#b)" transform="translate(.9 .9) scale(1.71875)" fill-opacity=".5"><ellipse fill="#deffff" rx="1" ry="1" transform="rotate(91 48 66.8) scale(47.57285 160.07136)"/><ellipse fill="#33200c" cx="215" cy="145" rx="72" ry="72"/><ellipse fill="#484342" rx="1" ry="1" transform="matrix(225.03595 119.93258 -19.64257 36.8564 24.5 125.8)"/><ellipse fill="#301500" rx="1" ry="1" transform="matrix(8.01309 -8.0411 17.30017 17.23989 147.8 89.4)"/><path fill="#fffdc6" d="M184 131l-31-69 31 21z"/><ellipse fill="#89caff" rx="1" ry="1" transform="rotate(13.1 90.5 881.9) scale(206.91005 45.02239)"/><ellipse fill="#f2f3f5" cx="47" cy="24" rx="107" ry="22"/><path fill="#260000" d="M184 79h62v24h-62z"/><ellipse fill="#644d31" cx="8" cy="132" rx="27" ry="77"/><path fill="#5b402d" d="M147.4 81.2l37.9-.5 9.2-25.3-2.9-5z"/><path fill="#4c0300" d="M161.1 37.4l-14.3 30.7 20.9-21.6-3.4-5z"/><ellipse fill="#939da5" cx="72" cy="105" rx="50" ry="32"/><ellipse fill="#9ba599" cx="164" cy="119" rx="17" ry="17"/><path fill="#84b0d5" d="M217 94l21 12-9 35z"/><ellipse fill="#45688b" rx="1" ry="1" transform="matrix(-34.09437 8.88092 -6.75524 -25.93376 112.3 142.6)"/><path fill="#70a5d3" d="M247 0h9v132h-9z"/><path fill="#744011" d="M215 48h6v71h-6z"/><path fill="#fffff3" d="M190.2 79.3l-1.7-18.6 8-4.7 8 10.8z"/><path fill="#fff" d="M182 117l-9-42 13 14z"/><path fill="#422614" d="M199 70h17v88h-17z"/><path fill="#a25105" d="M181.7 46l4.3 17 9-7.2-3-8z"/><path fill="#a5b2bd" d="M49 60h79v30H49z"/><path fill="#040000" d="M180 70l6 17-21-27z"/><path fill="#fff" d="M166 47l-1 24-13 1z"/><ellipse fill="#210f00" cx="240" cy="129" rx="3" ry="55"/><path fill="#84b2d0" d="M198.4 125.3l-1.5-11.5-6-10-2.7 32.3z"/><ellipse fill="#8f6c3f" rx="1" ry="1" transform="rotate(-7.6 908 -1260.6) scale(5.49736 23.36017)"/><path fill="#27170b" d="M143 77h14v28h-14z"/><path fill="#9f8458" d="M-16 60l72-1-21 24z"/><ellipse fill="#37270c" cx="209" cy="157" rx="38" ry="8"/></g></svg>