<svg xmlns="http://www.w3.org/2000/svg" viewBox="0 0 440 272"><filter id="b"><feGaussianBlur stdDeviation="10" /></filter><path fill="#90afc3" d="M0 0h440v271H0z"/><g filter="url(#b)" transform="translate(.9 .9) scale(1.71875)" fill-opacity=".5"><ellipse rx="1" ry="1" transform="matrix(-34.95093 20.42368 -12.01798 -20.5663 136.7 83.8)"/><ellipse fill="#ecffff" rx="1" ry="1" transform="matrix(-3.5415 26.90036 -109.26071 -14.38445 207.5 .4)"/><ellipse fill="#c5e4f5" rx="1" ry="1" transform="matrix(2.34667 -35.37057 206.26222 13.68455 98.1 146)"/><ellipse fill="#517a96" rx="1" ry="1" transform="matrix(3.23638 -29.7975 141.38999 15.3567 74.2 35.9)"/><ellipse fill="#c0dff0" rx="1" ry="1" transform="rotate(-81.2 170.2 -82.4) scale(30.56241 63.64566)"/><path fill="#161818" d="M135 98l33 10-13-46z"/><ellipse fill="#c3e1ed" rx="1" ry="1" transform="matrix(43.90604 -10.5409 4.4985 18.7376 53.9 94.2)"/><path d="M147 82l41-31-17 24z"/><path fill="#747b72" d="M134 112l-31-29-26 28z"/><ellipse fill="#c4f4ff" rx="1" ry="1" transform="matrix(-.59147 25.46787 -90.24067 -2.09577 209.7 0)"/><path fill="#1a1e22" d="M143.8 65l-40.6 27.4-5-7.4 40.6-27.4z"/><ellipse fill="#7397b6" rx="1" ry="1" transform="matrix(-39.55962 12.7012 -5.36101 -16.6976 224.2 52.5)"/><path fill="#a9b6ad" d="M106 113l-4-10 29-18z"/><ellipse fill="#d6edf0" rx="1" ry="1" transform="rotate(44.2 -79.4 148.8) scale(6.68258 28.51991)"/><path fill="#485458" d="M127 61.5l54.6-17 12.7 5.9-72.5 60z"/><ellipse fill="#5c869d" rx="1" ry="1" transform="matrix(7.4171 -11.44059 35.49584 23.01246 24 46)"/><path fill="#fff" d="M121.6-4.1l54-3.8.8 12-54 3.8z"/><ellipse fill="#9fbece" rx="1" ry="1" transform="matrix(-6.35163 46.71104 -30.41891 -4.13628 7.6 123.6)"/><ellipse fill="#719bbc" rx="1" ry="1" transform="matrix(9.84445 -17.97493 75.088 41.12393 76.7 1)"/><path fill="#283236" d="M139 65l5 41-14 7z"/><path fill="#31302a" d="M157 111l2-17 11 10z"/><path fill="#5f7c8e" d="M222 145h34v4h-34z"/><path fill="#c0dff4" d="M142.2 172L83 186.6 71.8 142l59.2-14.8z"/><ellipse fill="#a9daff" cx="245" cy="18" rx="44" ry="14"/><path fill="#b3d0de" d="M153.8 100.9l-26 18.9 76.2-24-32.4 43.3z"/><path fill="#86abc5" d="M112.8 46.4l31.5-5.5 3 16.7-31.6 5.5z"/><path fill="#779db9" d="M162 17.2l109 23-71.4 14.9L212 80.3z"/><path fill="#51636b" d="M103.5 80.7l-3.1 30-8.7-14.3-3.4 1.2z"/><path fill="#b3ccd8" d="M159.8 91.5l30.8 43.3-15.4-62 10.9-15z"/><path fill="#151b1e" d="M124.2 113.6l21.1-7.5L183.7 60l-49.4 44z"/></g></svg>