<svg xmlns="http://www.w3.org/2000/svg" viewBox="0 0 440 272"><path fill="#90afc3" d="M0 0h440v271H0z"/><g transform="translate(.9 .9) scale(1.71875)" fill-opacity=".5"><ellipse fill="#040300" rx="1" ry="1" transform="matrix(-37.46386 22.42166 -12.48309 -20.85772 137.7 82.7)"/><path fill="#c6e5f6" d="M265 69l2 97L4 152z"/><ellipse fill="#ebffff" rx="1" ry="1" transform="matrix(4.36496 -22.24839 86.52384 16.9753 182.5 1.4)"/><ellipse fill="#527b98" rx="1" ry="1" transform="rotate(6 -292.1 589.3) scale(146.34979 30.45929)"/><ellipse fill="#bedae5" cx="47" cy="106" rx="66" ry="30"/><path fill="#070503" d="M168 106l-6 4.4-30.5-20.1 26.4-6.6z"/><path fill="#272e2e" d="M92.2 92.5l2.7 20.9 44.7-50.2-6-3.8z"/><ellipse fill="#bddcee" cx="190" cy="90" rx="28" ry="21"/><path fill="#121b21" d="M178.8 67.3l12.8-19.7L150 77l-10 34z"/><ellipse fill="#c3f5ff" rx="1" ry="1" transform="matrix(-1.58066 14.5502 -91.4043 -9.92969 212.3 12)"/><path fill="#cde9f4" d="M71 72l-21 66 54-61z"/><path fill="#6a92b1" d="M267.8 37.8l-3.3 18.8-104.3-18.4 3.3-18.8z"/><path fill="#1a1d1d" d="M161 86l-44 25h23z"/><ellipse fill="#7e8a86" cx="104" cy="102" rx="15" ry="15"/><path fill="#77a0c1" d="M161.6 43L97.8-16l18.1 82.4 37.7-12.7z"/><ellipse fill="#abcbde" cx="235" cy="85" rx="72" ry="16"/><ellipse fill="#5d879d" rx="1" ry="1" transform="matrix(36.55027 22.13563 -7.73119 12.7657 25.8 45.9)"/><ellipse fill="#fff" cx="156" cy="1" rx="40" ry="4"/><ellipse fill="#b0cfe3" cx="78" cy="140" rx="110" ry="29"/><ellipse fill="#b4e2ff" cx="254" rx="77" ry="32"/><ellipse fill="#323f46" rx="1" ry="1" transform="rotate(-75.6 121.1 -54.9) scale(12.95061 22.62193)"/><path fill="#5b7787" d="M229 145h27v4h-27z"/><path fill="#424646" d="M167.6 108l2.9-7-9.7 4.8-10.6-35.3z"/><path fill="#677071" d="M189 47l-24 24-5-25z"/><path fill="#7599b7" d="M190 33h63v36h-63z"/><ellipse fill="#779db9" cx="77" cy="7" rx="45" ry="13"/><path fill="#a1c0d3" d="M158.4 95.7L231 94l-52.5-27.4-21.2 27.6z"/><path fill="#111619" d="M114.4 72.4l-16.9 19 15-13.7 35.4-19.6z"/><ellipse fill="#0f1b26" rx="1" ry="1" transform="matrix(14.54939 -14.40328 1.98282 2.00293 173.9 66.5)"/><path fill="#727e7c" d="M71 114l24.8-1.7 51-35.4-76.4 39z"/></g></svg>