<svg xmlns="http://www.w3.org/2000/svg" viewBox="0 0 440 272"><filter id="b"><feGaussianBlur stdDeviation="10" /></filter><path fill="#a7a8ad" d="M0 0h440v271H0z"/><g filter="url(#b)" transform="translate(.9 .9) scale(1.71875)" fill-opacity=".5"><ellipse fill="#560d00" rx="1" ry="1" transform="matrix(-16.93062 -48.98554 83.01182 -28.69094 43.5 113.2)"/><ellipse fill="#dbffff" rx="1" ry="1" transform="matrix(3.75899 -59.86146 254.49873 15.98119 129 0)"/><ellipse fill="#ffffea" rx="1" ry="1" transform="rotate(91.8 16.7 168.4) scale(26.08526 92.4564)"/><path fill="#fffbcd" d="M3 155.4l-3.6-25.8 35.6-5 3.6 25.8z"/><ellipse fill="#feffff" rx="1" ry="1" transform="matrix(2.51828 22.10268 -142.92851 16.28465 254.9 33.6)"/><path fill="#500000" d="M48 43l38 56-59 27z"/><ellipse fill="#64abf3" rx="1" ry="1" transform="rotate(2 -141 1271.4) scale(121.55305 15.65811)"/><ellipse fill="#110612" rx="1" ry="1" transform="matrix(-12.61025 -1.37887 2.25913 -20.66053 116.8 82.2)"/><ellipse fill="#141300" rx="1" ry="1" transform="rotate(-12.1 730.4 -206) scale(74.35706 3.89257)"/><path fill="#8bc3e3" d="M158 54l-59 73 172-38z"/><path fill="#ffb134" d="M0 103h35v17H0z"/><path fill="#ac2800" d="M70 58l-2-32 12-16z"/><ellipse fill="#697385" rx="1" ry="1" transform="matrix(.8541 -12.9044 61.99514 4.10325 149.2 114)"/><path fill="#ffed92" d="M53.2 120.3L70 123l-3.2 20.7L50 141z"/><path fill="#857c8b" d="M-11 84l-5-35 118 11z"/><path fill="#cff6ff" d="M31 101L0 92l32-6z"/><path fill="#98350d" d="M32 5h4v66h-4z"/><path d="M58.7 121.8l-25 .4-.4-22 25-.4z"/><path fill="#ea0000" d="M-16 107.2l1 6.9 25 11.7 26.5-4.9z"/><path fill="#2e2a2a" d="M103.3 116.6L93.7 150 82.6 85.9l7.5-23.6z"/><path fill="#ff072e" d="M33 92h48v8H33z"/><ellipse fill="#b9dbff" rx="1" ry="1" transform="matrix(-8.47636 -28.9869 88.7717 -25.95866 202.2 3)"/><ellipse fill="#d17400" rx="1" ry="1" transform="rotate(-173.4 56 16.2) scale(3.96876 10.36013)"/><ellipse fill="#df5e00" cx="63" cy="157" rx="6" ry="33"/><path fill="#daebf2" d="M49.7 71l18.1-31 38.4 35-1.2-43z"/><ellipse fill="#b2d8ea" rx="1" ry="1" transform="matrix(7.6942 -15.23192 33.06043 16.70003 222 87)"/><path fill="#ffedd9" d="M127.7 169.2l7.7-43.3 72.9 12.9-7.7 43.3z"/><path fill="#153049" d="M240 64l-17 7 43 2z"/><path fill="#9d8071" d="M111 137l22 6V58z"/><path fill="#5e4327" d="M130 32h3v91h-3z"/></g></svg>