<svg xmlns="http://www.w3.org/2000/svg" viewBox="0 0 440 272"><path fill="#a7a8ad" d="M0 0h440v271H0z"/><g transform="translate(.9 .9) scale(1.71875)" fill-opacity=".5"><ellipse fill="#570e00" rx="1" ry="1" transform="matrix(14.3892 50.41542 -79.8679 22.7953 46.2 110.6)"/><ellipse fill="#e1ffff" cx="191" cy="29" rx="214" ry="32"/><ellipse fill="#fffff2" cx="185" cy="157" rx="83" ry="27"/><path fill="#ffd9a8" d="M82 119l-91 48-7-37z"/><path fill="#3d0706" d="M39 133l106-61-112 4z"/><path fill="#f8ffff" d="M263.2 15.7l1.5 42-132 4.6-1.4-42z"/><ellipse fill="#76b9fa" rx="1" ry="1" transform="matrix(127.91176 10.9659 -1.608 18.75654 71.4 5.7)"/><ellipse fill="#92d2f2" rx="1" ry="1" transform="matrix(65.85416 10.29244 -3.51122 22.46585 197.6 88.2)"/><ellipse fill="#c82f00" cx="72" cy="32" rx="5" ry="16"/><path fill="#ffa62b" d="M0 103h33v18H0z"/><path fill="#311400" d="M35.1 73.6l2.7 76.3-36.3 5.4L60.4 173z"/><ellipse fill="#6d7d91" rx="1" ry="1" transform="matrix(-.00367 13.3985 -82.69644 -.02265 139.8 113.3)"/><path fill="#461717" d="M42.5 49.3l-10 64.5 15.8 5.5 8.4-72z"/><path fill="#ff3961" d="M21 92h63v7H21z"/><path fill="#091710" d="M122 134l-53-3 2 19z"/><ellipse fill="#859ca9" rx="1" ry="1" transform="rotate(-135.9 18.2 35.7) scale(35.91871 16.5783)"/><path d="M103 103l11-40 12 30z"/><path fill="#ffe2c9" d="M271 148.2l-164.8-30.5-2.3 15.8L218.3 173z"/><path fill="#951006" d="M33 7h3v98h-3z"/><path fill="#b30000" d="M0 116h34v10H0z"/><path fill="#fff" d="M55.4 144.6l-6.6-2.2 5.8-17 6.6 2.2z"/><path fill="#f9ffff" d="M57 39h12v25H57z"/><path fill="#d15800" d="M107 28h5v24h-5z"/><path fill="#a45110" d="M124 118h10v20h-10z"/><path fill="#203c57" d="M265.5 75l-9.9-3.5-16.7-8.6-11.2 9.2z"/><path fill="#c4daf0" d="M96 57.6L271-2.2 114.1 19.2l-14.6 84.9z"/><ellipse fill="#e67717" cx="63" cy="145" rx="5" ry="49"/><path fill="#c9dfed" d="M85.2 96.5L73.7 71l43-19.2-38-23.6z"/><path fill="#fffff4" d="M6 127h27v9H6z"/><path fill="#fae5d4" d="M92 142h164v16H92z"/></g></svg>