<svg xmlns="http://www.w3.org/2000/svg" viewBox="0 0 440 272"><filter id="b"><feGaussianBlur stdDeviation="10" /></filter><path fill="#64659d" d="M0 0h440v271H0z"/><g filter="url(#b)" transform="translate(.9 .9) scale(1.71875)" fill-opacity=".5"><ellipse fill="#070f00" rx="1" ry="1" transform="rotate(-112.5 135.6 8.4) scale(60.00672 97.66233)"/><ellipse fill="#cdb3ff" rx="1" ry="1" transform="matrix(249.95322 -4.36695 .68065 38.95883 75.1 32.1)"/><path fill="#000006" d="M170 21l-50 131 69-41z"/><path fill="#ffccd4" d="M-.8 67.2l.6-35 147 2.6-.6 35z"/><ellipse fill="#5473ff" cx="223" rx="224" ry="38"/><ellipse fill="#1f2800" cx="63" cy="150" rx="69" ry="14"/><ellipse fill="#04137e" rx="1" ry="1" transform="matrix(75.12168 -20.4104 4.37305 16.09527 48.7 107)"/><ellipse fill="#a09d34" rx="1" ry="1" transform="matrix(79.40115 -42.94675 8.3655 15.46636 176.6 156.4)"/><path fill="#3598ff" d="M1 66l130 4-147 35z"/><ellipse fill="#000026" rx="1" ry="1" transform="matrix(11.55857 -8.83965 21.52524 28.146 221 84.1)"/><path fill="#8894ff" d="M189.8 4.7L215 64.2l27.4 21L271 70.4z"/><ellipse fill="#255def" rx="1" ry="1" transform="matrix(12.36678 10.01346 -14.5672 17.99072 129 86.8)"/><path fill="#b4d7ff" d="M102.3 127.8V117L-5.6 138.2l88.4-4.9z"/><path fill="#ffd8be" d="M0 54h163v13H0z"/><ellipse fill="#b289ef" rx="1" ry="1" transform="rotate(11.4 -126.5 584.5) scale(52.02167 21.17359)"/><path fill="#b19bf9" d="M186.4 84.8l-20.5-66.3 11.4 10.2L211 41.4z"/><path fill="#070c2d" d="M169.2 31.8l-28 95.4L271 99.7 179.9 78z"/><path fill="#f4b4c8" d="M213 69l4-17 54 2z"/><ellipse fill="#100100" rx="1" ry="1" transform="matrix(63.65086 -41.3105 3.5772 5.5117 255 132.3)"/><path fill="#2f8eff" d="M192.1 67.2l.8 15-13 .6-.8-15z"/><path fill="#09081b" d="M143 98l19-10-9-33z"/><ellipse fill="#81acff" rx="1" ry="1" transform="matrix(40.2402 -14.9568 2.22844 5.99545 9.5 97)"/><ellipse fill="#3172ff" cx="51" cy="76" rx="94" ry="7"/><path fill="#006dff" d="M234 65h22v16h-22z"/><path fill="#3e75fb" d="M176.3-42.2L294.7.8l-15 41.4-118.4-43z"/><ellipse fill="#bc7fed" rx="1" ry="1" transform="matrix(1.62353 -13.03446 92.9166 11.57337 30.2 24.6)"/><path fill="#000007" d="M220 64l4.4-2.5L234 78l-4.3 2.5z"/><ellipse fill="#2a311c" rx="1" ry="1" transform="matrix(41.1766 -28.0662 8.17963 12.00053 102.6 141.5)"/><ellipse fill="#9bb3ff" cx="160" cy="66" rx="2" ry="18"/><path fill="#1d2f99" d="M142.1 80l-128 25 73.3-27 26.6 37.3z"/></g></svg>