<svg xmlns="http://www.w3.org/2000/svg" viewBox="0 0 440 272"><path fill="#64659d" d="M0 0h440v271H0z"/><g transform="translate(.9 .9) scale(1.71875)" fill-opacity=".5"><ellipse fill="#080f00" cx="189" cy="157" rx="94" ry="94"/><ellipse fill="#ceb3ff" rx="1" ry="1" transform="matrix(1.45485 43.85582 -254.85982 8.45457 125.1 26.2)"/><path fill="#000007" d="M168 28l-49 131 73-56z"/><ellipse fill="#ffc6d3" rx="1" ry="1" transform="rotate(93.7 2.2 47.9) scale(19.69587 111.94954)"/><ellipse fill="#4f72ff" cx="212" cy="5" rx="215" ry="28"/><ellipse fill="#1d2700" rx="1" ry="1" transform="matrix(-83.77058 5.11406 -.79502 -13.02272 61.7 149)"/><ellipse fill="#a09e35" rx="1" ry="1" transform="matrix(-7.68596 -14.27599 82.93993 -44.65348 178.2 154.7)"/><path fill="#1a60f5" d="M0 69h147v35H0z"/><ellipse fill="#1e1c74" rx="1" ry="1" transform="matrix(-3.81936 -17.96867 73.04614 -15.52644 62.6 105.7)"/><path fill="#c1bfff" d="M181.2 81.5l.6-40.9 17 20.7-8.5 20.5z"/><path fill="#b8e0ff" d="M88 135l-56-5 70-13z"/><path fill="#000024" d="M183 112l20-63 53 55z"/><ellipse fill="#5ea4ff" rx="1" ry="1" transform="matrix(-52.15126 17.75374 -3.32716 -9.77347 28.1 85.3)"/><path fill="#2e91ff" d="M226 62l45 1-28 22z"/><ellipse fill="#fdc3c7" cx="19" cy="54" rx="82" ry="15"/><ellipse fill="#b683ef" rx="1" ry="1" transform="matrix(87.37022 10.41827 -2.27366 19.06745 77 33)"/><path fill="#000023" d="M168 31l-6 44 19-13z"/><ellipse fill="#577aff" rx="1" ry="1" transform="matrix(51.18083 6.01237 -4.16263 35.43482 231.8 10.2)"/><path fill="#040511" d="M128 149l26-95 10 60z"/><path fill="#d0a3d5" d="M211.1 72L271 57.3l-96-4.7 41.4-7.1z"/><path fill="#b7d4ff" d="M22.8 137.4l41.3-7.8-80.1 6.8v12.8z"/><path fill="#0c0000" d="M218.7 161l-5.4-8.3 52-33.8 5.4 8.4z"/><path fill="#4861ca" d="M126.6 71.1l-27.4 47.7 14.7-4.5 55.7-43.8z"/><path fill="#3c4128" d="M-6.9 166l77-24 41.2-20.6 66.5 51.6z"/><path fill="#fde2c3" d="M105.3 71L-16 60.7l141.5-4.9 22 9z"/><path fill="#ab9efa" d="M142 21l20 55-1-58z"/><path fill="#0e1925" d="M201 124l70-59-11 38z"/><path fill="#b9d3ff" d="M56 121h45v4H56z"/><ellipse fill="#397efe" cx="40" cy="76" rx="106" ry="7"/><ellipse fill="#9d8cf9" rx="1" ry="1" transform="matrix(-51.5479 -20.93188 4.81622 -11.86067 209.7 40.1)"/></g></svg>