<svg xmlns="http://www.w3.org/2000/svg" viewBox="0 0 440 272"><path fill="#818478" d="M0 0h440v271H0z"/><g transform="translate(.9 .9) scale(1.71875)" fill-opacity=".5"><ellipse fill="#1a1300" rx="1" ry="1" transform="matrix(-7.31628 -56.49566 186.6765 -24.1749 102.4 155)"/><ellipse fill="#e9fcff" rx="1" ry="1" transform="rotate(-92.5 70.1 -54.2) scale(52.30187 255)"/><ellipse fill="#6d4d30" cx="20" cy="102" rx="150" ry="27"/><ellipse fill="#2f3d00" cx="210" cy="156" rx="217" ry="35"/><path fill="#ffffd5" d="M27.8 137.8l-3-8.8 20.1-26.2-19.8-6.6z"/><path d="M82 80h19v20H82z"/><ellipse fill="#848fa3" rx="1" ry="1" transform="rotate(-176 97 34.3) scale(87.29111 24.52299)"/><ellipse fill="#a7cae9" rx="1" ry="1" transform="matrix(2.47818 23.98082 -211.49824 21.85622 142.2 3.8)"/><path fill="#ffe7a6" d="M79 90l-8 30-2-29z"/><path fill="#090f14" d="M65 94l-17-8-6 42z"/><ellipse fill="#be9350" rx="1" ry="1" transform="matrix(12.85152 14.07421 -5.29127 4.8316 70.2 119.6)"/><ellipse fill="#b6a7a4" rx="1" ry="1" transform="matrix(106.37273 -1.65005 .16385 10.56303 55 61.3)"/><ellipse fill="#cbc0b0" cx="164" cy="48" rx="255" ry="12"/><ellipse fill="#4c4c1c" rx="1" ry="1" transform="matrix(-1.54233 -16.58735 105.78958 -9.83654 203 117)"/><path fill="#ffffd2" d="M26 94l2 20 16-7z"/><path fill="#65533e" d="M131 80.1l-7.6 1.4-47.2 31.8 113.8-7z"/><path fill="#524b20" d="M0 99h24v55H0z"/><path fill="#9d7238" d="M26.7 141L41 100.3l-26 47.3 6.9-40.8z"/><ellipse fill="#c5cecd" rx="1" ry="1" transform="matrix(-.5362 -13.95745 193.27194 -7.42476 35.3 34)"/><ellipse fill="#8392a0" cx="142" cy="68" rx="127" ry="7"/><path fill="#2a130a" d="M85 92l4 41-14-29z"/><path fill="#252531" d="M30.3 95.1l5-6.1-4.7-18.2-4 24.8z"/><path fill="#372e26" d="M99.5 124l9.2-9.6-11-16 27.4-17.2z"/><ellipse fill="#6b7d8c" rx="1" ry="1" transform="matrix(-52.19767 8.11171 -2.34692 -15.1021 224 84.6)"/><ellipse fill="#313918" rx="1" ry="1" transform="rotate(140.9 83.2 112.1) scale(71.13127 24.75641)"/><path fill="#271e1d" d="M85 70.2l-16 78 15-53.3 18.3-1.6z"/><ellipse fill="#fdb969" cx="63" cy="107" rx="2" ry="12"/><path fill="#e19b77" d="M88.3 95.6l-20.7 4-8-15.4 12.4 8z"/><ellipse fill="#fffce0" rx="1" ry="1" transform="matrix(5.23053 1.6017 -1.8701 6.10703 31.6 103.4)"/><ellipse fill="#7f663f" rx="1" ry="1" transform="rotate(-56.2 160.6 -45.4) scale(30.95357 7.34209)"/></g></svg>