<svg xmlns="http://www.w3.org/2000/svg" viewBox="0 0 440 272"><filter id="b"><feGaussianBlur stdDeviation="10" /></filter><path fill="#818478" d="M0 0h440v271H0z"/><g filter="url(#b)" transform="translate(.9 .9) scale(1.71875)" fill-opacity=".5"><ellipse fill="#e8fbff" cx="96" cy="18" rx="243" ry="49"/><ellipse fill="#261a00" rx="1" ry="1" transform="rotate(-85.9 127.5 4.7) scale(46.61354 212.01042)"/><path fill="#ffffe1" d="M26.6 126.8l18.1-25.3L26 96l-1.4 5.5z"/><ellipse fill="#313c03" rx="1" ry="1" transform="matrix(-5.11443 -30.22303 227.0863 -38.42822 179 139.2)"/><path fill="#828ca1" d="M25 64l246-12-63 52z"/><path fill="#f5ba7a" d="M57 109l14 17 8-43z"/><ellipse fill="#a7cae9" rx="1" ry="1" transform="rotate(87 53.6 56.5) scale(32.20842 186.28548)"/><path fill="#030001" d="M82 77h16v24H82z"/><path fill="#756263" d="M98 76L4 103l-20-33z"/><path fill="#fffccd" d="M44 107.2l-5.9 8.3-13.7-9 4.7-12z"/><ellipse fill="#745638" rx="1" ry="1" transform="matrix(-9.59146 -18.32116 39.00646 -20.42059 113.1 107.1)"/><ellipse fill="#c6b4a6" rx="1" ry="1" transform="rotate(-3.2 1035.8 -729) scale(214.08819 11.27019)"/><path fill="#f1ab86" d="M55.2 88.5l8.7-3.3 21.5 11.4-10.7 4.5z"/><ellipse fill="#c8cdc9" cx="68" cy="34" rx="141" ry="17"/><ellipse fill="#ffc895" rx="1" ry="1" transform="rotate(103.3 -26 66.2) scale(29.36319 1.96381)"/><path fill="#929495" d="M82.3 61.5l171.5-4.4-134.7 20-10.3 19.4z"/><path fill="#1c1716" d="M52.7 113.4l5.2-36-21 47.7 9.5 1.4z"/><path fill="#5e4f2a" d="M138.5 133L253 100l-190 2.5L91 127z"/><ellipse fill="#728799" cx="230" cy="80" rx="100" ry="17"/><path fill="#26120e" d="M74 104l10-11 5 39z"/><ellipse fill="#444513" cx="36" cy="142" rx="8" ry="33"/><ellipse fill="#ffe7a6" cx="72" cy="108" rx="2" ry="17"/><ellipse fill="#2b3516" rx="1" ry="1" transform="rotate(-171.7 124.4 66.1) scale(60.30185 27.3204)"/><ellipse fill="#da8542" rx="1" ry="1" transform="matrix(-1.37957 21.92766 -.99803 -.0628 20.5 118.7)"/><path fill="#ffbf68" d="M77 119h4v15h-4z"/><path fill="#cda381" d="M121 87h8v10h-8z"/><ellipse fill="#3d3212" cx="66" cy="113" rx="2" ry="19"/><path fill="#8f7d6d" d="M0 82h28v14H0z"/><path fill="#39420a" d="M-16.7 151.4l-1.6-31 35-1.8 1.6 31z"/><path fill="#a78570" d="M36.7 107.8l-3.5-43.4 17.1 38.3-14-5.5z"/></g></svg>