<svg xmlns="http://www.w3.org/2000/svg" viewBox="0 0 440 272"><filter id="b"><feGaussianBlur stdDeviation="10" /></filter><path fill="#afa395" d="M0 0h440v271H0z"/><g filter="url(#b)" transform="translate(.9 .9) scale(1.71875)" fill-opacity=".5"><ellipse fill="#190f19" cx="196" cy="157" rx="62" ry="62"/><path d="M27.8 105.3l17.6 51-47.2 16.4-17.6-51z"/><ellipse fill="#fffffb" rx="1" ry="1" transform="rotate(-176.4 72.9 -2.3) scale(170.48141 56.68464)"/><path d="M33 60h70v29H33zm128 68L58 173h72z"/><ellipse rx="1" ry="1" transform="matrix(-13.30025 14.1001 -38.3947 -36.21668 9.4 137.3)"/><path fill="#f6e4c7" d="M213 115.1l10.8-131 36.7 134.1-56.4-4z"/><path fill="#f3eee6" d="M62 125l-15 48 148-67z"/><path fill="#ffd" d="M205 79.1l-5.5-91.6L166.6 32l3.2 78.8z"/><path fill="#010009" d="M128.5 92.5l37.3 7.2-2.3 11.8-37.3-7.2z"/><ellipse fill="#fff7d0" cx="121" cy="13" rx="139" ry="27"/><path fill="#180d10" d="M32 56h12v51H32z"/><path fill="#f8eddb" d="M43 89h67v21H43z"/><ellipse fill="#6c5650" rx="1" ry="1" transform="matrix(-46.18323 10.49257 -1.25162 -5.50903 83.1 117)"/><path fill="#e4d5be" d="M7 52h26v63H7z"/><ellipse fill="#382d28" rx="1" ry="1" transform="matrix(-58.90746 -6.6163 1.13141 -10.07343 224.2 126)"/><path fill="#373340" d="M157 63h10v62h-10z"/><path fill="#474244" d="M213.7 54.3l2.6 51-8 .4-2.6-51z"/><path fill="#000001" d="M128 171l-32.4-3.3v-9.4l44.3-21.6z"/><path fill="#322221" d="M34 57h31v33H34z"/><path fill="#e9dfd0" d="M159.2 130l-29 7.3-5.4-21.3 29-7.3z"/><path fill="#0e080f" d="M7.3 107.4l-22.1 57 46.9-23-5-27.7z"/><path fill="#2e172d" d="M196.7 94.2l-10-.2-14 11.6 45.2 18.1z"/><path fill="#cab99e" d="M115.4 64l8-9.3-95.8-24.3 17.3 27z"/><path fill="#382119" d="M62 63h42v24H62z"/><path fill="#f2e1d0" d="M36 109.8L34.1 134l42-46.6-35.5 18.4z"/><path fill="#7c6255" d="M48.4 173l8.7-52.7 63.4-13.1-79.2 22z"/><path fill="#f1f6dd" d="M169 66h35v28h-35z"/><path fill="#c6c4b8" d="M178.7 107l12.1 4-10.8 5-37.5-.5z"/><path fill="#d0c0af" d="M244.5 122.7L260.7 9.1 216 99l-35-12.7z"/></g></svg>