<svg xmlns="http://www.w3.org/2000/svg" viewBox="0 0 440 272"><path fill="#afa395" d="M0 0h440v271H0z"/><g transform="translate(.9 .9) scale(1.71875)" fill-opacity=".5"><ellipse fill="#190f19" cx="196" cy="157" rx="62" ry="62"/><ellipse fill="#ffffe6" cx="166" rx="93" ry="93"/><ellipse rx="1" ry="1" transform="matrix(20.57418 35.56532 -22.37258 12.9423 15.5 144.1)"/><ellipse cx="68" cy="74" rx="40" ry="16"/><ellipse fill="#ffffe0" rx="1" ry="1" transform="matrix(-3.6209 33.76595 -156.66468 -16.79997 116.6 15)"/><path fill="#585259" d="M116 108l1-49 51 1-1 49z"/><path d="M153.4 159l1.3-28.2-29.1 13.5L55 173zm-157 0l-7.1-40.5 42.3-7.4 7.1 40.4z"/><path fill="#f9e7ce" d="M216 63h35v53h-35z"/><ellipse fill="#f7f1e7" rx="1" ry="1" transform="rotate(-12.6 651.3 -415.7) scale(58.89743 12.03796)"/><path d="M33 56h10v52H33z"/><path fill="#483f3f" d="M204 54h12v80h-12z"/><path fill="#fff8e6" d="M45 89h55v20H45z"/><path fill="#ede0c6" d="M4.5 108.7l-1-53 28-.4 1 53z"/><ellipse fill="#bab7a3" cx="130" cy="72" rx="28" ry="24"/><ellipse fill="#35271f" rx="1" ry="1" transform="matrix(68.44522 12.24544 -1.58077 8.8356 255 129)"/><path fill="#310c2e" d="M125.7 103l7.6-8.8 44 7.3-24.4 8.4z"/><path fill="#fffff9" d="M166 114l5-24 9 26z"/><ellipse fill="#ffebd0" cx="85" cy="11" rx="92" ry="28"/><path fill="#36221e" d="M109 63l-72-7-1 40z"/><path fill="#695048" d="M110 108.1L48 116l-8.8 18.8 87-25.3z"/><ellipse rx="1" ry="1" transform="matrix(-2.48158 -4.81396 43.2798 -22.31055 112.4 157)"/><path fill="#ffefde" d="M39 104l38 7-44 6z"/><ellipse fill="#d4c1ac" cx="104" cy="49" rx="60" ry="13"/><path fill="#3f2f2a" d="M33 62h70v26H33z"/><path fill="#ddd8bf" d="M184.5 38.6L173 84.9l93 35.8-54-5.6z"/><path fill="#150f18" d="M209 114.5l-33 16.8-5-9.8 33-16.8z"/><path fill="#454641" d="M157 62h11v29h-11z"/><path fill="#56413f" d="M47.1 173L.5 165.8l46.1-32.5 10-5.5z"/><ellipse fill="#ddd5ce" cx="71" cy="153" rx="20" ry="29"/></g></svg>