<svg xmlns="http://www.w3.org/2000/svg" viewBox="0 0 440 272"><path fill="#a09b96" d="M0 0h440v271H0z"/><g transform="translate(.9 .9) scale(1.71875)" fill-opacity=".5"><ellipse fill="#610c00" cx="102" cy="58" rx="49" ry="56"/><ellipse fill="#fffdce" rx="1" ry="1" transform="matrix(1.0958 31.0636 -204.46687 7.21273 135.4 144.3)"/><path fill="#27000d" d="M134 75l-30 63-46-60z"/><ellipse fill="#b9e1eb" rx="1" ry="1" transform="matrix(50.0944 33.15676 -19.06874 28.80972 23.7 96.8)"/><ellipse fill="#bde0ed" rx="1" ry="1" transform="matrix(-33.1781 17.70749 -17.13854 -32.11208 164 111.4)"/><ellipse fill="#54769a" rx="1" ry="1" transform="matrix(-.30424 -32.6407 78.68907 -.73345 242.6 67.1)"/><ellipse fill="#c35b21" rx="1" ry="1" transform="matrix(-12.12658 -21.24802 37.44651 -21.3713 114 63.9)"/><path fill="#df6701" d="M73.5 67h-25V35h25z"/><ellipse fill="#88b0d1" rx="1" ry="1" transform="matrix(-36.59964 64.54883 -27.89837 -15.81857 16.9 32.7)"/><path fill="#3c676f" d="M119-16l-16 77-50-38z"/><ellipse fill="#ffd890" rx="1" ry="1" transform="rotate(94.2 4 149.8) scale(20.45749 120.66655)"/><path fill="#432212" d="M96.8 150l.4-26h10l-.4 26z"/><path fill="#214f51" d="M148 54.4L123.6 18 136 9.6 160.5 46z"/><path fill="#0e1309" d="M104 132.4l-21.7-20.5 39.4-1-15 15.9z"/><path fill="#c39c37" d="M116.4 27L62.7 78.8 138 46.2l1-13.3z"/><path fill="#92aabf" d="M153 7h36v90h-36z"/><ellipse fill="#92adcd" cx="111" cy="4" rx="55" ry="5"/><path fill="#aa0b13" d="M151 61l-46-18 26 55z"/><ellipse fill="#e09552" rx="1" ry="1" transform="matrix(-.59786 9.01883 -41.1832 -2.73006 175.1 157)"/><ellipse fill="#ad2c2f" rx="1" ry="1" transform="rotate(-136.5 54.3 21.8) scale(40.77141 11.09534)"/><path fill="#133656" d="M106 79h21v26h-21z"/><ellipse fill="#eae2cb" cx="99" cy="137" rx="250" ry="4"/><ellipse fill="#707588" rx="1" ry="1" transform="matrix(-31.22649 -6.69438 14.57215 -67.97303 250.3 25.1)"/><path fill="#b4c9d3" d="M153 66l-46 65h164z"/><path fill="#e2dbc8" d="M40.1 113L67 92.2 88 119l-27 21z"/><path fill="#41403d" d="M146 14.8L43 39l21-22.3L74.2 10z"/><ellipse fill="#bcba41" rx="1" ry="1" transform="rotate(-95.2 50.5 -9.4) scale(11.50155 11.22717)"/><ellipse fill="#91a2ad" rx="1" ry="1" transform="rotate(-158.1 100 25) scale(39.72929 14.12427)"/><path fill="#0a2d39" d="M82 79L66 90l27 32z"/><path fill="#5b7b78" d="M75 41h33v16H75z"/></g></svg>