<svg xmlns="http://www.w3.org/2000/svg" viewBox="0 0 440 272"><filter id="b"><feGaussianBlur stdDeviation="10" /></filter><path fill="#a09b96" d="M0 0h440v271H0z"/><g filter="url(#b)" transform="translate(.9 .9) scale(1.71875)" fill-opacity=".5"><ellipse fill="#620c00" rx="1" ry="1" transform="matrix(-.84446 55.27808 -48.43517 -.73993 101.3 58.6)"/><ellipse fill="#fffdcf" rx="1" ry="1" transform="rotate(177.3 68.8 73.7) scale(255 30.11429)"/><path fill="#1e000f" d="M111.4 151.9L66.2 87.7 136 75l-36 74.6z"/><ellipse fill="#bbe5ef" rx="1" ry="1" transform="matrix(-8.24932 32.92405 -51.34064 -12.8637 22.1 100.8)"/><ellipse fill="#b9deef" cx="166" cy="109" rx="37" ry="37"/><ellipse fill="#577698" rx="1" ry="1" transform="rotate(-95.3 151.6 -80.1) scale(37.16354 77.72944)"/><ellipse fill="#d15c23" rx="1" ry="1" transform="matrix(15.21758 11.39537 -24.23303 32.3612 107.3 65.7)"/><ellipse fill="#8db7d3" rx="1" ry="1" transform="rotate(-94.1 31 12) scale(72.84938 26.4356)"/><path fill="#e06405" d="M49.8 33.8l23 .4-.6 38-23-.4z"/><ellipse fill="#2e5352" rx="1" ry="1" transform="matrix(44.05675 1.15367 -.35517 13.56334 104.2 21.5)"/><ellipse fill="#ffda97" cx="141" cy="154" rx="120" ry="21"/><ellipse fill="#482f2a" cx="101" cy="124" rx="6" ry="28"/><path fill="#ba1900" d="M137 89.9l-20.2-8.6L131 48l20.3 8.6z"/><path fill="#d5c233" d="M156 63l-47-25 8-18z"/><path fill="#2e3b40" d="M141.5 42.7L122 7.2l26.5 17.5 8.8 29.8z"/><path fill="#da8545" d="M140 149h69v8h-69z"/><ellipse fill="#649272" rx="1" ry="1" transform="matrix(23.16359 11.7382 -5.69074 11.22982 84.5 43.3)"/><ellipse fill="#87a5c6" cx="109" rx="77" ry="9"/><ellipse fill="#7fa9c3" cx="171" cy="64" rx="21" ry="29"/><ellipse fill="#421f1d" rx="1" ry="1" transform="matrix(28.76598 42.37507 -4.7881 3.25037 73.4 90)"/><ellipse fill="#c1d0d5" cx="216" cy="122" rx="104" ry="20"/><path fill="#dcdbc7" d="M-13 173l111-42-35-43z"/><ellipse fill="#747a8b" cx="249" cy="34" rx="31" ry="82"/><path fill="#1a3649" d="M113 76.7l17.3 5.3-11.4 37.3-17.2-5.3z"/><path fill="#3f4e3d" d="M75.7 8L61 19.2 50.9 31.4l-6 23.4z"/><path fill="#dbb20f" d="M74 59h31v9H74z"/><path fill="#ae232f" d="M51.2 46.4l24.2 11.1 35.5 50.1-51.6-31.2z"/><path fill="#f8efcb" d="M138 128l28 19-85-10z"/><path fill="#f3ae24" d="M51.4 38l20.8-2.9L74.6 52l-20.8 2.9z"/><ellipse fill="#afcbd5" rx="1" ry="1" transform="rotate(-139.3 87.2 27.9) scale(8.44331 30.80175)"/></g></svg>