<svg xmlns="http://www.w3.org/2000/svg" viewBox="0 0 440 272"><path fill="#6b8335" d="M0 0h440v271H0z"/><g transform="translate(.9 .9) scale(1.71875)" fill-opacity=".5"><ellipse fill="#3f1514" cx="151" cy="28" rx="243" ry="24"/><ellipse fill="#b3fd5b" cx="198" cy="69" rx="74" ry="20"/><path fill="#b9ff5c" d="M2 173L-16 18l61 85z"/><ellipse cx="111" cy="146" rx="105" ry="5"/><ellipse fill="#c0ff5f" cx="220" cy="134" rx="67" ry="12"/><ellipse fill="#000007" rx="1" ry="1" transform="rotate(18.4 -246.8 264.4) scale(31.82941 10.85179)"/><ellipse fill="#a9e156" rx="1" ry="1" transform="matrix(-5.54703 .67914 -6.13915 -50.1431 116.4 31.6)"/><path fill="#0b3212" d="M122 8h92v44h-92z"/><path fill="#ccff69" d="M184.4-1.3l5.8-1.6 21.4 80.2-5.8 1.6z"/><ellipse fill="#aff457" cx="255" cy="128" rx="15" ry="85"/><ellipse fill="#96412f" cx="1" cy="27" rx="112" ry="24"/><ellipse fill="#bfff60" cx="130" cy="156" rx="190" ry="5"/><path fill="#b8ff64" d="M210 67l22-36-12-17z"/><ellipse fill="#e2ff75" rx="1" ry="1" transform="rotate(-77.2 100.1 -90) scale(29.99843 2.59596)"/><ellipse fill="#aeff62" cx="85" cy="39" rx="3" ry="52"/><ellipse rx="1" ry="1" transform="matrix(41.19671 -2.06053 .12228 2.44484 208.2 117.5)"/><path d="M19 144h170v7H19z"/><path fill="#9bdb50" d="M160.3 99.9l80.8-7.5-23.5 21.4-81.6-.9z"/><ellipse fill="#b9ff6b" cx="33" cy="33" rx="3" ry="27"/><path fill="#13191a" d="M141.3 68.8l64.6 35.9-34-10L120 61.8z"/><ellipse fill="#bdff72" cx="49" cy="12" rx="3" ry="46"/><path fill="#b7ff6b" d="M20 37l-36-6V7z"/><path fill="#b7ff6a" d="M71.2 42.7l-8-.4 1.6-29 8 .4z"/><path d="M231.8 88.8l.2 3-61.8 5.4-.2-3zM33 57h65v4H33z"/><path fill="#d6ff75" d="M152 29l-10-45h13z"/><path fill="#aae457" d="M137.5 49.9l3.8-23.7 8.2 46-47.1-19.4z"/><ellipse fill="#bafe5e" cx="148" rx="209" ry="5"/><path fill="#001909" d="M229 4h22v49h-22z"/><path fill="#ddff74" d="M271 50l-34-35 34 13z"/></g></svg>