<svg xmlns="http://www.w3.org/2000/svg" viewBox="0 0 440 272"><filter id="b"><feGaussianBlur stdDeviation="10" /></filter><path fill="#6b8335" d="M0 0h440v271H0z"/><g filter="url(#b)" transform="translate(.9 .9) scale(1.71875)" fill-opacity=".5"><ellipse fill="#401514" cx="139" cy="28" rx="255" ry="24"/><ellipse fill="#baff5e" rx="1" ry="1" transform="matrix(-82.55016 -5.40129 1.15979 -17.72548 209.2 70.2)"/><ellipse fill="#b2f959" rx="1" ry="1" transform="matrix(.7646 55.37815 -34.73703 .47961 3.7 105)"/><ellipse fill="#040f0a" cx="90" cy="140" rx="63" ry="12"/><ellipse fill="#bfff5f" cx="255" cy="133" rx="100" ry="14"/><path d="M30 87l32-14 49 29zm-13 57h201v6H17z"/><path fill="#c0ff62" d="M98 34.2l13.2-3.8L116 5l12.8 58.9z"/><ellipse fill="#b8ff5e" cx="87" cy="154" rx="255" ry="4"/><ellipse fill="#bfff6a" rx="1" ry="1" transform="rotate(-172 111.7 10.5) scale(6.09011 20.83001)"/><ellipse fill="#062b10" cx="157" cy="29" rx="37" ry="23"/><ellipse fill="#974630" rx="1" ry="1" transform="matrix(1.27566 24.34108 -81.6576 4.2795 33.2 28.4)"/><path fill="#ccff69" d="M157 46l13-12-1-36z"/><path fill="#c6ff6f" d="M204.6 54l-5.9 1.4L185.4-2l5.9-1.3z"/><path fill="#aaec55" d="M258 16l13 132-42 25z"/><path fill="#b7ff69" d="M30 0h6v53h-6z"/><path fill="#c1ff6e" d="M82 0h6v58h-6z"/><ellipse fill="#9acc4d" cx="66" cy="136" rx="33" ry="5"/><path d="M203 17l3 37 19-54zm-39.2 102.6l-37 30.3 44.8-26.1 85.4-13.3z"/><ellipse fill="#9ede50" cx="196" cy="105" rx="42" ry="9"/><path fill="#bafe60" d="M41 5.9l88.4-4 1.7 35.7 8.8-52.1z"/><path fill="#c0ff74" d="M47 0h6v53h-6z"/><ellipse cx="62" cy="59" rx="31" ry="3"/><ellipse fill="#d3ff74" rx="1" ry="1" transform="matrix(2.98103 -.03356 .30016 26.66097 150.9 3.2)"/><ellipse fill="#b5fb5d" cx="174" rx="100" ry="5"/><path fill="#001808" d="M229 5h20v48h-20z"/><path fill="#b7ff64" d="M237.8 21.7l25.5 13.6 7.7-7-36-15.7z"/><path fill="#dcff74" d="M240 33l-19-6 20 15z"/><path fill="#9ad355" d="M148 99l-20-9 14-67z"/></g></svg>