<svg xmlns="http://www.w3.org/2000/svg" viewBox="0 0 440 272"><filter id="b"><feGaussianBlur stdDeviation="10" /></filter><path fill="#89939f" d="M0 0h440v271H0z"/><g filter="url(#b)" transform="translate(.9 .9) scale(1.71875)" fill-opacity=".5"><ellipse fill="#fff" rx="1" ry="1" transform="matrix(4.5282 28.7889 -224.92883 35.37905 89 15.2)"/><ellipse fill="#3f3d48" cx="118" cy="157" rx="73" ry="88"/><ellipse fill="#161821" rx="1" ry="1" transform="matrix(4.13875 48.49113 -19.17875 1.63692 229.7 98.1)"/><ellipse fill="#e0fdff" rx="1" ry="1" transform="rotate(64.3 60.2 185.8) scale(30.56221 11.7059)"/><path fill="#bec8ea" d="M133 116l94 20-65-63z"/><ellipse fill="#37353f" rx="1" ry="1" transform="matrix(-27.26117 37.54387 -16.25185 -11.8007 131.3 89.1)"/><ellipse fill="#e1faff" rx="1" ry="1" transform="matrix(-122.34401 49.78015 -11.86891 -29.17007 59.5 17.4)"/><path fill="#325067" d="M161 3l-56 30 33 13z"/><ellipse fill="#322a2f" rx="1" ry="1" transform="matrix(-41.29929 -27.85672 6.01617 -8.91933 205.3 94)"/><path fill="#263345" d="M233 24L169 6l7 20z"/><path fill="#b9c2c8" d="M78 58l-19 62 44 37z"/><path fill="#fff" d="M142 41l16-26.5 24 14.4-16 26.6z"/><ellipse fill="#262734" rx="1" ry="1" transform="matrix(13.49608 .52377 -1.44408 37.20992 0 126.4)"/><path fill="#daeaed" d="M215 87.1l44.2-2-25-50.6L271 59.2z"/><ellipse fill="#fff" rx="1" ry="1" transform="rotate(-93.3 121.3 -107.4) scale(8.06781 53.43897)"/><path fill="#20272f" d="M97 87.4l101.6 94.8-11.6 12.4L85.4 99.8z"/><path fill="#2b1915" d="M29 173l33-46 48 43z"/><path fill="#372827" d="M60 48h10v51H60z"/><ellipse fill="#140a0d" rx="1" ry="1" transform="matrix(-11.96846 -2.86747 5.88338 -24.5565 180.4 157)"/><path fill="#0e232f" d="M216 43h25v22h-25z"/><path fill="#d3edfe" d="M81 49h48v13H81z"/><path fill="#a2c0db" d="M66 55l-43 70-27-85z"/><path fill="#8291b5" d="M136.2 124.4l34.7 9.7 24.7-19.9-53.8-40.6z"/><ellipse fill="#3d3b42" rx="1" ry="1" transform="matrix(-27.33148 30.90076 -11.48302 -10.15665 245.2 108.2)"/><path fill="#d3eaf9" d="M202.7 74.7l-22.7-4 7.3-41.4 22.7 4z"/><ellipse fill="#2e3740" rx="1" ry="1" transform="matrix(17.73477 22.02353 -14.31429 11.5268 109.5 93.3)"/><path fill="#8f8881" d="M157.4 170.7L132.2 195l-57.6-59.7L99.8 111z"/><ellipse fill="#fef9fc" rx="1" ry="1" transform="matrix(-8.1848 -4.802 4.65848 -7.94018 165.3 89.5)"/><path fill="#4a3a3f" d="M177 87l7-65-17 35z"/><path fill="#606c73" d="M57.4 119.8l4.9 39.7-37.7 4.7-4.9-39.7z"/></g></svg>