<svg xmlns="http://www.w3.org/2000/svg" viewBox="0 0 440 272"><path fill="#89939f" d="M0 0h440v271H0z"/><g transform="translate(.9 .9) scale(1.71875)" fill-opacity=".5"><ellipse fill="#fff" rx="1" ry="1" transform="rotate(-8.2 172.7 -710.9) scale(170.77958 28.01931)"/><ellipse fill="#3f3e49" cx="118" cy="157" rx="73" ry="89"/><path fill="#0d0c15" d="M256 90l-82-20 64 82z"/><path fill="#000006" d="M242.3 77.6L221.5 81l-5.8-36.5 20.8-3.3z"/><ellipse fill="#b1c0ea" rx="1" ry="1" transform="rotate(43.5 -48.7 259.4) scale(28.0248 21.22272)"/><ellipse fill="#302c34" rx="1" ry="1" transform="matrix(-15.21075 -12.42513 26.72568 -32.71737 131.3 85.8)"/><ellipse fill="#eaffff" rx="1" ry="1" transform="matrix(7.57796 22.51746 -14.18113 4.77248 200 56)"/><path fill="#3c586d" d="M165 1l-63 34 34 14z"/><ellipse fill="#dff8ff" rx="1" ry="1" transform="matrix(-110.22302 46.66047 -11.78201 -27.83188 62.4 19.6)"/><path fill="#2b3d4d" d="M250 24l-67 5-18-22z"/><path fill="#bcc0c3" d="M102 162l-48-50 28-38z"/><ellipse fill="#282a37" rx="1" ry="1" transform="rotate(-88.7 65 63.4) scale(38.94217 13.91444)"/><path fill="#fff" d="M164 54l-19.5-12L162 14l19.5 12.2z"/><path fill="#232630" d="M103 113l98 34-33 26z"/><ellipse fill="#fff" cx="227" cy="5" rx="50" ry="12"/><path fill="#352526" d="M67 101l-15-8 20-56z"/><ellipse fill="#fff" cx="202" cy="121" rx="16" ry="7"/><path fill="#261612" d="M96.6 159.4l-22.2 23-31-29.8 22.2-23z"/><path fill="#e0ffff" d="M243 43h13v38h-13z"/><ellipse fill="#b8d1df" cx="105" cy="53" rx="24" ry="15"/><ellipse fill="#9bbdda" cx="32" cy="81" rx="23" ry="35"/><ellipse fill="#ddf3ff" cx="20" rx="150" ry="18"/><path fill="#413035" d="M178 85l-15-17 23-52z"/><path fill="#f0eef9" d="M139.3 89.9l48.4 7.7-.5 2.7-20.3-22.6z"/><ellipse fill="#303943" rx="1" ry="1" transform="rotate(43.7 -60.1 185.8) scale(30.3791 21.436)"/><path fill="#6f737f" d="M155.9 3.2l-46.3 75.5L155 99.5l-11.3-52.8z"/><path fill="#f3ffff" d="M186 26h14v25h-14z"/><path fill="#43373f" d="M60 46h19v12H60z"/><path fill="#7a87a7" d="M198 99l-35 53-24-41z"/><path fill="#646c72" d="M21 121h41v37H21z"/></g></svg>