<svg xmlns="http://www.w3.org/2000/svg" viewBox="0 0 440 272"><path fill="#435a6c" d="M0 0h440v271H0z"/><g transform="translate(.9 .9) scale(1.71875)" fill-opacity=".5"><ellipse fill="#fff" rx="1" ry="1" transform="matrix(-38.26748 3.4603 -4.45861 -49.30784 228.8 139)"/><ellipse rx="1" ry="1" transform="matrix(-98.59929 -49.1598 31.75879 -63.69828 78.2 141.2)"/><ellipse fill="#e0cacb" rx="1" ry="1" transform="matrix(18.30652 19.49447 -25.71241 24.14556 162.1 75.8)"/><path fill="#fff" d="M235 92l52 43.7-54 64.3-52-43.7z"/><ellipse fill="#4d81ab" cx="115" cy="11" rx="141" ry="32"/><path fill="#ffd5b6" d="M244.5 61.4l-7 25.8-40.4 14.3 39.6-48.2z"/><ellipse fill="#001228" rx="1" ry="1" transform="matrix(-38.01504 -31.00431 45.3643 -55.62214 68.8 117.9)"/><ellipse fill="#114870" rx="1" ry="1" transform="matrix(2.38414 33.55829 -123.7172 8.78944 34.4 61.5)"/><path fill="#fff" d="M172.6 73l-5.6 29 21.5-19 .6-32z"/><path fill="#390f02" d="M239 29h17v70h-17z"/><path d="M252 134h4v24h-4z"/><path fill="#fffff6" d="M256.8 101.7l-9 64.3-40.6-5.7 9-64.3z"/><ellipse fill="#25272f" cx="172" cy="124" rx="24" ry="24"/><ellipse fill="#747e90" cx="146" cy="28" rx="23" ry="95"/><ellipse fill="#001420" rx="1" ry="1" transform="matrix(26.3529 48.13457 -82.50885 45.17228 35.4 145.2)"/><path fill="#ffcba5" d="M234 53h9v30h-9z"/><ellipse fill="#264a64" cx="207" cy="38" rx="31" ry="29"/><ellipse fill="#fff" cx="181" cy="77" rx="6" ry="18"/><ellipse fill="#555d72" rx="1" ry="1" transform="matrix(41.9785 -58.80849 5.8973 4.2096 164.6 65)"/><ellipse fill="#1e4a6a" cx="121" cy="43" rx="19" ry="30"/><path fill="#fffff9" d="M194 134l-12 36 66-29z"/><path fill="#d2cbca" d="M129.2 82.7l10.8-7L163 56l-29.4 39.7z"/><path fill="#ffe5c8" d="M251.4 46.6L271 35.7V60l-20.8-9.8z"/><path fill="#000002" d="M267.8 81.6l-39 5.7 16 9.4 15 4.8z"/><path fill="#170600" d="M246 167l21-61 4 67z"/><path fill="#5c5665" d="M154.2 118l-.1-7.3-41.2 60.8 35-90.3z"/><ellipse fill="#7897ac" rx="1" ry="1" transform="rotate(153.2 76.4 25.8) scale(14.53872 34.59048)"/><path fill="#919391" d="M241.7 94.6L204 115.4l-7.8-14L234 80.6z"/><path fill="#1f3b49" d="M233 53l-45 59 5-73z"/><ellipse fill="#5f8aac" rx="1" ry="1" transform="matrix(-105.6765 5.53827 -.5414 -10.33061 59 2.5)"/></g></svg>