<svg xmlns="http://www.w3.org/2000/svg" viewBox="0 0 440 272"><filter id="b"><feGaussianBlur stdDeviation="10" /></filter><path fill="#435a6c" d="M0 0h440v271H0z"/><g filter="url(#b)" transform="translate(.9 .9) scale(1.71875)" fill-opacity=".5"><ellipse fill="#fff" rx="1" ry="1" transform="matrix(32.85501 10.38014 -17.85673 56.51976 222 149.7)"/><ellipse rx="1" ry="1" transform="matrix(-22.23693 58.84833 -102.84148 -38.86056 75.6 135)"/><ellipse fill="#d2bfc2" rx="1" ry="1" transform="matrix(23.58546 14.00402 -20.03891 33.74937 161 77.3)"/><ellipse fill="#fffff9" cx="222" cy="138" rx="28" ry="62"/><ellipse fill="#4e82ab" rx="1" ry="1" transform="matrix(141.34787 -.79985 .24284 42.9139 129 0)"/><ellipse fill="#001126" rx="1" ry="1" transform="matrix(-39.9571 59.69938 -41.46838 -27.755 70.1 120.1)"/><ellipse fill="#fff" rx="1" ry="1" transform="matrix(-7.24125 -1.37676 3.37487 -17.75061 181.4 78.9)"/><path fill="#fac19f" d="M239 42l5 39-28 1z"/><ellipse fill="#fffffe" rx="1" ry="1" transform="matrix(12.10565 16.87746 -22.7891 16.34587 236 122)"/><ellipse fill="#0e456b" rx="1" ry="1" transform="matrix(-5.33894 -32.19115 95.72473 -15.87607 63.1 64.3)"/><path fill="#340a00" d="M240 26h16v73h-16z"/><ellipse fill="#21242d" cx="171" cy="125" rx="24" ry="24"/><ellipse fill="#708599" rx="1" ry="1" transform="rotate(-13.1 185 -657.3) scale(23.54586 54.11906)"/><path fill="#888683" d="M204 82l42-8-48 62z"/><ellipse fill="#00131e" cx="56" cy="136" rx="60" ry="60"/><path fill="#fffdf1" d="M169 171.3l51.2-58.8 34.7 30.2-51.1 58.8z"/><ellipse fill="#48475b" rx="1" ry="1" transform="matrix(-12.32706 -2.9764 7.59773 -31.4668 138.5 119.9)"/><path d="M271 145V77l-25 90z"/><ellipse fill="#274b65" rx="1" ry="1" transform="matrix(33.7029 -1.02778 .87792 28.78853 209.4 37.9)"/><path fill="#fff" d="M182 77.4l5 4.6-19 20.5-5.2-4.7z"/><ellipse fill="#040008" rx="1" ry="1" transform="matrix(.8735 -7.6265 16.68041 1.9105 249.7 92)"/><ellipse fill="#fab998" cx="237" cy="68" rx="7" ry="16"/><path fill="#fff" d="M192 57l-9 1.6-12.5 12.6 15.1 8.6zm60.5 59.8l-27.8-16.4 43.6 1-36 70.7z"/><ellipse fill="#163849" cx="208" cy="59" rx="18" ry="18"/><path fill="#b7b2a4" d="M239.2 129.9l6.3 13.7-18.6-6.2-18.8-10z"/><path fill="#fff5d7" d="M269.2 60.8l1.8-15.6-16.8-.2-4.7 4.4z"/><path fill="#d7cece" d="M137.5 77.7l-11.1-1.3 7.7 17.9 22-33z"/><ellipse fill="#628bac" cx="64" cy="2" rx="115" ry="11"/><ellipse fill="#00000e" rx="1" ry="1" transform="matrix(3.31562 4.43695 -17.29416 12.92348 252.4 39.3)"/></g></svg>