<svg xmlns="http://www.w3.org/2000/svg" viewBox="0 0 440 272"><filter id="b"><feGaussianBlur stdDeviation="10" /></filter><path fill="#a1a6a8" d="M0 0h440v271H0z"/><g filter="url(#b)" transform="translate(.9 .9) scale(1.71875)" fill-opacity=".5"><ellipse fill="#4b3315" cx="9" cy="119" rx="69" ry="69"/><ellipse fill="#eefeff" rx="1" ry="1" transform="rotate(-173.9 67.7 -3.6) scale(169.17331 63.84601)"/><path d="M240.3 79.5l30.7-6.1-22.8 38.7-13.3 3.5z"/><ellipse fill="#788187" rx="1" ry="1" transform="rotate(-160.1 78.6 61) scale(92.23628 42.82768)"/><ellipse fill="#98b3cd" rx="1" ry="1" transform="rotate(-101.9 120.7 -40.9) scale(27.09945 79.77111)"/><ellipse fill="#b49561" rx="1" ry="1" transform="rotate(176.6 18.8 35) scale(77.13436 7.79348)"/><ellipse fill="#eaf0ee" rx="1" ry="1" transform="matrix(-.11377 -14.18808 149.29487 -1.19713 152.8 12.5)"/><ellipse fill="#594c40" rx="1" ry="1" transform="rotate(-121 41.2 59.3) scale(30.98809 51.88342)"/><ellipse fill="#b0bcc3" cx="92" cy="43" rx="91" ry="16"/><path fill="#1f0900" d="M240 77h10v32h-10z"/><ellipse fill="#86898c" cx="97" cy="142" rx="65" ry="18"/><ellipse fill="#908a82" rx="1" ry="1" transform="matrix(-21.01484 -40.45095 11.93417 -6.19997 75 96.8)"/><ellipse fill="#9aa2ab" rx="1" ry="1" transform="rotate(105 43 115.6) scale(24.71407 85.44738)"/><path fill="#9aa9b2" d="M63 29L15 41l99 7z"/><ellipse fill="#67675a" cx="70" cy="61" rx="38" ry="3"/><ellipse fill="#8999a4" rx="1" ry="1" transform="matrix(50.64015 20.92185 -10.11887 24.49214 209.3 141.2)"/><ellipse fill="#ced7d8" rx="1" ry="1" transform="matrix(-.9829 5.19916 -31.5251 -5.95978 51.4 50)"/><path fill="#d0bd9c" d="M0 70h123v3H0z"/><path fill="#645c54" d="M57.8 81.9L30.3 173l-15.4-71.7 83.4-7.6z"/><path fill="#57534e" d="M11 117h72v12H11z"/><path fill="#7d8d9e" d="M187.3 79.4l1 14.5-76-10.6 4.5-4.2z"/><ellipse fill="#87a6c1" rx="1" ry="1" transform="matrix(-12.04365 -11.67111 12.91197 -13.32412 224.2 79.6)"/><ellipse fill="#d9ecf6" rx="1" ry="1" transform="rotate(14.8 110.4 849.1) scale(133.46844 21.77705)"/><path fill="#84743d" d="M0 53h38v15H0z"/><ellipse fill="#d9d6cc" cx="15" cy="22" rx="167" ry="11"/><ellipse fill="#95a3af" rx="1" ry="1" transform="matrix(8.83908 -8.4468 5.66975 5.93305 255.9 110.7)"/><ellipse fill="#b3c6d5" cx="184" cy="50" rx="93" ry="20"/><path fill="#b6ae9f" d="M136.7 62.4l-52.1 7.2-42.8-5 48 32.4z"/><path fill="#2a1b0d" d="M239 88h17v13h-17z"/><path fill="#92969a" d="M29 140l86 6-36-22z"/></g></svg>