<svg xmlns="http://www.w3.org/2000/svg" viewBox="0 0 440 272"><path fill="#a1a6a8" d="M0 0h440v271H0z"/><g transform="translate(.9 .9) scale(1.71875)" fill-opacity=".5"><ellipse fill="#4a3114" rx="1" ry="1" transform="matrix(-58.88493 9.13317 -10.55902 -68.0779 16.5 120.7)"/><ellipse fill="#efffff" rx="1" ry="1" transform="matrix(-154.75694 -12.9753 4.41634 -52.67386 140 10.2)"/><path d="M257.5 113.4l-21.8-3.1 4.8-33.7 21.8 3.1z"/><ellipse fill="#787f84" rx="1" ry="1" transform="rotate(33.3 -197.2 297.1) scale(95.77801 50.63475)"/><path fill="#9fb6ca" d="M-15 31l264 2-12 68z"/><ellipse fill="#eaefee" rx="1" ry="1" transform="matrix(-170.85762 4.17567 -.42047 -17.20437 180.1 9.8)"/><ellipse fill="#ae9262" rx="1" ry="1" transform="matrix(.54542 10.40717 -60.66282 3.1792 50 68.3)"/><path fill="#584b3e" d="M-17.8 172.5l-23.8-38.1 81.4-51 23.8 38.2z"/><path fill="#1c0700" d="M239 114l3-37 17 17z"/><path fill="#839098" d="M44 131h212v27H44z"/><ellipse fill="#a4b1ba" cx="255" cy="127" rx="12" ry="26"/><path fill="#bbc1bf" d="M-15.4 47l2.6-20.8L91.4 39l-2.6 20.8z"/><path fill="#6f614e" d="M96.3 106.6L81.9 96.2l-97.9 2 90.4-14.8z"/><ellipse fill="#95a3b1" cx="171" cy="102" rx="65" ry="25"/><ellipse fill="#67665b" cx="65" cy="61" rx="43" ry="3"/><ellipse fill="#d5c2a1" cx="8" cy="71" rx="102" ry="2"/><ellipse fill="#a0bdd9" cx="255" cy="62" rx="140" ry="9"/><path fill="#ccd5d9" d="M38 49h150v8H38z"/><ellipse fill="#877844" cx="4" cy="59" rx="39" ry="10"/><ellipse fill="#9b9c9e" rx="1" ry="1" transform="matrix(4.34057 -8.5345 10.60359 5.39289 73.5 106)"/><ellipse fill="#d5e6ee" rx="1" ry="1" transform="matrix(28.429 19.27839 -16.75399 24.70637 227.6 11.2)"/><ellipse fill="#9ca7ae" cx="30" cy="39" rx="74" ry="5"/><path fill="#584e47" d="M3 148h53v10H3z"/><path fill="#aba499" d="M16.7 84.2l38.6-4.8 97.4-23-96.1 31.8z"/><ellipse fill="#dad5cc" cx="37" cy="21" rx="133" ry="9"/><ellipse fill="#57554f" cx="53" cy="121" rx="31" ry="7"/><ellipse fill="#919ea7" rx="1" ry="1" transform="matrix(-3.69882 29.06258 -45.0734 -5.73652 208.8 130.4)"/><ellipse fill="#878988" cx="105" cy="143" rx="44" ry="29"/><ellipse fill="#c6d0cf" rx="1" ry="1" transform="matrix(5.82209 -9.84827 3.54538 2.09595 25.8 44.4)"/><ellipse fill="#7f95ac" rx="1" ry="1" transform="matrix(65.56518 6.7293 -.49368 4.81 172.9 86.4)"/></g></svg>