<svg xmlns="http://www.w3.org/2000/svg" viewBox="0 0 440 272"><path fill="#958267" d="M0 0h440v271H0z"/><g transform="translate(.9 .9) scale(1.71875)" fill-opacity=".5"><ellipse fill="#fffff5" cx="139" cy="20" rx="255" ry="32"/><ellipse cx="34" cy="107" rx="33" ry="61"/><ellipse fill="#08000a" rx="1" ry="1" transform="rotate(178.5 100.6 41.9) scale(90.39625 26.52938)"/><path fill="#050000" d="M91 37h14v113H91z"/><path d="M138 55l18-7-5-20z"/><ellipse fill="#ffca66" cx="213" cy="157" rx="119" ry="20"/><ellipse fill="#9f6925" cx="177" cy="121" rx="81" ry="22"/><ellipse fill="#f7e8d9" cx="31" cy="26" rx="88" ry="24"/><ellipse cx="26" cy="127" rx="16" ry="34"/><ellipse fill="#ffef95" cx="232" cy="30" rx="80" ry="24"/><path fill="#1f0000" d="M201 40.7l-.9 36 14.8-25-8-19.7z"/><path fill="#fff" d="M93 71l15 2 1 28z"/><ellipse fill="#4d4f5d" cx="23" cy="73" rx="63" ry="22"/><path fill="#1e0800" d="M215 79h18v56h-18z"/><path fill="#000025" d="M89.5 46.3l10.1-6.4 25 39.8-10.2 6.4z"/><path fill="#2b0a00" d="M148 85h14v51h-14z"/><ellipse fill="#6b7fac" cx="137" cy="61" rx="38" ry="9"/><ellipse fill="#ffbe4e" rx="1" ry="1" transform="rotate(-94.4 67.8 70.7) scale(34.6977 8.55841)"/><ellipse fill="#915f20" rx="1" ry="1" transform="matrix(49.15825 -14.38191 4.96292 16.96357 84.5 142.7)"/><path fill="#ffecb8" d="M109 5h33v52h-33z"/><path fill="#d4ab67" d="M164 100h27v58h-27z"/><path fill="#242d3e" d="M112 63h28v38h-28z"/><path fill="#190d09" d="M97.8 78l9 47.7-12.4 11.8L85 89.6z"/><path fill="#c6cbb9" d="M51 45h40v20H51z"/><path fill="#160000" d="M7 106h58v22H7z"/><path fill="#280600" d="M185.3 69.9l27.2-6.8 8.2 33-27.2 6.8z"/><path fill="#544f4e" d="M48.2 37.4l5.2 14.9 42.3 53.3L-16 78.4z"/><path fill="#030000" d="M149.5 33.1l6.8 1.3-2.3 18.3-11.3-2.8z"/><ellipse fill="#f2ce98" rx="1" ry="1" transform="matrix(4.4739 -2.0577 3.7996 8.26119 56 98.3)"/><path fill="#ffffb6" d="M271.2 48.7L219 57l-4.1-25.7L267 23z"/></g></svg>