<svg xmlns="http://www.w3.org/2000/svg" viewBox="0 0 440 272"><filter id="b"><feGaussianBlur stdDeviation="10" /></filter><path fill="#958267" d="M0 0h440v271H0z"/><g filter="url(#b)" transform="translate(.9 .9) scale(1.71875)" fill-opacity=".5"><ellipse fill="#fff" cx="52" rx="61" ry="61"/><ellipse fill="#ffffd9" rx="1" ry="1" transform="rotate(92.8 85 100.2) scale(31.34537 239.52231)"/><ellipse fill="#362313" cx="52" cy="104" rx="119" ry="55"/><ellipse fill="#05000a" rx="1" ry="1" transform="matrix(-91.626 -1.46277 .38484 -24.10615 220 79)"/><ellipse fill="#020000" rx="1" ry="1" transform="rotate(168.2 11 68.6) scale(25.99231 43.64941)"/><ellipse fill="#c69042" cx="136" cy="157" rx="101" ry="57"/><path fill="#340900" d="M207 31l-17 47 48 61z"/><path d="M142 35h14v16h-14z"/><ellipse fill="#00002c" rx="1" ry="1" transform="matrix(-10.15665 1.52362 -2.53429 -16.89386 100.4 56.1)"/><path fill="#fff" d="M112 77l-15-6 9 33z"/><path fill="#ddd2c4" d="M55 0h36v68H55z"/><ellipse fill="#fff0ca" rx="1" ry="1" transform="matrix(17.23166 7.95678 -10.82523 23.44372 126.3 38.5)"/><ellipse fill="#150c0e" cx="98" cy="116" rx="8" ry="35"/><ellipse fill="#f0c678" rx="1" ry="1" transform="matrix(.50106 18.802 -124.4169 3.3156 212 157)"/><ellipse fill="#ffffb5" cx="236" cy="36" rx="27" ry="18"/><path fill="#ffd966" d="M-16 124l32 49-11-64z"/><ellipse fill="#fffff2" cy="40" rx="30" ry="12"/><path fill="#321000" d="M148 80h14v57h-14z"/><ellipse fill="#ffefae" cx="178" cy="30" rx="24" ry="24"/><path fill="#bea986" d="M65 146l33-77-27 15z"/><path fill="#5e74a2" d="M102 54h76v15h-76z"/><path fill="#321a02" d="M214 78h19v59h-19z"/><path fill="#120000" d="M191 85h8v38h-8z"/><path fill="#100" d="M8 106h56v29H8z"/><path fill="#2e3b4c" d="M31 79l70 27-59-67z"/><path d="M148 33h7v17h-7z"/><ellipse fill="#dfa551" rx="1" ry="1" transform="matrix(-8.33847 -21.7591 15.7568 -6.03829 249.8 127.8)"/><ellipse fill="#0a030e" rx="1" ry="1" transform="rotate(-72.6 80.1 -43.3) scale(14.62067 4.71969)"/><path d="M55 164.9l2.7-44.9 6.5 38.4-19.5-7.2z"/><path fill="#ffe7bc" d="M100 78h10v24h-10z"/></g></svg>