<svg xmlns="http://www.w3.org/2000/svg" viewBox="0 0 440 272"><path fill="#423733" d="M0 0h440v271H0z"/><g transform="translate(.9 .9) scale(1.71875)" fill-opacity=".5"><ellipse fill="#c4d2d9" rx="1" ry="1" transform="matrix(37.1979 10.59099 -17.24134 60.55539 0 108.2)"/><path fill="#9ba3c6" d="M34.3 123l34.4-16 27 58-34.4 16z"/><ellipse fill="#261b18" cx="181" cy="33" rx="114" ry="114"/><ellipse fill="#dea598" cx="195" cy="90" rx="11" ry="29"/><ellipse fill="#c6928e" cx="125" cy="74" rx="9" ry="23"/><path fill="#cdac95" d="M63 80h12v78H63z"/><ellipse fill="#db3509" cx="29" cy="143" rx="13" ry="15"/><ellipse fill="#00103b" cx="238" cy="138" rx="46" ry="46"/><path fill="#110800" d="M123 9l-12 121L43-16z"/><ellipse fill="#5f300f" cx="29" cy="33" rx="41" ry="41"/><path fill="#c3b39c" d="M163.4 163l-21.5 4.7 3.2-29 16.5 2.8z"/><path d="M86 136h57v22H86z"/><ellipse fill="#666665" rx="1" ry="1" transform="matrix(1.19803 -12.22333 79.72121 7.81362 165 0)"/><path fill="#93e1fd" d="M-12.6 120.3l29 2.5-3.8 42.9-29-2.5z"/><path fill="#a26d5d" d="M221.7 55.8l29.7 4.4-3 7.5-6.5 28.5z"/><ellipse fill="#68c6ed" rx="1" ry="1" transform="matrix(-2.3574 9.48932 -29.49761 -7.32797 12 86.6)"/><ellipse fill="#000106" rx="1" ry="1" transform="matrix(-10.24892 5.48215 -21.10934 -39.46405 155.4 117)"/><ellipse fill="#0d0300" rx="1" ry="1" transform="matrix(37.20547 -14.97923 6.2265 15.4654 226.8 42.6)"/><ellipse fill="#af8b79" rx="1" ry="1" transform="matrix(-.73277 12.73209 -5.9153 -.34044 182 129.6)"/><path fill="#313f58" d="M56 167l7-58-43-10z"/><path fill="#3e2411" d="M175 104.1l31-85.4-96.8-6.6 90.4 84.6z"/><path fill="#d8b98b" d="M108 132.3l16.3-13.2 3.7 4.6-16.3 13.2z"/><path fill="#3367b6" d="M92.2 128.2l-2.3-18.9 11.9-1.5 2.3 18.9z"/><ellipse fill="#250a00" cx="50" cy="88" rx="9" ry="23"/><path fill="#c4b785" d="M72.9 84.3l7-3-16.5-20L74 60z"/><path fill="#af7873" d="M1.9 46.5l11.5 26.3 16.7-21.2-10.8-9.1z"/><path fill="#bd9887" d="M191.1 121.3l16.4-16.7 1.6-14.2-17.6 2.2z"/><path fill="#0f0800" d="M118.8 22.9l-.8 23L148.7 65 134.9 7.5z"/><ellipse fill="#2c261a" rx="1" ry="1" transform="matrix(-.91694 -26.25758 3.95862 -.13824 29.5 157.7)"/><ellipse fill="#050c10" rx="1" ry="1" transform="matrix(-31.63858 16.05117 -4.99 -9.83581 150 127.1)"/></g></svg>