<svg xmlns="http://www.w3.org/2000/svg" viewBox="0 0 440 272"><filter id="b"><feGaussianBlur stdDeviation="10" /></filter><path fill="#423733" d="M0 0h440v271H0z"/><g filter="url(#b)" transform="translate(.9 .9) scale(1.71875)" fill-opacity=".5"><ellipse fill="#a9adbc" rx="1" ry="1" transform="matrix(-31.51578 30.01207 -78.80665 -82.75513 12 113.2)"/><ellipse fill="#080000" cx="94" cy="23" rx="28" ry="77"/><ellipse fill="#1b0900" cx="192" cy="37" rx="87" ry="25"/><ellipse fill="#dd9f8f" cx="196" cy="89" rx="10" ry="28"/><ellipse fill="#4b2c1c" rx="1" ry="1" transform="matrix(-22.4935 128.97435 -16.82791 -2.93484 44.2 116.8)"/><ellipse fill="#91c8db" rx="1" ry="1" transform="matrix(15.7661 -59.52204 17.57676 4.6557 .6 129.7)"/><ellipse fill="#000731" cx="240" cy="137" rx="47" ry="47"/><path fill="#000608" d="M179.5 111.8l-66 68.3-33-32 66-68.2z"/><ellipse fill="#bd9b7e" rx="1" ry="1" transform="matrix(-6.1036 -.41848 2.9123 -42.4761 68 95)"/><path fill="#cf8f82" d="M117 53h15v35h-15z"/><ellipse fill="#99958d" rx="1" ry="1" transform="rotate(69 -41.5 54.2) scale(32.18234 13.61665)"/><ellipse fill="#c4b29b" cx="152" cy="149" rx="11" ry="11"/><ellipse fill="#d12800" cx="29" cy="145" rx="13" ry="14"/><path fill="#d3ad81" d="M106 130l25-13-13 17z"/><path fill="#000503" d="M102.8 118.1l-21.9-57 24.3-9.2 21.9 57z"/><path fill="#1f0e00" d="M34.9 21.7l8.2 82.1-4.7 12.7 22.7-8.2z"/><ellipse fill="#245fb2" rx="1" ry="1" transform="matrix(8.34752 -2.73075 10.64532 32.5412 53.8 151)"/><ellipse fill="#00010a" rx="1" ry="1" transform="rotate(69.7 -16.5 193.7) scale(46.57671 9.69605)"/><ellipse fill="#5e3314" rx="1" ry="1" transform="matrix(33.7898 9.34188 -14.82582 53.62534 33.7 21)"/><path fill="#a46959" d="M241 92l-18-41 26 12z"/><ellipse fill="#67c1e5" rx="1" ry="1" transform="matrix(34.68835 11.9533 -2.51767 7.30625 7 83.1)"/><path fill="#a17e7c" d="M34.5 135.5L-3.1 119l4.3-26 41.5 36z"/><ellipse fill="#c68680" cx="16" cy="55" rx="11" ry="11"/><ellipse fill="#636461" cx="171" rx="63" ry="12"/><path fill="#a18889" d="M197.4 129.3L178 121l.5 19.7 18-26z"/><ellipse fill="#b2a6ad" cx="70" cy="147" rx="11" ry="22"/><path fill="#787c9a" d="M120 85l11 37 1-45z"/><ellipse fill="#5c3923" rx="1" ry="1" transform="rotate(89.6 67 102.2) scale(16.04745 29.75025)"/><ellipse fill="#0f0b07" rx="1" ry="1" transform="rotate(-39.3 173.2 -300.3) scale(38.64896 15.28258)"/><ellipse fill="#2f5da4" rx="1" ry="1" transform="rotate(-26.1 303.7 -151.5) scale(6.56374 12.8134)"/></g></svg>