<svg xmlns="http://www.w3.org/2000/svg" viewBox="0 0 440 272"><path fill="#437892" d="M0 0h440v271H0z"/><g transform="translate(.9 .9) scale(1.71875)" fill-opacity=".5"><ellipse fill="#ffffd3" rx="1" ry="1" transform="matrix(37.25785 8.80738 -3.27485 13.8536 148.9 146.4)"/><path fill="#cd6940" d="M149 41h23v97h-23z"/><ellipse fill="#774939" rx="1" ry="1" transform="matrix(-3.66022 -74.8386 11.44067 -.55954 50.2 63.8)"/><path fill="#fcadb6" d="M39.2 85L28 103l57-.9-45.6-17.5z"/><ellipse fill="#026385" cx="60" cy="152" rx="51" ry="51"/><ellipse fill="#ffffd7" rx="1" ry="1" transform="matrix(-4.29442 10.47088 -27.12927 -11.12652 143.2 147.3)"/><ellipse fill="#98adbe" rx="1" ry="1" transform="rotate(-67.1 98.7 -130.6) scale(23.75967 16.05249)"/><ellipse fill="#2077a5" rx="1" ry="1" transform="matrix(-9.43863 -94.68642 47.65264 -4.75016 241 77.9)"/><ellipse fill="#2077a3" rx="1" ry="1" transform="rotate(-75.6 92.5 -43.9) scale(63.51062 38.37461)"/><path fill="#d9a32e" d="M173.5 141.2l-.7 4.2-34.2 8.2 72 3z"/><ellipse fill="#250000" cx="50" cy="32" rx="8" ry="16"/><ellipse fill="#ffb593" cx="150" cy="83" rx="5" ry="20"/><ellipse fill="#79543d" rx="1" ry="1" transform="rotate(7.1 -380.2 1378.5) scale(12.22762 28.28036)"/><ellipse fill="#1f75a0" cx="5" rx="30" ry="177"/><path fill="#e7a386" d="M189.1 79.1l-8.3-12.8-24.9-26 21.8 35z"/><path fill="#2f8ecc" d="M170.5 138.2l.2 1.1-12.8-44-1.6 43.4z"/><ellipse fill="#001900" cx="62" cy="106" rx="17" ry="4"/><path fill="#d99c83" d="M35.5 27L51.8-5.3 54.5-16 38.3 44.6z"/><path fill="#312635" d="M169 148h44v4h-44z"/><path fill="#25302f" d="M175 72l-16 25V61z"/><path fill="#1b86bd" d="M44 88l6-34 9 37z"/><path fill="#005f7a" d="M58 38h83v12H58z"/><path fill="#ffedec" d="M127.5 154.2l-5.6-23.4 47.3 9.6-3 6.8z"/><path fill="#0b6890" d="M169 92l35 5-36-30z"/><ellipse fill="#fffff7" cx="195" cy="153" rx="13" ry="2"/><path fill="#fc0020" d="M46 95h23v4H46z"/><path fill="#edc4bb" d="M52 92l-21 3 8 14z"/><path fill="#d3b09e" d="M147.1 100.3l10.2-42.5-5.6-9-5.3 36.8z"/><path fill="#e38b60" d="M166.3 91l10.4 59.1-5 .9-10.4-59.1z"/><path fill="#18414f" d="M217.3 168.5l-25.5-81 12.5 62.3 26.5 4.8z"/></g></svg>