<svg xmlns="http://www.w3.org/2000/svg" viewBox="0 0 440 272"><filter id="b"><feGaussianBlur stdDeviation="10" /></filter><path fill="#437892" d="M0 0h440v271H0z"/><g filter="url(#b)" transform="translate(.9 .9) scale(1.71875)" fill-opacity=".5"><ellipse fill="#ffffd7" rx="1" ry="1" transform="matrix(-39.69979 -8.51726 2.44786 -11.40974 148 146)"/><ellipse fill="#c06a45" rx="1" ry="1" transform="matrix(7.49403 -52.39107 14.35631 2.05353 160.7 80.6)"/><ellipse fill="#804430" cx="50" cy="64" rx="12" ry="60"/><ellipse fill="#ffffd2" rx="1" ry="1" transform="rotate(22 -312.1 445.8) scale(29.3512 13.39193)"/><ellipse fill="#086588" rx="1" ry="1" transform="matrix(-.32258 36.96452 -59.65272 -.52058 52.7 139.3)"/><path fill="#ffb4be" d="M23 105l19-19 38 11z"/><path fill="#cd7d40" d="M167 153h18l-19-56z"/><ellipse fill="#21749f" rx="1" ry="1" transform="matrix(-56.17392 -47.33952 34.49735 -40.93516 234 98.2)"/><ellipse fill="#92abbd" rx="1" ry="1" transform="matrix(12.03473 -30.709 16.304 6.38947 183.5 3)"/><ellipse fill="#2478a4" cx="106" cy="51" rx="44" ry="77"/><path fill="#160500" d="M52.5 44l7 2-4.3-36.5-14.5 27z"/><path fill="#ffb27d" d="M162 55l15 4 11 21z"/><path fill="#491800" d="M157 88.7l-1-25 11-.4 1 25z"/><ellipse fill="#cca027" cx="174" cy="151" rx="32" ry="4"/><path fill="#e4a78b" d="M147.7 67.7l5-22.4 6.8 39.8-12.4 24.5z"/><ellipse fill="#2376a0" rx="1" ry="1" transform="rotate(96 -29.2 44.2) scale(128.14441 21.2268)"/><path fill="#c28268" d="M54.1-16l-19 38.5L46 84.7l-4.1-52.3z"/><path fill="#003017" d="M40.3 106.8l21.2-4.7 26 3.3-25.7 8.6z"/><path fill="#1d89bd" d="M40 89l14-27 4 29z"/><path fill="#312d2c" d="M185 64l-19-12 10-18z"/><path fill="#fff6ec" d="M143.6 158.3l-31.3-15.4 4-10.4L146 134z"/><path fill="#4b82a8" d="M151.8 96.8l-102 21.7 80.3 14.7 17.3.6z"/><path fill="#293b3d" d="M180.1 156.9l39.9 11-34.8-94.6 23 81.8z"/><path fill="#fff" d="M181 153h27v2h-27z"/><path fill="#0f6682" d="M99 37.3L179 25l-37.6 25.2-93.2.3z"/><path fill="#060029" d="M167 149h31v3h-31z"/><path fill="#005f7c" d="M96.8 142.1H72.1l50 30.9-3.1-27.7z"/><path fill="#f6000b" d="M43 96h26v3H43z"/><ellipse fill="#338dc9" cx="160" cy="122" rx="4" ry="17"/><path fill="#fff" d="M63.8 99.6l-27.4 5.8-.2-1 27.4-5.8z"/></g></svg>