<svg xmlns="http://www.w3.org/2000/svg" viewBox="0 0 440 272"><filter id="b"><feGaussianBlur stdDeviation="10" /></filter><path fill="#698797" d="M0 0h440v271H0z"/><g filter="url(#b)" transform="translate(.9 .9) scale(1.71875)" fill-opacity=".5"><ellipse fill="#bfe2ff" rx="1" ry="1" transform="matrix(-25.8366 -56.36494 33.19251 -15.2148 231 19.9)"/><ellipse fill="#b7d3ec" rx="1" ry="1" transform="matrix(38.97345 42.83126 -29.05278 26.436 40.9 15)"/><ellipse fill="#1a465c" rx="1" ry="1" transform="matrix(1.61502 -35.1239 193.97821 8.91925 138.2 153)"/><ellipse fill="#acb8be" cx="140" cy="22" rx="31" ry="72"/><ellipse fill="#10507d" rx="1" ry="1" transform="rotate(-17.8 356.1 -25.8) scale(48.69538 27.17924)"/><ellipse fill="#424a4f" rx="1" ry="1" transform="matrix(19.0819 -12.77422 19.5258 29.1673 185.6 86.1)"/><path fill="#a0abab" d="M128 117l-51 21L59 3z"/><path fill="#081721" d="M136.4 41l57.2 23.2L131.2 50l-10-66z"/><path fill="#fff" d="M152 76.7l8 12.3-41.8-.3-38.5-.3z"/><ellipse fill="#3e4241" cx="105" cy="57" rx="9" ry="29"/><ellipse fill="#2d566a" rx="1" ry="1" transform="rotate(113.8 82.5 130.8) scale(15.05158 28.90012)"/><path fill="#b4bebd" d="M222 62l-94-78 6 60z"/><ellipse fill="#091724" rx="1" ry="1" transform="matrix(-2.5161 .29907 -3.9249 -33.02083 131.2 49.1)"/><ellipse fill="#344447" cx="169" cy="126" rx="8" ry="57"/><path fill="#e8ede4" d="M180 117h42v5h-42z"/><ellipse fill="#455157" rx="1" ry="1" transform="matrix(-5.96852 -30.4218 9.28944 -1.82251 98.5 24.4)"/><path fill="#8fb5cc" d="M136.4 60.6l1.3-6.9 60 11.7-1.4 6.9z"/><ellipse fill="#a0c2df" rx="1" ry="1" transform="matrix(9.05855 22.69094 -35.89834 14.33113 27.5 16.1)"/><path fill="#acd0ef" d="M116.8 46.2L103.6-3.1l11.6-3L128.4 43z"/><ellipse fill="#293c4a" cx="67" cy="7" rx="2" ry="63"/><path fill="#585856" d="M7 44l-23 25 65 1z"/><ellipse fill="#fff" cx="122" cy="87" rx="41" ry="2"/><path fill="#1d2020" d="M201 60l-5 24 13 17z"/><path fill="#546367" d="M270 91l-84-8 48-12z"/><ellipse fill="#162a39" rx="1" ry="1" transform="matrix(36.80082 6.2244 -.4705 2.78181 161 54.8)"/><path fill="#475a61" d="M117 70l-11 15 51-13z"/><path fill="#b3c9d2" d="M74.3 123l-.6-15 24-1 .6 15z"/><ellipse fill="#84847a" rx="1" ry="1" transform="matrix(-10.1369 3.38757 -8.4521 -25.29185 185.5 27)"/><ellipse fill="#4e666b" rx="1" ry="1" transform="matrix(-1.2217 24.11657 -51.3208 -2.5998 114.8 146)"/><path fill="#d9e0e0" d="M196 70l-8 1-1 11z"/></g></svg>