<svg xmlns="http://www.w3.org/2000/svg" viewBox="0 0 440 272"><path fill="#698797" d="M0 0h440v271H0z"/><g transform="translate(.9 .9) scale(1.71875)" fill-opacity=".5"><ellipse fill="#bfd2de" cx="205" rx="77" ry="60"/><ellipse fill="#b7d2ec" rx="1" ry="1" transform="rotate(45.2 4.8 42.8) scale(71.44422 39.60171)"/><ellipse fill="#19465c" rx="1" ry="1" transform="rotate(-177.2 76.9 70.8) scale(203.43235 25.83218)"/><ellipse fill="#505b5b" cx="182" cy="83" rx="21" ry="78"/><ellipse fill="#11507d" cx="29" cy="105" rx="43" ry="30"/><path fill="#fefcf5" d="M136.4 79.2l19.6-1.3-8.3 17.6L80.3 88z"/><ellipse fill="#9dc5e4" rx="1" ry="1" transform="matrix(17.00542 -28.41398 48.48599 29.01826 246.4 42.5)"/><ellipse fill="#bbdaf3" rx="1" ry="1" transform="rotate(170.9 57.7 16.2) scale(8.4368 49.01262)"/><path fill="#a7b0af" d="M112 128.7l-33.1 7.7L62 63.3l33.1-7.7z"/><path fill="#355262" d="M271 145l-10-43-115-32z"/><ellipse fill="#3e4445" rx="1" ry="1" transform="rotate(-100.8 70 -20.4) scale(44.36432 8.36541)"/><path fill="#aab5b4" d="M138.2 46.9l5-25.5L213.7 35l-5 25.5z"/><path fill="#e2eeea" d="M180 120.8l1.9-5.2 23.4 3.2L241 124z"/><ellipse fill="#0b0e15" rx="1" ry="1" transform="matrix(-2.67779 .36205 -3.61222 -26.71657 130.6 33)"/><path fill="#fff" d="M145 77l12 12-44-2z"/><path fill="#9fbcd1" d="M136.3 46.7l-.3 23.5 64.8-4.3-64.7-13z"/><path fill="#5e5f5e" d="M49.3 74.6l-51-4.5 3.3-24.3L29 53.3z"/><path fill="#000512" d="M126.8 49.2l.8-4 63.6 13.6-.8 4z"/><ellipse fill="#43657a" cx="112" cy="92" rx="125" ry="4"/><ellipse fill="#48565d" cx="67" cy="10" rx="3" ry="59"/><ellipse fill="#a3c5e1" cx="33" cy="4" rx="33" ry="33"/><path fill="#3f595e" d="M43 133.5L197 144l10-12.3-47.1-20z"/><path fill="#3d3e41" d="M199 55.4l9.5 41.6-51.4 1.6 40.6-24.3z"/><path fill="#090100" d="M223.4 82.8l4.7.2-3.3-9-5.3-3.5z"/><path fill="#7c8580" d="M166.1-16l-8.7 23.7L205 60.3 187.3-1.4z"/><path fill="#abb8bb" d="M129.4 6.9l4.5 41.4 47.8-22.7L135-7.9z"/><ellipse fill="#899a9d" rx="1" ry="1" transform="matrix(15.497 -2.11816 .68524 5.0134 123 120.1)"/><ellipse fill="#366f9e" rx="1" ry="1" transform="matrix(28.50435 -8.49751 6.20378 20.81017 17.1 152.4)"/><ellipse fill="#9ba6a6" cx="80" cy="27" rx="9" ry="119"/><path fill="#17222c" d="M137.3 78l-7-18.4-4-53 7.6 44.6z"/></g></svg>