<svg xmlns="http://www.w3.org/2000/svg" viewBox="0 0 440 272"><filter id="b"><feGaussianBlur stdDeviation="10" /></filter><path fill="#6d595a" d="M0 0h440v271H0z"/><g filter="url(#b)" transform="translate(.9 .9) scale(1.71875)" fill-opacity=".5"><ellipse fill="#e1effb" cx="12" cy="72" rx="28" ry="54"/><path fill="#fff" d="M96.9 73l-2.3-21.8 78.5-8.3 2.3 22z"/><ellipse fill="#2a0000" cx="212" rx="44" ry="44"/><ellipse fill="#130903" rx="1" ry="1" transform="matrix(3.8064 -17.16958 59.83005 13.264 207 103)"/><ellipse fill="#000004" rx="1" ry="1" transform="matrix(-14.65263 10.94873 -26.55987 -35.54496 106.8 139.4)"/><ellipse fill="#3d71c1" rx="1" ry="1" transform="matrix(4.52626 51.76688 -26.4563 2.31322 49.7 126.3)"/><path fill="#f9f2e3" d="M96 53h55v35H96z"/><path fill="#fff" d="M228.3 34.9l24.7-4.4 4.7 26.6-24.7 4.4z"/><ellipse fill="#722c0d" rx="1" ry="1" transform="rotate(16.1 32.1 227.6) scale(124.39021 38.42362)"/><path fill="#d5c3b2" d="M164 72l30 39-9-41z"/><path fill="#dbdbdd" d="M17.8 74.3l-33.2-28.9 27.6-31.7 33.2 28.9z"/><path fill="#fffffa" d="M110 55l-38 5-10-13z"/><ellipse fill="#271827" rx="1" ry="1" transform="matrix(-16.54361 -1.70873 12.08937 -117.04733 208.7 147)"/><path fill="#98a0a8" d="M231 51h23v46h-23z"/><path fill="#100709" d="M147 138l-90 14 160 21z"/><path fill="#dba784" d="M131.6 121.9l24.1-.7 47.4 44.9-59.1-31.6z"/><ellipse fill="#25140d" cx="31" cy="15" rx="13" ry="17"/><ellipse fill="#511e0b" rx="1" ry="1" transform="matrix(-30.86828 6.33635 -1.71658 -8.36253 111.3 97.7)"/><ellipse fill="#483a6b" cx="207" cy="55" rx="26" ry="31"/><path fill="#0c0000" d="M152 64h13v38h-13z"/><path fill="#f9ffff" d="M28 42l15-14v19z"/><ellipse fill="#7d7f87" rx="1" ry="1" transform="matrix(-18.61413 25.7144 -22.80142 -16.50547 4.8 105)"/><path fill="#835335" d="M139 159l23-59 68 35z"/><ellipse fill="#170e11" rx="1" ry="1" transform="matrix(4.95012 -9.6734 5.99749 3.06907 44.3 56)"/><path fill="#fff1e5" d="M168.8 60.2L181.7 39l-27 14.5 13.9 19.1z"/><path d="M-16 11.4l22.7 8.4 13-12.5L7.3-16z"/><path fill="#fff3e1" d="M93.7 58l33-13.2-21.6 28.6 4.5-36.2z"/><path fill="#e5d8ce" d="M70.8 58.2l6 .8-3.6 24.8-6-.8z"/><ellipse fill="#fffffc" cx="118" cy="108" rx="5" ry="4"/><path fill="#b4b3ad" d="M262 135.2l-31.7-4.3-3.5-11.2L240 123z"/></g></svg>