<svg xmlns="http://www.w3.org/2000/svg" viewBox="0 0 440 272"><path fill="#6d595a" d="M0 0h440v271H0z"/><g transform="translate(.9 .9) scale(1.71875)" fill-opacity=".5"><ellipse fill="#eaf6ff" cx="11" cy="69" rx="28" ry="51"/><path fill="#fff" d="M95 50h56v39H95z"/><ellipse fill="#561300" cx="165" cy="9" rx="173" ry="26"/><path fill="#000007" d="M152 165l-68 8-9-91z"/><ellipse fill="#120801" rx="1" ry="1" transform="matrix(-57.39286 -12.26899 3.72865 -17.4422 208.1 104.2)"/><path fill="#f6e3d7" d="M43.6 58l133.3-14.1 13 54.2-32-36.2z"/><ellipse fill="#3d72c1" rx="1" ry="1" transform="rotate(-96.8 82 42.9) scale(51.25862 28.30857)"/><path fill="#e3e9ef" d="M227.3 34l28.2-7 9.2 37-28.2 7z"/><ellipse fill="#e1eaee" cx="22" cy="41" rx="25" ry="11"/><ellipse fill="#2b192b" cx="212" cy="102" rx="17" ry="187"/><path fill="#ffdcad" d="M166 126l-20 10-14-18z"/><path fill="#4b3b60" d="M190 17l-21 49 99 13z"/><ellipse fill="#8d4d32" rx="1" ry="1" transform="matrix(-4.15624 27.8922 -62.20955 -9.26989 115 21.8)"/><path fill="#faf0e0" d="M81 53L71 82l-2-39z"/><path fill="#b5bdc1" d="M229 76h23v21h-23z"/><path fill="#491e0f" d="M77 123l94-43-67 9z"/><path fill="#fffff5" d="M92 51h77v11H92z"/><ellipse fill="#6c5a58" rx="1" ry="1" transform="matrix(-.30597 -4.26845 117.97027 -8.45621 82.8 78.2)"/><path fill="#d5cccb" d="M1.8 73.6L12 8l7.1 8.7 24.1 61.4z"/><ellipse fill="#381308" cx="223" cy="13" rx="50" ry="19"/><path fill="#3c0200" d="M122 141l36-1 39 27z"/><path fill="#9aa3c4" d="M82 147l-7-13 26 5z"/><path d="M149.5 88.7l11-19.8 8.8 13.7-.8 21.8z"/><path fill="#b3b0ad" d="M206.6 139.3l46-10.5-22-9v21z"/><path fill="#ac9c90" d="M165 70l33 52-12-50z"/><ellipse fill="#522623" rx="1" ry="1" transform="rotate(-165.3 29.6 26.3) scale(18.07795 12.13798)"/><path fill="#e9d3af" d="M126.5 106.7l-18.5 8.5 19.3-21-1.5 27.1z"/><ellipse fill="#000016" rx="1" ry="1" transform="matrix(33.17542 -.70755 .28995 13.59514 107 157)"/><path fill="#898c8d" d="M26.2 124.4L-16 153.5l1.3-62.7 24.5-21z"/><ellipse fill="#392418" cx="32" cy="3" rx="16" ry="31"/></g></svg>