<svg xmlns="http://www.w3.org/2000/svg" viewBox="0 0 440 272"><filter id="b"><feGaussianBlur stdDeviation="10" /></filter><path fill="#84634d" d="M0 0h440v271H0z"/><g filter="url(#b)" transform="translate(.9 .9) scale(1.71875)" fill-opacity=".5"><ellipse fill="#fff" rx="1" ry="1" transform="rotate(-30.1 272 -100.1) scale(37.57408 19.1289)"/><ellipse rx="1" ry="1" transform="matrix(2.01504 25.60355 -128.43707 10.10822 137.3 10)"/><ellipse fill="#fffff7" rx="1" ry="1" transform="matrix(-16.63343 63.85673 -17.2092 -4.48266 234.1 82.7)"/><ellipse rx="1" ry="1" transform="matrix(-10.2665 44.82586 -16.52766 -3.78534 40.3 114.3)"/><ellipse fill="#ffcd83" rx="1" ry="1" transform="matrix(15.78158 -35.28016 20.32355 9.09116 6.1 72.4)"/><path fill="#d5a8af" d="M158.6 52.8l36.7-15.2L240.5 173l-80-94z"/><path d="M185 7l30 94 2-89z"/><ellipse rx="1" ry="1" transform="rotate(-94.1 132.8 -8) scale(42.89231 9.0518)"/><ellipse fill="#ecd8d1" cx="97" cy="128" rx="25" ry="33"/><path fill="#331800" d="M238 98h18v60h-18z"/><ellipse fill="#fff7c6" rx="1" ry="1" transform="matrix(8.13573 -.91356 5.58753 49.76012 242.5 61.8)"/><ellipse fill="#200a00" rx="1" ry="1" transform="rotate(-91.4 66.2 -64.6) scale(26.71062 97.26664)"/><ellipse fill="#3d1900" rx="1" ry="1" transform="matrix(-25.04338 -19.64151 11.94043 -15.22433 21 154.6)"/><path fill="#ede4d7" d="M183 43h19v37h-19z"/><ellipse fill="#ffd8c6" cx="126" cy="75" rx="7" ry="17"/><path fill="#2f1500" d="M89 88l6.3 6 29.9-53.8-12.4-10z"/><ellipse fill="#f0dfff" cx="230" cy="125" rx="6" ry="35"/><path fill="#291100" d="M65.8 30.7L-12 36.2l-1.8-25L64 5.9z"/><ellipse fill="#221309" cx="41" cy="98" rx="19" ry="32"/><path fill="#ca8150" d="M66.7 59l31-12.5-27.3 85-12.6.8z"/><ellipse fill="#a8795e" cx="104" cy="155" rx="34" ry="29"/><path fill="#905f23" d="M251 44L234-4l18 17z"/><path fill="#96582a" d="M166.7 66.2l16.4 28.4-4.7-75.2-24.2 5z"/><ellipse fill="#c68857" rx="1" ry="1" transform="matrix(-33.89145 5.30726 -2.50953 -16.02555 42.5 47.1)"/><path fill="#ffcf7b" d="M34 124l-50-4v-19z"/><path fill="#f6f8ff" d="M82 98.8l-21.4 53.5 56-40-18.8-12.7z"/><path fill="#140800" d="M218 55l-1-49-55 12z"/><path fill="#2d1600" d="M182 173l-38-63-11 33z"/><path fill="#c2aecc" d="M228 173l6-48-41-22z"/><path fill="#91584c" d="M225 60.1L191.8 102l-26.6-33.2 53.8 44.5z"/></g></svg>