<svg xmlns="http://www.w3.org/2000/svg" viewBox="0 0 440 272"><filter id="b"><feGaussianBlur stdDeviation="10" /></filter><path fill="#7fa9c1" d="M0 0h440v271H0z"/><g filter="url(#b)" transform="translate(.9 .9) scale(1.71875)" fill-opacity=".5"><ellipse fill="#181703" cx="119" cy="153" rx="255" ry="29"/><ellipse fill="#e1f1ff" cx="111" cy="33" rx="255" ry="40"/><ellipse fill="#42b7f1" rx="1" ry="1" transform="matrix(61.1529 -1.95762 1.08398 33.86173 121.3 110.7)"/><ellipse fill="#1a1716" rx="1" ry="1" transform="rotate(-79.2 101.4 50) scale(16.85449 58.47579)"/><ellipse fill="#2e93cb" cx="214" cy="103" rx="88" ry="26"/><path fill="#b10000" d="M142 16l34 9 6 15z"/><ellipse fill="#473e20" rx="1" ry="1" transform="rotate(-17.1 592 -780.6) scale(48.38591 28.75635)"/><path fill="#fe2900" d="M114 17h42v5h-42z"/><ellipse fill="#4eb3e5" cx="31" cy="99" rx="60" ry="23"/><path fill="#dda974" d="M200.4 165.8l-17.3-10 12.5-21.6 17.3 10z"/><ellipse fill="#5eaacf" cx="109" cy="117" rx="34" ry="34"/><ellipse fill="#dae2ea" cx="40" cy="52" rx="126" ry="19"/><ellipse fill="#89c5ee" rx="1" ry="1" transform="matrix(20.39048 -30.34424 68.16844 45.80729 215.5 15)"/><path fill="#fb6118" d="M79.1 47.3l19.3-19.5 9.6-5.6 19.6-6.6z"/><ellipse fill="#5faed7" rx="1" ry="1" transform="rotate(-44.7 208.7 -137.7) scale(49.87732 21.71767)"/><ellipse fill="#47a3d0" cx="175" cy="112" rx="72" ry="17"/><ellipse fill="#6fb6e6" cx="232" cy="82" rx="255" ry="13"/><path fill="#1a2931" d="M58 118.9l70 62.9-12 13.3-70-62.9z"/><path fill="#393b2a" d="M156 130h31v28h-31z"/><path fill="#5d0300" d="M185 41l-1 7-10-18z"/><path fill="#a39783" d="M181.8 160.6l-77.2-4.3L90 147l86 11.9z"/><path fill="#4c4b43" d="M-16 150.9l89.5-16.5-24.9-20 5.6 58.6z"/><ellipse cx="135" cy="103" rx="2" ry="8"/><ellipse fill="#a5defa" rx="1" ry="1" transform="matrix(-92.29617 4.27778 -.6703 -14.46235 58.9 9.4)"/><ellipse fill="#99c7e3" cx="30" cy="75" rx="144" ry="6"/><ellipse fill="#434637" cx="237" cy="132" rx="34" ry="11"/><ellipse fill="#449ed8" rx="1" ry="1" transform="rotate(-10.2 643.3 -1233.7) scale(49.83719 21.2318)"/><path fill="#54a7cf" d="M101 142L-1 92l231 27z"/><path fill="#081927" d="M6 111l-13 57 17 5z"/><path fill="#e8823e" d="M82.8 53l17-25.5-17 15.4.6 6.5z"/></g></svg>