<svg xmlns="http://www.w3.org/2000/svg" viewBox="0 0 440 272"><path fill="#7fa9c1" d="M0 0h440v271H0z"/><g transform="translate(.9 .9) scale(1.71875)" fill-opacity=".5"><ellipse fill="#191b09" rx="1" ry="1" transform="rotate(88.6 -35.7 116.7) scale(25.54624 208.88971)"/><ellipse fill="#e1f1ff" cx="109" cy="27" rx="255" ry="46"/><path fill="#42b4ee" d="M-9 73l117 82 163-69z"/><ellipse fill="#1f1e1d" cx="38" cy="142" rx="43" ry="23"/><ellipse fill="#3c3a20" rx="1" ry="1" transform="matrix(-8.16538 -22.93942 41.32493 -14.70977 249 136.5)"/><path fill="#b80600" d="M172.8 22.3L149 17.4 138.8 16l44.5 26.3z"/><ellipse fill="#3e9ed8" rx="1" ry="1" transform="matrix(-6.2003 -24.37907 76.86252 -19.54838 209.5 99.4)"/><ellipse fill="#fe3200" cx="134" cy="19" rx="23" ry="3"/><path fill="#e4af77" d="M185.6 152.6l8.8-18 18 8.8-8.8 18z"/><ellipse fill="#cdddea" rx="1" ry="1" transform="matrix(-145.77307 -1.80961 .29294 -23.59734 33.3 56.4)"/><ellipse fill="#83c6f2" cx="236" cy="14" rx="72" ry="30"/><path fill="#252d2e" d="M67.6 173h53.3l-38-34-98.9-23z"/><ellipse fill="#5aadd5" rx="1" ry="1" transform="matrix(-4.51604 21.06544 -132.03064 -28.30492 34.8 101.2)"/><path fill="#f86312" d="M95 27l26-9-39 29z"/><path fill="#393a28" d="M156 130h31v28h-31z"/><path fill="#928571" d="M150.5 173l-50.4-19.8-13.7-11.4 76.4 11.4z"/><path fill="#17283d" d="M127.7 96l12.4 1.6-4.1 10.6L125.6 91z"/><ellipse fill="#73b7e2" rx="1" ry="1" transform="rotate(179 46.4 40.3) scale(137.68436 9.26268)"/><path fill="#9a2b24" d="M158.6 25L192 49.8l-16.2-18.5L154.1 17z"/><ellipse fill="#50a3cf" cx="192" cy="103" rx="51" ry="27"/><ellipse fill="#5baacf" cx="118" cy="127" rx="46" ry="17"/><path fill="#1e2f38" d="M88.1 173l-44-61-4-2.3 49.5 33.5z"/><path fill="#484a3d" d="M271 120l-75 48 22-45z"/><ellipse fill="#a5defa" rx="1" ry="1" transform="matrix(95.82547 -5.52964 1.00778 17.4642 65 6.7)"/><ellipse fill="#9dc0e2" cx="237" cy="49" rx="56" ry="24"/><path fill="#575246" d="M52 171.5l-68-9 88.7-30L58 118.3z"/><path fill="#606054" d="M-8 115.3l59.7 13 9.6 7.2-77.3-10z"/><ellipse fill="#aed3e9" cx="135" cy="34" rx="31" ry="14"/><path fill="#3d4637" d="M130.6 143.5l58.1 19.2-25.2-24.8-68 21.5z"/><path fill="#3899cd" d="M240.2 120.2l-36.9 6.6-5.7-22.2L271 93.2z"/></g></svg>