<svg xmlns="http://www.w3.org/2000/svg" viewBox="0 0 440 272"><path fill="#826d48" d="M0 0h440v271H0z"/><g transform="translate(.9 .9) scale(1.71875)" fill-opacity=".5"><ellipse fill="#fff" rx="1" ry="1" transform="matrix(1.13699 73.92816 -20.54118 .31592 255 52.4)"/><ellipse fill="#fff8ad" rx="1" ry="1" transform="matrix(-23.70704 -1.15947 3.9433 -80.62662 .1 45)"/><ellipse fill="#323901" cx="106" cy="23" rx="68" ry="68"/><ellipse fill="#e9fbff" cx="208" cy="93" rx="66" ry="8"/><ellipse fill="#d5d2e5" cx="72" cy="94" rx="53" ry="8"/><ellipse fill="#0b2400" rx="1" ry="1" transform="rotate(64.6 53 183.6) scale(30.5794 15.75414)"/><ellipse fill="#360616" cx="172" cy="110" rx="81" ry="10"/><ellipse fill="#beeaa2" rx="1" ry="1" transform="matrix(-16.3367 -24.39388 19.44762 -13.02417 225 34)"/><path fill="#fff" d="M149.4 125l-33.9 3-1-11 34-3z"/><ellipse fill="#ffcf9d" cx="7" cy="37" rx="12" ry="58"/><path fill="#3a1503" d="M118 76h29v28h-29z"/><path fill="#f4efee" d="M241 0h15v81h-15z"/><path fill="#060002" d="M178 104h40v21h-40z"/><ellipse fill="#401e10" cx="56" cy="12" rx="18" ry="77"/><ellipse fill="#d77e30" rx="1" ry="1" transform="matrix(-12.51173 -.44412 1.61123 -45.3911 29.1 45.2)"/><ellipse fill="#c1cba3" cx="171" cy="108" rx="4" ry="26"/><ellipse fill="#849044" rx="1" ry="1" transform="matrix(13.81546 8.36694 -20.94393 34.58253 125.6 30.9)"/><ellipse fill="#dcd0d4" rx="1" ry="1" transform="matrix(3.78647 .49178 -2.54742 19.61402 225.2 107.8)"/><ellipse fill="#a33900" cx="76" cy="110" rx="39" ry="11"/><ellipse fill="#eef0d8" cx="199" cy="114" rx="3" ry="14"/><path fill="#a90000" d="M233 101h16v20h-16z"/><path fill="#330600" d="M12 103h20v20H12z"/><path fill="#260000" d="M95 102h18v21H95z"/><ellipse fill="#893c1b" cx="126" cy="151" rx="255" ry="6"/><path fill="#d1ffa3" d="M208 12l-28-3-3-18z"/><path fill="#d4bce8" d="M117 86l2 31-20-30z"/><path fill="#070000" d="M148 99h20v25h-20z"/><path fill="#acd986" d="M83 7L70 25l25-2z"/><path fill="#4d5f18" d="M143.3 87l60-8.8-5.1 20.6L171.6-16z"/><path fill="#e6dee1" d="M38.9 96.4l-4.2 2.3-1.9 22.2 5.5 7z"/></g></svg>