<svg xmlns="http://www.w3.org/2000/svg" viewBox="0 0 440 272"><filter id="b"><feGaussianBlur stdDeviation="10" /></filter><path fill="#826d48" d="M0 0h440v271H0z"/><g filter="url(#b)" transform="translate(.9 .9) scale(1.71875)" fill-opacity=".5"><ellipse fill="#ebffe0" rx="1" ry="1" transform="matrix(-27.57231 6.39348 -23.97353 -103.3875 243.6 30.4)"/><ellipse fill="#fffdb4" rx="1" ry="1" transform="matrix(22.64324 .55339 -2.49645 102.1482 0 26.8)"/><ellipse fill="#313800" cx="103" cy="24" rx="66" ry="66"/><ellipse fill="#c9c9d9" cx="177" cy="94" rx="212" ry="8"/><path fill="#280300" d="M178 126l-61-21 5-41z"/><ellipse fill="#0b2400" rx="1" ry="1" transform="rotate(77.1 61 150.6) scale(32.17397 14.38244)"/><path fill="#2c0000" d="M175 103h73v20h-73z"/><ellipse fill="#f8eef5" rx="1" ry="1" transform="matrix(3.74981 -60.69886 10.46523 .64651 249.8 41.4)"/><ellipse fill="#7a9d4e" rx="1" ry="1" transform="rotate(-97 127.6 -78.8) scale(55.31143 16.28438)"/><ellipse fill="#ffae6b" rx="1" ry="1" transform="matrix(33.61977 7.65173 -14.8145 65.09118 0 43)"/><path fill="#feffff" d="M119 116h29v9h-29z"/><path fill="#2a0000" d="M95 102h18v23H95z"/><path fill="#dccdc9" d="M221 87h9v45h-9z"/><ellipse fill="#7d893f" rx="1" ry="1" transform="matrix(17.33717 8.30658 -18.78568 39.20873 125 29.2)"/><ellipse fill="#3c3b05" rx="1" ry="1" transform="matrix(-34.27397 38.91305 -7.23728 -6.37448 159 64)"/><path d="M150 100h18v24h-18z"/><ellipse fill="#3d1d0f" rx="1" ry="1" transform="rotate(5.4 29.2 623.1) scale(18.26783 80.00555)"/><ellipse fill="#ebf1e9" cx="207" cy="96" rx="62" ry="4"/><path fill="#cbcec8" d="M166.9 125l2.3-28 8 29-8-.6z"/><path fill="#b4db8b" d="M178.3 10.6L176-15.6l-3-.4 78.7 65.6z"/><path fill="#923d00" d="M11 102h74v18H11z"/><path fill="#d0dbde" d="M32 95h8v29h-8z"/><ellipse fill="#8c3e1d" cx="140" cy="153" rx="255" ry="8"/><path fill="#ffe0bf" d="M-14.9-30l33 1.1-3.2 93-33-1.2z"/><path fill="#47600a" d="M202.6 8l.9-18 38 2-1 18z"/><path fill="#bcef99" d="M77 13.4l15.3 4.7L89 28.6l-15.3-4.7z"/><ellipse fill="#b66f2a" rx="1" ry="1" transform="matrix(3.8073 45.34003 -10.8287 .90931 29.7 42.7)"/><path fill="#fffffa" d="M67 88h22v12H67z"/><path fill="#a3c854" d="M134 44l29 10 20 3.8-10.5 10.9z"/><path fill="#b70400" d="M246 126.2v-23.5l-18.5-4 4.6 23.6z"/></g></svg>