<svg xmlns="http://www.w3.org/2000/svg" viewBox="0 0 440 272"><filter id="b"><feGaussianBlur stdDeviation="10" /></filter><path fill="#8b959c" d="M0 0h440v271H0z"/><g filter="url(#b)" transform="translate(.9 .9) scale(1.71875)" fill-opacity=".5"><ellipse fill="#e0ffff" cx="77" cy="27" rx="255" ry="33"/><ellipse fill="#3d3832" rx="1" ry="1" transform="matrix(-235.2255 59.40364 -11.50605 -45.56145 139.1 142.5)"/><ellipse fill="#553919" rx="1" ry="1" transform="matrix(-26.77925 -1.6848 3.12321 -49.64206 8.7 104.9)"/><ellipse fill="#2e0500" rx="1" ry="1" transform="matrix(-32.4955 -.94052 .6015 -20.7821 216 92.2)"/><ellipse fill="#92a4ac" rx="1" ry="1" transform="matrix(-78.22374 7.2566 -1.61753 -17.43646 119.9 117.9)"/><ellipse fill="#d5e5f6" rx="1" ry="1" transform="rotate(-61.2 37.6 -63.5) scale(64.77011 92.92121)"/><ellipse fill="#7ec3ff" rx="1" ry="1" transform="matrix(203.35728 50.32584 -8.89959 35.96156 244.8 20.8)"/><path fill="#170000" d="M127 86.9l3.5-17.7 30.4 6-3.4 17.6z"/><path fill="#fff4bb" d="M185 88l-39-41 37 79z"/><ellipse fill="#38260c" rx="1" ry="1" transform="matrix(.0898 -17.14971 41.13106 .21536 214.3 157)"/><path fill="#250000" d="M157 38h8v17h-8z"/><ellipse fill="#170000" rx="1" ry="1" transform="matrix(-2.42949 3.05428 -20.56998 -16.3621 187 80.8)"/><path fill="#95c2e1" d="M223.3 119.9l-5.9-19.1 15.3-4.7 5.9 19.1z"/><ellipse fill="#a7b2b7" rx="1" ry="1" transform="matrix(61.73846 42.48112 -8.47514 12.31705 96.8 82.2)"/><path fill="#1f0000" d="M145 103l-5-21 25 19z"/><path fill="#fff" d="M184 79l14-5 7-34z"/><path fill="#623a19" d="M140.2 83.6l54.2-29-6.6-12.5-16.8 32z"/><ellipse fill="#f0ebe0" cx="26" cy="26" rx="88" ry="20"/><path fill="#210500" d="M243 121l-1-45-23 1z"/><path fill="#3c1700" d="M199.1 125.7l24.7.9-18.7-55.3-11.4 7z"/><path fill="#875b2e" d="M214 46h7v61h-7z"/><ellipse fill="#4f6e90" rx="1" ry="1" transform="matrix(-49.0518 20.09714 -8.13585 -19.85745 99.3 143.7)"/><ellipse fill="#72a1ca" cx="252" cy="84" rx="5" ry="47"/><path fill="#fff" d="M185 89l-2 23-7-35z"/><path fill="#8f632c" d="M171 78l-4 38 16 9z"/><path fill="#fffff8" d="M173 53l-13 1-7 21z"/><ellipse fill="#3b230d" cx="187" cy="104" rx="2" ry="52"/><path fill="#6f9ec2" d="M214.8 79.4l41.4-24.6 2.1 28.6L201 67.6z"/><ellipse fill="#584b42" rx="1" ry="1" transform="matrix(-57.47374 -95.89849 19.71613 -11.81625 0 117.6)"/><ellipse fill="#7f8185" cx="52" cy="114" rx="30" ry="28"/></g></svg>