<svg xmlns="http://www.w3.org/2000/svg" viewBox="0 0 440 272"><filter id="b"><feGaussianBlur stdDeviation="10" /></filter><path fill="#84634d" d="M0 0h440v271H0z"/><g filter="url(#b)" transform="translate(.9 .9) scale(1.71875)" fill-opacity=".5"><ellipse fill="#fffffa" rx="1" ry="1" transform="matrix(-30.82324 20.26048 -14.29404 -21.74621 88.5 126.1)"/><ellipse cx="119" cy="15" rx="120" ry="20"/><ellipse fill="#fffaf1" rx="1" ry="1" transform="matrix(-17.38396 -3.8715 15.7825 -70.86713 232.7 87.9)"/><path fill="#090000" d="M64.8 75.7l-18.3 86-35.3-7.4 18.3-86z"/><path fill="#ffc77f" d="M44 40l-47-4 4 95z"/><ellipse fill="#e6c1c5" cx="190" cy="78" rx="13" ry="41"/><ellipse cx="148" cy="122" rx="11" ry="34"/><path d="M202 0h15v77h-15z"/><ellipse fill="#fff" rx="1" ry="1" transform="matrix(7.88484 12.09533 -23.07856 15.04473 94.8 114.5)"/><ellipse fill="#301600" rx="1" ry="1" transform="rotate(-82.3 197.4 -78) scale(33.36971 11.80133)"/><ellipse fill="#fffff7" rx="1" ry="1" transform="matrix(4.92287 35.05923 -5.92517 .83199 243.4 50.3)"/><path fill="#d3b6de" d="M236.4 110.6l-46.3-8 39.6 70.4 5.2-18.3z"/><ellipse fill="#020000" rx="1" ry="1" transform="matrix(-8.91216 10.99265 -18.12604 -14.69547 190.1 24.1)"/><ellipse fill="#af7f67" rx="1" ry="1" transform="rotate(61.1 -78.4 161.3) scale(25.37745 35.63488)"/><ellipse fill="#1d0800" cx="119" cy="8" rx="89" ry="17"/><ellipse fill="#120000" rx="1" ry="1" transform="matrix(8.12 2.9042 -8.63177 24.134 255 3.2)"/><path fill="#b07763" d="M157 128l76 34L159 2z"/><ellipse fill="#3d1a00" rx="1" ry="1" transform="matrix(14.67493 -31.33039 8.29828 3.88686 106.8 65.3)"/><ellipse fill="#fbb395" cx="122" cy="75" rx="11" ry="18"/><path fill="#fdb65c" d="M33.2-11l2.4 18.8L8.8 11 6.4-7.8z"/><ellipse fill="#492200" rx="1" ry="1" transform="matrix(-9.6784 13.87366 -69.36515 -48.3898 8.2 148)"/><ellipse fill="#e8dae8" rx="1" ry="1" transform="matrix(-32.1639 -30.09426 2.11308 -2.2584 191 100.7)"/><ellipse fill="#c88050" rx="1" ry="1" transform="matrix(-7.92056 -2.8109 19.73866 -55.61961 73.5 96.3)"/><ellipse fill="#2c1200" rx="1" ry="1" transform="matrix(44.59152 -2.37597 .68648 12.88363 18 22.6)"/><path fill="#d7a26c" d="M32 138.3L3 34.5-16 117l39 9.3z"/><path fill="#eaded2" d="M183 48h19v32h-19z"/><path fill="#541d00" d="M79 139l6 34-24-18z"/><path fill="#ffefb2" d="M242 86l-4-73-13 23z"/><path fill="#ffffc8" d="M132 152h17v6h-17z"/><ellipse fill="#1d140b" rx="1" ry="1" transform="matrix(9.42495 20.15651 -16.59948 7.76172 43.2 105.3)"/></g></svg>