<svg xmlns="http://www.w3.org/2000/svg" viewBox="0 0 440 272"><path fill="#84634d" d="M0 0h440v271H0z"/><g transform="translate(.9 .9) scale(1.71875)" fill-opacity=".5"><ellipse fill="#fae5dc" rx="1" ry="1" transform="rotate(-166.3 121.6 30) scale(16.91057 110.16254)"/><ellipse fill="#fffffb" rx="1" ry="1" transform="matrix(-31.40808 21.75061 -14.14367 -20.42359 86.8 125.3)"/><ellipse rx="1" ry="1" transform="matrix(-143.64745 4.50701 -.61441 -19.58245 139.9 15)"/><ellipse fill="#040000" rx="1" ry="1" transform="matrix(-6.95427 45.98297 -17.8082 -2.69324 41.1 108.2)"/><ellipse fill="#ffd387" rx="1" ry="1" transform="matrix(-9.16855 30.3677 -18.92082 -5.71253 9.7 67)"/><path fill="#e9b7b1" d="M213 127l-17-91-49 32z"/><ellipse rx="1" ry="1" transform="matrix(-2.9232 -40.0473 8.97465 -.6551 149 119.3)"/><ellipse rx="1" ry="1" transform="matrix(-9.70808 1.64649 -6.62479 -39.0613 205.6 41)"/><ellipse fill="#ffffda" cx="238" cy="47" rx="10" ry="34"/><path fill="#1f0900" d="M275.2 111.4l-3.5 49.8-36.9-2.6 3.5-49.8z"/><ellipse fill="#fffdff" rx="1" ry="1" transform="matrix(23.17753 -14.16824 7.90911 12.93836 95 115.6)"/><ellipse fill="#351300" rx="1" ry="1" transform="matrix(33.03256 13.81782 -10.13438 24.227 12.6 157)"/><ellipse fill="#b6866c" cx="103" cy="153" rx="34" ry="26"/><ellipse fill="#5f2a3a" rx="1" ry="1" transform="matrix(-9.79793 22.21488 -13.39606 -5.90837 208.3 157)"/><ellipse fill="#180400" cx="110" cy="8" rx="81" ry="17"/><ellipse fill="#321200" rx="1" ry="1" transform="matrix(6.57133 2.99063 -15.13587 33.25813 106.7 65.6)"/><path fill="#e9e0d7" d="M183 45h19v37h-19z"/><path fill="#d8c6eb" d="M196 111l43-9-8 71z"/><path fill="#f9bca2" d="M129.2 90.3l-22.7 17.5 15.7-48.1 12.8 4z"/><ellipse fill="#be7646" rx="1" ry="1" transform="matrix(4.79344 -43.57045 9.55026 1.05068 70.9 86.4)"/><path fill="#b0744d" d="M122 37l52-15 18 130z"/><path fill="#0d0000" d="M178 9h40v30h-40z"/><path fill="#e5ab73" d="M6 39l23 85-45-5z"/><path fill="#612b00" d="M81.3 140.2L77.9 173l-17.1-19.7L89 135z"/><ellipse fill="#c38b5d" cx="35" cy="52" rx="74" ry="17"/><ellipse fill="#ffffe2" cx="242" cy="68" rx="9" ry="26"/><ellipse fill="#412000" rx="1" ry="1" transform="matrix(-22.64736 -215.47524 1.07211 -.11268 247.6 15.8)"/><path fill="#2a1500" d="M130.3 147.5L152.5 98l16.2 63.8-26-10.8z"/><path fill="#54201d" d="M187.8 83l21.5 18-5.1 6-21.5-18z"/><path fill="#e8deec" d="M207 117.2l-50.6-45.5 2.7-3 50.5 45.6z"/></g></svg>