<svg xmlns="http://www.w3.org/2000/svg" viewBox="0 0 440 272"><filter id="b"><feGaussianBlur stdDeviation="10" /></filter><path fill="#616a72" d="M0 0h440v271H0z"/><g filter="url(#b)" transform="translate(.9 .9) scale(1.71875)" fill-opacity=".5"><ellipse fill="#91c7f1" cx="76" cy="6" rx="186" ry="23"/><ellipse fill="#e03b00" rx="1" ry="1" transform="matrix(-.5772 13.12847 -86.2617 -3.79257 209 117)"/><ellipse fill="#215274" cx="61" cy="157" rx="85" ry="85"/><ellipse fill="#472e22" cx="179" cy="144" rx="34" ry="29"/><path fill="#3b3115" d="M0 50h161v13H0z"/><ellipse fill="#ff9208" cx="231" cy="112" rx="103" ry="5"/><path fill="#443631" d="M209 109.2L206.4 66l-25 26.9-61 13.9z"/><ellipse fill="#77746f" cx="208" cy="41" rx="124" ry="26"/><path fill="#d8796b" d="M160 75l-20 25 26 5z"/><path fill="#4c1d09" d="M121 102h17v28h-17z"/><ellipse fill="#8e2000" cx="223" cy="123" rx="38" ry="6"/><path fill="#bdb18f" d="M36 62h45v11H36z"/><ellipse fill="#85b6d9" rx="1" ry="1" transform="matrix(-43.42922 3.84166 -.39517 -4.46731 0 32.3)"/><path fill="#453919" d="M88 57h58v12H88z"/><ellipse fill="#777d8e" rx="1" ry="1" transform="rotate(-98.7 114.2 -75.3) scale(10.93253 87.39717)"/><ellipse fill="#bba97f" cx="134" cy="71" rx="161" ry="2"/><path fill="#fdf3d2" d="M163.8 57.6l2.3 6.1 10.1-6 3.8-2.6z"/><ellipse fill="#476c89" cx="21" cy="91" rx="128" ry="20"/><path fill="#525646" d="M267.8 40.7l-36.6 32.5-41.4-28.1 32.5-4.9z"/><ellipse fill="#204564" cx="40" cy="157" rx="220" ry="7"/><path fill="#ddbf97" d="M199 68.1l2.8-13.3-9 2.7-6.4 9z"/><path fill="#373831" d="M0 45h34v21H0z"/><path fill="#4a3627" d="M151.6 68l26 41.2-12.2-27.1-.2-36.3z"/><path fill="#dda050" d="M192.5 100.9l9.3-22.1.6 33.5L271 116z"/><path fill="#31271c" d="M202.5 82l-2.7-23.5 14 47.7L192.2 84z"/><ellipse fill="#80a7c6" cx="142" rx="95" ry="21"/><path fill="#8d594b" d="M121 112l22 20 52-7z"/><ellipse fill="#a65535" cx="222" cy="138" rx="35" ry="3"/><ellipse fill="#5a503b" cx="175" cy="68" rx="138" ry="2"/><path fill="#030000" d="M158 107.6l-38.5-4.1 4.4 9.9 14.2-5.6z"/></g></svg>