<svg xmlns="http://www.w3.org/2000/svg" viewBox="0 0 440 272"><path fill="#616a72" d="M0 0h440v271H0z"/><g transform="translate(.9 .9) scale(1.71875)" fill-opacity=".5"><ellipse fill="#91c7f2" cx="54" cy="7" rx="208" ry="22"/><ellipse fill="#e63e00" rx="1" ry="1" transform="rotate(.9 -7331 12870.6) scale(77.70119 13.32348)"/><ellipse fill="#264863" rx="1" ry="1" transform="rotate(103.7 -7.7 117.4) scale(42.58559 228.45873)"/><path fill="#3f3517" d="M0 50h165v14H0z"/><ellipse fill="#653b12" cx="197" cy="133" rx="14" ry="67"/><ellipse fill="#ff990e" cx="255" cy="112" rx="121" ry="5"/><path fill="#396686" d="M50 161l110-84-176-6z"/><ellipse fill="#79746c" cx="193" cy="44" rx="85" ry="30"/><path fill="#35121d" d="M121 102h80v7h-80z"/><ellipse fill="#b5a889" cx="57" cy="66" rx="26" ry="7"/><path fill="#bf5128" d="M148 88h15v52h-15z"/><path fill="#8a2e01" d="M152 117h104v13H152z"/><ellipse fill="#747d8f" cx="203" cy="29" rx="104" ry="13"/><path fill="#010000" d="M122 101.1l-3.8 1.9 25.6 3.3-23 7.9z"/><ellipse fill="#b9aa81" cx="141" cy="71" rx="200" ry="2"/><path fill="#8fc6ec" d="M-16 27l49 2-38 9z"/><path fill="#3f381b" d="M85 59h59v11H85z"/><path fill="#f7edcd" d="M166.8 66.2L164 54.4l17.3 4.2-5.2-2.8z"/><path fill="#5b5946" d="M252 70.9L201 69l1-30 51 1.8z"/><path fill="#d6bd99" d="M190 55l-1 12 22-13z"/><ellipse fill="#81a9c8" cx="147" rx="86" ry="21"/><ellipse fill="#3d2e2d" rx="1" ry="1" transform="matrix(-8.968 -24.22518 3.51543 -1.30139 164 80.6)"/><path fill="#564649" d="M148 122h43v30h-43z"/><ellipse fill="#373831" cx="5" cy="56" rx="35" ry="12"/><path fill="#e6f469" d="M195 91h6v12h-6z"/><ellipse fill="#9f5a43" cx="240" cy="150" rx="37" ry="3"/><ellipse fill="#fe8423" cx="220" cy="113" rx="39" ry="5"/><path fill="#eee8d5" d="M242 61h14v4h-14z"/><path fill="#cb706e" d="M168 92l-23.8-3.5 17.2 15-37.4-.2z"/><path fill="#3d698a" d="M260.8 73l.4 27-52 1-.4-27z"/></g></svg>