<svg xmlns="http://www.w3.org/2000/svg" viewBox="0 0 440 272"><filter id="b"><feGaussianBlur stdDeviation="10" /></filter><path fill="#4d5448" d="M0 0h440v271H0z"/><g filter="url(#b)" transform="translate(.9 .9) scale(1.71875)" fill-opacity=".5"><ellipse fill="#dcd8dc" cx="175" cy="22" rx="9" ry="46"/><path fill="#f1e7da" d="M173.7 28.7L85.7-16 119 29.3l9.5-14.6z"/><ellipse fill="#28231d" rx="1" ry="1" transform="rotate(-85.1 17.2 10.2) scale(23.22679 147.07452)"/><ellipse fill="#838d9a" rx="1" ry="1" transform="matrix(-3.7668 -7.43068 107.84214 -54.6679 179.5 136.7)"/><path fill="#e4cec8" d="M241 9l-24 3-4 31z"/><ellipse fill="#181b29" rx="1" ry="1" transform="matrix(-60.71724 17.52513 -4.15395 -14.3917 110.2 136.8)"/><ellipse fill="#9397bd" rx="1" ry="1" transform="rotate(-86.7 92.3 -29.8) scale(12.44097 21.25931)"/><ellipse fill="#021b49" rx="1" ry="1" transform="matrix(-2.23384 41.7474 -12.64782 -.67676 78.8 90.7)"/><ellipse fill="#fffffd" cx="75" rx="15" ry="5"/><path fill="#e4daca" d="M146.8 39.1l3.9-21L200-14l-33.3 28.4z"/><path fill="#ad9da2" d="M267 48l-37 9-47-22z"/><path fill="#fff" d="M114.9 12.7l-8.4-.1 1.3-27 15.8 21z"/><path fill="#b2d1ff" d="M221 73h17v8h-17z"/><ellipse fill="#506224" rx="1" ry="1" transform="matrix(28.16643 37.3124 -37.09091 27.99923 23.3 114.8)"/><path fill="#363632" d="M221 114L157 5l63 58z"/><path fill="#dbd6d5" d="M165 26v33l17-38z"/><path fill="#1e2118" d="M237 57h19v45h-19z"/><path fill="#1b2d28" d="M149 44h17v94h-17z"/><path fill="#01000d" d="M113 77h10v43h-10z"/><path fill="#ded9de" d="M207.5 7l24-23-43 11.3 11.8 8.3z"/><path fill="#8b8fa8" d="M189.5 119.2l-20.7-1.7 3.8 25.4 61.3-32.8z"/><path fill="#2a60a1" d="M81 87L56 51l45 11z"/><path fill="#3c3f2e" d="M182 19.8l-57 29.4L195.6 2l34.1 38.1z"/><path fill="#adb6c5" d="M130.2 37l-12.2.4-13.1 5.9 6.5-9.2z"/><ellipse fill="#4e652e" rx="1" ry="1" transform="rotate(154.8 94.7 95.4) scale(67.60121 20.55588)"/><path fill="#1b1614" d="M189 66l-12 46 22 4z"/><ellipse fill="#767b97" cx="153" cy="149" rx="18" ry="18"/><ellipse fill="#7d8a5c" cx="131" cy="99" rx="8" ry="28"/><ellipse fill="#d7d2dc" cx="222" cy="10" rx="3" ry="15"/><ellipse fill="#1d1d1b" cy="37" rx="32" ry="23"/></g></svg>