<svg xmlns="http://www.w3.org/2000/svg" viewBox="0 0 440 272"><path fill="#4d5448" d="M0 0h440v271H0z"/><g transform="translate(.9 .9) scale(1.71875)" fill-opacity=".5"><ellipse fill="#ebe9eb" cx="173" cy="12" rx="8" ry="57"/><path fill="#dbd2c4" d="M58.6-3.3L120 19.4l49.8 6.5L86.2-16z"/><ellipse fill="#26221b" cx="21" cy="28" rx="93" ry="27"/><path fill="#8c93b0" d="M255 100l-133 73 52-54z"/><ellipse fill="#161826" rx="1" ry="1" transform="rotate(-20.8 441 -197.2) scale(73.33242 14.93234)"/><path fill="#b89e98" d="M230-16l-22 58 25 27z"/><ellipse fill="#9597bc" rx="1" ry="1" transform="rotate(-179.6 58.7 31.9) scale(19.90226 13.19016)"/><path fill="#fffff5" d="M102.8 7l2.6 1.1L118.8-16l4.8 47.5z"/><ellipse fill="#041b45" cx="78" cy="93" rx="13" ry="49"/><path fill="#cac7b1" d="M152.5 7.5l8.6 7-2.6 26.2-11.3-5z"/><ellipse fill="#506222" cx="26" cy="115" rx="43" ry="43"/><ellipse fill="#1f2d28" rx="1" ry="1" transform="rotate(79.4 26.6 136.5) scale(54.46833 10.30684)"/><path fill="#a5bef0" d="M222.9 72.6l-2.9 7.6 14.1 4.4 3-11.6z"/><ellipse fill="#130a13" cx="236" cy="67" rx="37" ry="6"/><path fill="#29261d" d="M164.5 18l-11.2 16.8 23.8-13.5L116.5-16z"/><ellipse fill="#01000d" cx="117" cy="98" rx="6" ry="24"/><path fill="#34382b" d="M84 2h22v53H84z"/><path fill="#f5e6db" d="M94-1L62 6l-6-22z"/><ellipse fill="#c8bcb8" rx="1" ry="1" transform="matrix(-12.05192 5.59432 -2.67276 -5.75798 226.6 16.2)"/><path fill="#2e2a23" d="M139.1 19.2l-36 40 40-68L104-16z"/><path fill="#e1dce2" d="M195.1 4.9l.8-11 17 1.2-.8 11z"/><path fill="#3466a6" d="M49 48l54 15-18 20z"/><ellipse fill="#757c98" cx="151" cy="151" rx="17" ry="20"/><path fill="#fffff5" d="M165.4 13l17.5-30.4 7.7 4.5-17.5 30.3z"/><path fill="#181615" d="M197 44l23 16 2 54z"/><ellipse fill="#a0999a" rx="1" ry="1" transform="rotate(-166 113.8 9.7) scale(31.33338 3.61578)"/><path fill="#a59fad" d="M248 57.2l-3-17.1 24.2-18 1.8 19.2z"/><path fill="#1a1a1c" d="M193.1 119.3l-16.4-6-1.2-11.1 42.8-1z"/><ellipse fill="#30290d" rx="1" ry="1" transform="matrix(-9.36802 13.9489 -3.24106 -2.17668 232 29.6)"/><path fill="#757f51" d="M148 93l-20.3-25.6-5.9 72.4 24.1-35z"/></g></svg>