<svg xmlns="http://www.w3.org/2000/svg" viewBox="0 0 440 272"><filter id="b"><feGaussianBlur stdDeviation="10" /></filter><path fill="#5c575e" d="M0 0h440v271H0z"/><g filter="url(#b)" transform="translate(.9 .9) scale(1.71875)" fill-opacity=".5"><ellipse fill="#ff2700" rx="1" ry="1" transform="matrix(-1.35772 20.88222 -42.1816 -2.74256 240.5 147.6)"/><ellipse fill="#8b94a4" rx="1" ry="1" transform="matrix(218.3519 8.76992 -2.07934 51.77115 167.6 0)"/><ellipse rx="1" ry="1" transform="matrix(-7.24496 -23.16768 13.60082 -4.25322 245 107.6)"/><ellipse fill="#282c39" cx="73" cy="142" rx="130" ry="30"/><path fill="#1f1609" d="M39 70l79 2-51-19z"/><path fill="#0c131a" d="M190 112l13-17 30 33z"/><path fill="#ecdfaa" d="M121 66h36v5h-36z"/><path fill="#0040bd" d="M227.5 105l-14.6-3.7 5.6-22.3 14.6 3.7z"/><path fill="#141214" d="M242 58h14v69h-14z"/><ellipse fill="#260000" cx="230" cy="156" rx="45" ry="3"/><ellipse fill="#ee5400" cx="228" cy="145" rx="28" ry="10"/><ellipse fill="#4b4d5b" rx="1" ry="1" transform="rotate(99.2 -16.6 78) scale(22.47535 118.84479)"/><path fill="#495060" d="M-16 51l85-22 40 40z"/><path fill="#8d674e" d="M228.6 81l4.4-2.7 38 42.8-35.3-59.9z"/><path fill="#adb53e" d="M226 104h8v15h-8z"/><path fill="#6e6f73" d="M77 33h102v27H77z"/><ellipse fill="#0a38b6" cx="255" cy="84" rx="9" ry="9"/><path fill="#060500" d="M270.3 129.2l-43-3.4 12.6-8.6-7.3-30.5z"/><path fill="#969537" d="M233.1 119.2l12.5-4.2-23-.3-3.9 6.2z"/><path fill="#292e36" d="M125.7 147.4l-.4 22-157-2.8.4-22z"/><path fill="#aaf365" d="M202.5 134l1.8-2.4 11.2 8.4-1.8 2.4z"/><path fill="#372b15" d="M164 70h66v3h-66z"/><ellipse fill="#090302" rx="1" ry="1" transform="matrix(27.3068 3.706 -.27593 2.03312 76.4 68.2)"/><ellipse fill="#023fb4" cx="223" cy="111" rx="5" ry="5"/><path fill="#fff4a9" d="M174 23l6 3-6 7z"/><path fill="#0d0e08" d="M192 62l1-8h-19z"/><path fill="#1b0e00" d="M225.7 73.1l-.7 1.3.7-9.6 21-5.4z"/><path fill="#181c1f" d="M182 130h22v9h-22z"/><ellipse fill="#8e7c54" rx="1" ry="1" transform="matrix(.90355 -3.94057 27.99227 6.4185 181 63.9)"/><path fill="#c0b9a0" d="M114 61l-7-13-2 13z"/></g></svg>