<svg xmlns="http://www.w3.org/2000/svg" viewBox="0 0 440 272"><path fill="#5c575e" d="M0 0h440v271H0z"/><g transform="translate(.9 .9) scale(1.71875)" fill-opacity=".5"><ellipse fill="#ff2600" cx="236" cy="153" rx="39" ry="27"/><ellipse fill="#8b94a4" rx="1" ry="1" transform="matrix(-5.67857 45.51141 -207.50356 -25.8907 97 0)"/><ellipse rx="1" ry="1" transform="matrix(11.16797 -3.75302 7.9755 23.73297 245.1 105.9)"/><ellipse fill="#292d3a" rx="1" ry="1" transform="matrix(140.00389 1.83046 -.52227 39.94616 63.9 149.2)"/><path fill="#2c2418" d="M47 48l71 23-90 1z"/><ellipse fill="#26292e" rx="1" ry="1" transform="rotate(-151.2 115.1 34.7) scale(13.25474 27.41208)"/><path fill="#f5e8af" d="M127 66h29v5h-29z"/><path fill="#131013" d="M242 59h14v69h-14z"/><path fill="#e95b03" d="M232.6 154.8l-30.8-2 2-20.8 67.2 12.2z"/><path fill="#033ea8" d="M211.8 85l1 17.4 18.3 1.4 3-24.3z"/><path fill="#200" d="M202 162.3l-7.5-9.7 76.5 8.2v-13.1z"/><path fill="#c7b93e" d="M248 91l13 21 10-21z"/><ellipse fill="#4d4e5c" cx="55" cy="108" rx="120" ry="25"/><path fill="#070602" d="M263.3 114.5L231 85.8l11.4 42.7-24.2-2.4z"/><path fill="#766248" d="M247.3 61.6l-2.8 30.1-20.3-16.1-121.4-24.3z"/><ellipse fill="#45516c" rx="1" ry="1" transform="rotate(-176.1 18.1 21.5) scale(51.92496 12.19483)"/><path d="M212 105l8 21-20-26z"/><path fill="#6d7178" d="M42 22l135 19-71 21z"/><path fill="#1642c5" d="M249 77h7v16h-7z"/><ellipse fill="#060000" cx="76" cy="70" rx="41" ry="2"/><path fill="#292d36" d="M-44.1 142l170.9 6-.7 20-170.9-6z"/><ellipse fill="#b3b415" cx="229" cy="116" rx="13" ry="2"/><path fill="#231a07" d="M155 70h75v2h-75z"/><path fill="#9d9381" d="M137.6 72.7L36.3 60.3l.1-1 101.3 12.4z"/><path fill="#59555e" d="M87 112h122v18H87z"/><path fill="#fff500" d="M219.1 104.3l.3-1 17.5 4.4-.3 1z"/><path fill="#31261e" d="M226.8 69.5l-2.3-11.8 16.7-3.2 2.3 11.8z"/><ellipse fill="#7f808c" cx="174" cy="9" rx="95" ry="21"/><path fill="#b0a792" d="M140 55h29v4h-29z"/><ellipse fill="#3b3830" cx="2" cy="62" rx="19" ry="11"/></g></svg>