<svg xmlns="http://www.w3.org/2000/svg" viewBox="0 0 440 272"><path fill="#9f9f9a" d="M0 0h440v271H0z"/><g transform="translate(.9 .9) scale(1.71875)" fill-opacity=".5"><ellipse fill="#0a0d00" rx="1" ry="1" transform="matrix(228.06285 8.08696 -.60304 17.00662 46 55.2)"/><ellipse fill="#fff" rx="1" ry="1" transform="matrix(-164.75967 .86269 -.11312 -21.60454 140.6 8.8)"/><ellipse fill="#871c00" rx="1" ry="1" transform="matrix(4.32424 19.92954 -21.46757 4.65796 246.8 123)"/><ellipse fill="#e3eaf7" rx="1" ry="1" transform="matrix(2.21671 -28.80873 90.19503 6.94013 160.5 19)"/><path fill="#4a4d29" d="M0 26h67v48H0z"/><ellipse fill="#d2cac8" cx="183" cy="98" rx="51" ry="27"/><ellipse fill="#bec5cf" rx="1" ry="1" transform="rotate(176.7 22.8 50.4) scale(64.56064 23.64583)"/><path fill="#382225" d="M247.2 128.8l-3-49.9-19.6 29.2 6.4-22.5z"/><path fill="#474a1e" d="M174 75l59.6-1.5 26.8 2.8-2.6-39.6z"/><path fill="#959fa3" d="M152 27h56v27h-56z"/><ellipse fill="#fb6918" cx="238" cy="120" rx="38" ry="8"/><ellipse fill="#f2f1f8" cx="169" cy="6" rx="221" ry="20"/><path fill="#974439" d="M89.4 102.5l21.2-6.3 10.7-16.8 12 29z"/><ellipse fill="#47462a" cx="80" cy="55" rx="49" ry="20"/><ellipse fill="#a1abb3" rx="1" ry="1" transform="matrix(-2.71565 32.33978 -104.5755 -8.78145 109.4 137.2)"/><path fill="#63664d" d="M230 26h26v8h-26z"/><ellipse fill="#8d9778" cx="41" cy="34" rx="13" ry="13"/><path fill="#002b70" d="M132 97h-19l12-13z"/><path fill="#f57743" d="M113 99h38v7h-38z"/><path fill="#0d2f5e" d="M254 105l-6 13-14-30z"/><path fill="#70725c" d="M48 39h99v7H48z"/><path fill="#2e3510" d="M150 64l45 9 5-24z"/><ellipse fill="#434530" rx="1" ry="1" transform="matrix(-8.23635 12.87302 -24.22703 -15.50082 15.3 45.7)"/><path fill="#6d6d5b" d="M165 28h44v7h-44z"/><path fill="#213329" d="M271 132l-38-5 1 12z"/><path fill="#d52900" d="M218.5 116.5l16.4 2.8 12.5-13-13 1.6z"/><ellipse fill="#7b7b7b" rx="1" ry="1" transform="matrix(-28.4659 9.17903 -4.8446 -15.02401 255 147.8)"/><path fill="#454a27" d="M258 120l-26-1 14-14z"/><ellipse fill="#b1c0c9" rx="1" ry="1" transform="matrix(-65.86526 -4.056 .19878 -3.22792 64.4 28.1)"/><path fill="#383b23" d="M148.1 56.5L142.4 36 131 70.3l-105 .8z"/></g></svg>