<svg xmlns="http://www.w3.org/2000/svg" viewBox="0 0 440 272"><filter id="b"><feGaussianBlur stdDeviation="10" /></filter><path fill="#9f9f9a" d="M0 0h440v271H0z"/><g filter="url(#b)" transform="translate(.9 .9) scale(1.71875)" fill-opacity=".5"><ellipse fill="#0c0e00" rx="1" ry="1" transform="rotate(-88.4 64.9 -7.9) scale(16.29103 223.3118)"/><ellipse fill="#fff" cx="142" cy="7" rx="175" ry="23"/><path fill="#910f00" d="M220 117l23.8-16.7L264 129l-23.7 16.7z"/><ellipse fill="#454724" cy="51" rx="121" ry="25"/><ellipse fill="#e2e9f6" cx="172" cy="19" rx="87" ry="29"/><ellipse fill="#d2cac7" cx="184" cy="97" rx="52" ry="27"/><ellipse fill="#bdc4ce" rx="1" ry="1" transform="matrix(-2.19726 -24.61984 65.2752 -5.82566 48 100.6)"/><path fill="#110e25" d="M233.5 94.5l-13.6 7.1 24.2-20 6.1 38.3z"/><ellipse fill="#f2f2fa" cx="83" cy="10" rx="255" ry="14"/><ellipse fill="#97a3a8" rx="1" ry="1" transform="matrix(-25.48743 6.55065 -3.437 -13.37272 174.4 40.5)"/><path fill="#ff7627" d="M204 112h29v15h-29z"/><path fill="#5c633b" d="M230 25h26v50h-26z"/><path fill="#934039" d="M112.8 92.9l11-17.9 8.2 31-36-1.4z"/><path fill="#a4aeb6" d="M204 173l-220-54 218-17z"/><ellipse fill="#3c4120" cx="171" cy="64" rx="153" ry="8"/><path fill="#56543e" d="M119 39h31v30h-31z"/><path fill="#b5c2ca" d="M257 39l-59 11 1-28z"/><ellipse fill="#696752" cx="189" cy="30" rx="25" ry="3"/><path fill="#1a3222" d="M229 129h20v11h-20z"/><ellipse fill="#7e8765" rx="1" ry="1" transform="matrix(-22.46088 1.78449 -.85754 -10.79358 38.8 33.6)"/><ellipse fill="#43442c" rx="1" ry="1" transform="matrix(31.22397 12.26623 -4.52236 11.51178 7 39.1)"/><path fill="#ff8519" d="M258 128l-32-3 45-8z"/><path fill="#ff6a30" d="M149.8 106.6l-47.8-4.2.2-3 47.8 4.2z"/><ellipse fill="#00246a" cx="122" cy="93" rx="8" ry="5"/><ellipse fill="#2f2521" rx="1" ry="1" transform="rotate(-124.3 153.8 -12.3) scale(2.79368 20.2148)"/><path fill="#bcc1c7" d="M0 79h113v19H0z"/><path fill="#c69874" d="M136 85L90 72l74-1z"/><path fill="#7e7c7c" d="M227 139h29v19h-29z"/><ellipse fill="#a98c65" cx="39" cy="75" rx="76" ry="3"/><path fill="#eaeaee" d="M241-16l9 50-36-32z"/></g></svg>