<svg xmlns="http://www.w3.org/2000/svg" viewBox="0 0 440 272"><filter id="b"><feGaussianBlur stdDeviation="10" /></filter><path fill="#828787" d="M0 0h440v271H0z"/><g filter="url(#b)" transform="translate(.9 .9) scale(1.71875)" fill-opacity=".5"><ellipse fill="#fff" rx="1" ry="1" transform="matrix(-232.67535 -3.48431 .54268 -36.23914 119.6 16.2)"/><ellipse rx="1" ry="1" transform="matrix(141.35538 -26.45394 6.24495 33.36958 101.2 115.1)"/><ellipse fill="#fff" rx="1" ry="1" transform="matrix(179.8565 -4.3956 .65813 26.929 110.1 19)"/><ellipse fill="#00194f" rx="1" ry="1" transform="matrix(12.64876 .48646 -1.856 48.2597 34.5 80.5)"/><ellipse rx="1" ry="1" transform="matrix(-4.42566 -12.24926 67.75593 -24.48021 171.7 99.6)"/><path d="M146 77l13 96 33-96z"/><path fill="#d5c09a" d="M80.8 116.1l-16.3.7L58.1 87l37-9.7z"/><ellipse fill="#201408" rx="1" ry="1" transform="rotate(24.2 -323.3 281.8) scale(30.20027 75.28393)"/><ellipse fill="#c5ac7b" rx="1" ry="1" transform="matrix(19.67129 -28.51516 10.71822 7.394 195.9 126.3)"/><ellipse fill="#fbffff" cx="115" cy="15" rx="175" ry="21"/><path fill="#0b0017" d="M131 21l21 3-12 15z"/><path fill="#383c46" d="M-16 89l127 2 19-49z"/><path fill="#cfb480" d="M125 126h32v18h-32z"/><ellipse fill="#85d3ff" cx="229" cy="44" rx="144" ry="10"/><ellipse rx="1" ry="1" transform="matrix(12.18416 18.7513 -9.12237 5.9275 227.2 95.2)"/><path fill="#cab98d" d="M85.3 173L96 124.8l18.8 48.2 36.4-27.5z"/><path fill="#ada5d1" d="M125 40h24v29h-24z"/><path fill="#a2967d" d="M45.8 146.7L104 56.5l-29.4 57-27 51.5z"/><path fill="#3d6fb6" d="M134.4 71.9l10-.7 3.2 44.9-10 .7z"/><ellipse fill="#feffff" rx="1" ry="1" transform="matrix(8.89585 9.4071 -26.23052 24.80497 67.7 28.6)"/><path fill="#fff" d="M62 93h29v5H62z"/><ellipse fill="#f8ffff" rx="1" ry="1" transform="matrix(15.93904 24.54396 -10.9746 7.127 10.4 31.5)"/><path fill="#1d130c" d="M61 115.7l-26.3 51.7-17.8-9.1 26.4-51.7z"/><path fill="#0b060a" d="M149.6 104.7l-12 26.6 33.5.7 35.4-39.6z"/><ellipse fill="#d6ffff" rx="1" ry="1" transform="matrix(-1.22254 -28.2285 101.31475 -4.38782 241.2 9.5)"/><path fill="#527198" d="M25 139l10-43-24 4z"/><ellipse fill="#9f8c65" cx="221" cy="144" rx="52" ry="32"/><ellipse fill="#9d9170" rx="1" ry="1" transform="matrix(-1.82375 -9.29574 25.8828 -5.078 191.5 67.4)"/><ellipse fill="#948561" rx="1" ry="1" transform="matrix(-18.81916 11.48726 -14.9531 -24.49712 255 73.7)"/><path fill="#5a606d" d="M51.6 53.6L128 90.8 123.1 39l16 12.7z"/></g></svg>