<svg xmlns="http://www.w3.org/2000/svg" viewBox="0 0 440 272"><filter id="b"><feGaussianBlur stdDeviation="10" /></filter><path fill="#5d4233" d="M0 0h440v271H0z"/><g filter="url(#b)" transform="translate(.9 .9) scale(1.71875)" fill-opacity=".5"><ellipse fill="#ffeec0" rx="1" ry="1" transform="matrix(-153.79291 -6.7731 .98109 -22.27695 127.8 7)"/><ellipse fill="#faebce" cx="17" cy="41" rx="32" ry="32"/><ellipse fill="#030000" rx="1" ry="1" transform="matrix(-181.92176 40.54527 -8.45548 -37.9387 80.3 151.6)"/><ellipse cx="23" cy="125" rx="18" ry="73"/><path fill="#250f02" d="M296.8 79L52.4 62l2.8-39 244.4 17z"/><ellipse fill="#e9d4f0" rx="1" ry="1" transform="matrix(12.33715 2.82559 -2.3085 10.07944 180.5 80.3)"/><path fill="#eed3b4" d="M92 102l-1-26-29 7z"/><ellipse fill="#936c71" rx="1" ry="1" transform="matrix(9.24826 -.7699 3.6962 44.39993 226 104.9)"/><path fill="#e1d9c8" d="M77.2-6L136 .2 132.8 30 74 23.8z"/><ellipse fill="#c38457" cx="181" cy="10" rx="57" ry="25"/><ellipse fill="#220400" cx="252" cy="85" rx="17" ry="62"/><ellipse fill="#c0af9d" rx="1" ry="1" transform="rotate(26.3 -105.8 24.7) scale(23.48617 76.42209)"/><ellipse fill="#2a0600" cx="89" cy="136" rx="132" ry="26"/><path fill="#f3d6b9" d="M138 88l1-21 16 10z"/><path fill="#472916" d="M143 14l14 44-83 67z"/><path fill="#252112" d="M49 84l38-17L57 6z"/><path fill="#d2c1a9" d="M67.9-16L8.7 27.6l41.2 41-4-46.2z"/><ellipse fill="#e9bfa6" cx="81" cy="103" rx="34" ry="2"/><path fill="#fff7b5" d="M107 80l1-14-7-4z"/><path fill="#4f5235" d="M90.5 13.6l-5.6-24.3 12.6-3 5.6 24.4z"/><path fill="#6c4c23" d="M11 54.1l17 15.4L40.6 117l3.2-61.5z"/><path fill="#fff7b5" d="M139.3 41.6l5-.2.4 11-5 .2z"/><path fill="#240802" d="M228 94l-27-63-38 17z"/><path fill="#170a06" d="M154.3 63.9l112.6-39-79 9.5-32.6 66.6z"/><ellipse fill="#b78257" rx="1" ry="1" transform="matrix(65.7954 -31.41444 6.70184 14.03655 236 2.1)"/><path fill="#1a0c0b" d="M109 68h29v28h-29z"/><path fill="#975e47" d="M166 160l48 13 17-34z"/><ellipse fill="#4a6a77" cx="223" cy="120" rx="9" ry="16"/><path fill="#a99d94" d="M112 80h45v3h-45z"/><ellipse fill="#220300" cx="98" cy="76" rx="5" ry="22"/></g></svg>