<svg xmlns="http://www.w3.org/2000/svg" viewBox="0 0 440 272"><path fill="#5d4233" d="M0 0h440v271H0z"/><g transform="translate(.9 .9) scale(1.71875)" fill-opacity=".5"><ellipse fill="#ffedc0" rx="1" ry="1" transform="matrix(173.03873 10.96498 -1.62769 25.6866 105.3 2.4)"/><path fill="#f2e3c8" d="M-3.3 68.4l-2.4-67 53-1.8 2.4 67z"/><ellipse fill="#010000" rx="1" ry="1" transform="matrix(-2.64323 -26.71734 200.59559 -19.84552 131.5 130.1)"/><ellipse fill="#1a0500" rx="1" ry="1" transform="rotate(-104.8 116.8 -49.8) scale(14.06972 88.04054)"/><ellipse fill="#060100" cx="23" cy="131" rx="19" ry="78"/><path fill="#f4e3ff" d="M169.8 69.2l18.6 4-4.2 19.6-18.6-4z"/><path fill="#f6e0c5" d="M80.9 99.4l-8-17.2L89 74.6l8 17.2z"/><ellipse fill="#8e6c73" cx="225" cy="114" rx="10" ry="48"/><path fill="#1c1002" d="M48 85l121-49L54 20z"/><ellipse fill="#dfd6c5" rx="1" ry="1" transform="matrix(-36.7885 -7.07257 3.41825 -17.78029 103.5 8.7)"/><ellipse fill="#c18255" cx="183" cy="6" rx="60" ry="29"/><path fill="#beac99" d="M-16-3l9 118L48-8z"/><ellipse fill="#150000" rx="1" ry="1" transform="rotate(-34.5 257.4 -370) scale(19.72878 35.22453)"/><path fill="#e5c6a9" d="M155 78l-16-13v29z"/><ellipse fill="#2e0503" rx="1" ry="1" transform="matrix(-20.1778 -28.19886 56.29265 -40.28043 157.1 138.3)"/><path fill="#906d42" d="M14 58h36v16H14z"/><path fill="#452b18" d="M128 41l45 64-29-95z"/><ellipse fill="#ffffc4" cx="105" cy="73" rx="3" ry="9"/><path fill="#2c0d04" d="M228 94.2L170 61l-5-39.8 48.5 45.5z"/><ellipse fill="#ddd9c7" cx="55" cy="103" rx="20" ry="2"/><path fill="#2f0f04" d="M94 78h43v20H94z"/><path fill="#d9cab4" d="M20 22h25v31H20z"/><ellipse fill="#161200" rx="1" ry="1" transform="matrix(-.60227 9.38292 -3.70424 -.23777 58.7 19)"/><ellipse fill="#2b0500" rx="1" ry="1" transform="matrix(7.4612 26.53519 -50.35647 14.15931 67.4 139.5)"/><path fill="#575c36" d="M90 0h12v15H90z"/><path fill="#f0ba86" d="M139 40.1l.8 3.2 4.7-6-1.5 21z"/><path fill="#1a0e05" d="M2 91h46v33H2z"/><ellipse fill="#cbad91" rx="1" ry="1" transform="rotate(54.4 68 140) scale(36.52378 12.70873)"/><path fill="#d9ab76" d="M179.4 21.2l-10 15.2 27.6-3.3 36.2-4.8z"/><path fill="#fff" d="M92 17h16v9H92z"/></g></svg>