<svg xmlns="http://www.w3.org/2000/svg" viewBox="0 0 440 272"><filter id="b"><feGaussianBlur stdDeviation="10" /></filter><path fill="#6d8568" d="M0 0h440v271H0z"/><g filter="url(#b)" transform="translate(.9 .9) scale(1.71875)" fill-opacity=".5"><ellipse fill="#21d7ff" rx="1" ry="1" transform="rotate(87.8 44.8 51.2) scale(56.61668 183.44541)"/><ellipse fill="#602800" rx="1" ry="1" transform="rotate(14.8 -461.5 262.8) scale(77.20502 59.85101)"/><path fill="#a97100" d="M-16 78l267 95 20-127z"/><ellipse fill="#e5dffe" rx="1" ry="1" transform="matrix(108.70527 -1.01115 .14378 15.45777 90 50.3)"/><ellipse rx="1" ry="1" transform="rotate(51.9 -119.8 136.5) scale(16.19468 66.14115)"/><ellipse fill="#ffeca3" rx="1" ry="1" transform="matrix(12.90413 32.46023 -11.25534 4.47441 142.7 150.7)"/><ellipse fill="#0096ff" cx="191" cy="12" rx="238" ry="27"/><ellipse fill="#81c5ee" cx="166" cy="36" rx="255" ry="10"/><path fill="#deaf19" d="M126 119l-2-44 95 3z"/><path fill="#c88853" d="M215.6 36.6l-74.8 25.5 23.4 2.8L271 44.4z"/><ellipse fill="#665d0e" rx="1" ry="1" transform="matrix(-41.082 -43.90118 20.35117 -19.04429 195.3 143.7)"/><path d="M-16 148l26-48 33 4z"/><ellipse fill="#e1b47f" rx="1" ry="1" transform="matrix(-5.22685 -3.91985 15.14376 -20.19317 101.5 141.7)"/><ellipse fill="#d2a000" cx="255" cy="86" rx="111" ry="7"/><path fill="#987c16" d="M-14.1 55l41.4 2.2L103 79l-114.9 32z"/><path fill="#9b9327" d="M-16 160l71-64 76-8z"/><ellipse fill="#008bcc" cx="102" cy="7" rx="153" ry="16"/><ellipse fill="#473f20" cx="212" cy="66" rx="44" ry="9"/><ellipse fill="#070000" rx="1" ry="1" transform="matrix(-7.52697 -3.50553 11.99987 -25.76578 111.7 157)"/><path fill="#ffbd80" d="M126 130h33v28h-33z"/><path fill="#414402" d="M181 91l63 6 18 25z"/><path fill="#02060b" d="M124 114L91 98l36 34z"/><ellipse fill="#e3edf2" cx="82" cy="57" rx="55" ry="5"/><path fill="#fffbef" d="M61 16h13v6H61z"/><ellipse fill="#1f1e00" rx="1" ry="1" transform="matrix(-19.13875 7.37017 -11.152 -28.95935 64.1 144.9)"/><ellipse fill="#4d4703" cx="63" cy="88" rx="62" ry="5"/><path fill="#d5b287" d="M144 80l-28 23 12 15z"/><path fill="#232103" d="M271 146.4l-65 13 29.9-15 4.6 28.6z"/><path fill="#c1a834" d="M183.1 158.4l9 12.1-20.3-36.4 43.8 18.7z"/><ellipse fill="#b9ad21" rx="1" ry="1" transform="matrix(-8.85582 9.7068 -4.9247 -4.49295 32.3 137)"/></g></svg>