<svg xmlns="http://www.w3.org/2000/svg" viewBox="0 0 440 272"><filter id="b"><feGaussianBlur stdDeviation="10" /></filter><path fill="#827362" d="M0 0h440v271H0z"/><g filter="url(#b)" transform="translate(.9 .9) scale(1.71875)" fill-opacity=".5"><ellipse fill="#291600" rx="1" ry="1" transform="matrix(12.47037 79.03107 -38.63612 6.09642 57.6 104.4)"/><ellipse fill="#d0e9ff" cx="150" rx="124" ry="26"/><ellipse fill="#d8eaf5" rx="1" ry="1" transform="matrix(-37.87186 -9.98605 5.71825 -21.68636 244 96.9)"/><ellipse fill="#32341c" cx="214" cy="61" rx="189" ry="14"/><ellipse fill="#fd4d00" rx="1" ry="1" transform="matrix(.69777 -9.83775 80.71027 5.7246 202.2 126)"/><ellipse fill="#fff" cx="213" cy="3" rx="51" ry="15"/><ellipse fill="#ffffbe" rx="1" ry="1" transform="matrix(6.77078 8.12938 -13.29778 11.07542 10.1 71)"/><ellipse fill="#e4b3a3" cx="175" cy="90" rx="22" ry="25"/><ellipse fill="#828c99" rx="1" ry="1" transform="matrix(-4.19635 24.69235 -101.15465 -17.19075 72.7 11.9)"/><ellipse fill="#000414" rx="1" ry="1" transform="rotate(64.7 -13.6 60) scale(26.77243 16.8953)"/><ellipse fill="#680000" cx="236" cy="135" rx="62" ry="4"/><path fill="#ff1900" d="M172.1 94.6l20.5 2.6L171.1 78l-12.4 2.7z"/><ellipse fill="#9fa2aa" cx="195" cy="153" rx="93" ry="13"/><path fill="#ffef93" d="M3 68h6v58H3z"/><ellipse fill="#180f00" cx="18" cy="100" rx="9" ry="23"/><ellipse fill="#ffc477" rx="1" ry="1" transform="rotate(-124.3 57 2) scale(6.43725 12.99052)"/><ellipse fill="#775220" rx="1" ry="1" transform="matrix(39.44036 -54.08623 20.95742 15.28241 33.7 135.8)"/><path fill="#d4e5e2" d="M182 75h34v11h-34z"/><ellipse fill="#21171f" rx="1" ry="1" transform="matrix(4.1545 6.418 -9.7198 6.29183 196 114)"/><ellipse fill="#ff8f3b" rx="1" ry="1" transform="matrix(.22603 6.1512 -51.69347 1.89948 234.2 126.3)"/><ellipse fill="#695b38" rx="1" ry="1" transform="matrix(22.66522 9.2091 -38.91543 95.77778 82.9 132.5)"/><path fill="#8f9e7f" d="M105 30l166-18-62 41z"/><path fill="#080613" d="M116.3 39l6.3 7.7-35 28.3-6.2-7.7z"/><ellipse fill="#918780" cx="129" cy="48" rx="15" ry="106"/><path fill="#4e1e1e" d="M158 114l-9-28-13 35z"/><ellipse fill="#8c5a34" cx="47" cy="20" rx="15" ry="11"/><path fill="#9ba9bb" d="M28.2 30.7L-10.5 26l4.3-34.7L32.5-4z"/><path fill="#efaf5d" d="M16 114h8v37h-8z"/><ellipse fill="#ffffd1" cx="62" cy="131" rx="3" ry="9"/><ellipse fill="#222d16" rx="1" ry="1" transform="matrix(66.76785 -1.59399 .1838 7.69879 242.2 64.8)"/></g></svg>