<svg xmlns="http://www.w3.org/2000/svg" viewBox="0 0 440 272"><path fill="#827362" d="M0 0h440v271H0z"/><g transform="translate(.9 .9) scale(1.71875)" fill-opacity=".5"><ellipse fill="#291500" rx="1" ry="1" transform="rotate(80.8 -32 85.1) scale(72.9859 39.86391)"/><ellipse fill="#d2ecff" rx="1" ry="1" transform="rotate(174 100 7.7) scale(142.21137 18.80976)"/><ellipse fill="#d2e2ef" rx="1" ry="1" transform="rotate(-161.7 131.8 29.8) scale(52.67034 21.18216)"/><ellipse fill="#2e3119" cx="248" cy="62" rx="223" ry="13"/><ellipse fill="#ff4f00" rx="1" ry="1" transform="matrix(104.6932 7.75348 -.65973 8.90816 215.8 127)"/><ellipse fill="#fff" rx="1" ry="1" transform="matrix(-1.77833 -17.90526 60.88925 -6.04745 223.5 0)"/><path fill="#ffffba" d="M12.7 55l13.6 10-21 28-13.6-10.2z"/><ellipse fill="#ddb1a4" cx="175" cy="89" rx="24" ry="24"/><ellipse fill="#84909f" rx="1" ry="1" transform="rotate(-165.9 27.5 -3.4) scale(116.15014 29.2207)"/><ellipse fill="#00071a" rx="1" ry="1" transform="matrix(14.92075 -11.25451 16.42829 21.77992 46.5 49)"/><path fill="#a0a2ab" d="M112 141h144v17H112z"/><path fill="#52261e" d="M193 85h13v72h-13z"/><ellipse fill="#ff0e00" rx="1" ry="1" transform="matrix(14.68947 7.15745 -1.96914 4.04132 176.3 89.6)"/><path fill="#120b02" d="M12 82l-4 61 27-77z"/><ellipse fill="#710000" cx="237" cy="135" rx="63" ry="4"/><path fill="#07040a" d="M82.8 65.3l33.4-27.1 7 8.5-33.4 27.1z"/><ellipse fill="#74653b" rx="1" ry="1" transform="rotate(-150.6 57.4 57) scale(24.9229 100.88729)"/><path fill="#ffffa3" d="M-6 128L8 98l1 28z"/><path fill="#ff8b32" d="M260.5 132.5h-77v-11h77z"/><path fill="#ffba6f" d="M77 46l5 20 18-25z"/><path fill="#494e08" d="M0 140h82v18H0z"/><path fill="#97a8bc" d="M0-11.2l33.6 4.8-5.5 39.6-33.7-4.8z"/><path fill="#ffffd4" d="M79 123h4v17h-4z"/><ellipse fill="#ffb75a" cx="21" cy="137" rx="4" ry="20"/><ellipse fill="#8e9f78" cx="221" cy="29" rx="55" ry="12"/><path fill="#492518" d="M143 87h10v52h-10z"/><ellipse fill="#918a81" cx="127" cy="58" rx="10" ry="226"/><ellipse fill="#1f2a15" cx="233" cy="65" rx="61" ry="7"/><ellipse fill="#974e27" rx="1" ry="1" transform="matrix(-5.4994 14.4015 -24.04144 -9.18053 56 97.5)"/><path fill="#5e3922" d="M32 15h26v18H32z"/></g></svg>