<svg xmlns="http://www.w3.org/2000/svg" viewBox="0 0 440 272"><filter id="b"><feGaussianBlur stdDeviation="10" /></filter><path fill="#a1a6a8" d="M0 0h440v271H0z"/><g filter="url(#b)" transform="translate(.9 .9) scale(1.71875)" fill-opacity=".5"><ellipse fill="#4c3417" rx="1" ry="1" transform="matrix(57.32858 -22.35148 26.19026 67.17455 17.7 122)"/><ellipse fill="#eefeff" rx="1" ry="1" transform="matrix(-4.3986 64.52107 -166.5187 -11.3521 144.4 0)"/><path d="M238 118.1l-.8-15.2 2.5-26.4 31.3 6.9z"/><ellipse fill="#798188" rx="1" ry="1" transform="matrix(19.93954 -42.44038 80.4664 37.8051 129.3 150.9)"/><ellipse fill="#e9efee" cx="180" cy="7" rx="167" ry="21"/><ellipse fill="#99b8d4" rx="1" ry="1" transform="rotate(-92.9 128.3 -61.6) scale(20.46337 72.22787)"/><path fill="#a89065" d="M-16 63l141-8-82 31z"/><ellipse fill="#5a4c41" rx="1" ry="1" transform="matrix(-17.85918 -26.20122 38.05102 -25.9362 16.5 123.2)"/><ellipse fill="#b0bec8" rx="1" ry="1" transform="matrix(119.09313 1.2576 -.1639 15.52097 117.5 44.4)"/><path fill="#848e95" d="M54.2 161.7l-18-28 87.5-16.3L271 157.6z"/><path fill="#1d0700" d="M264 96l-21-20-5 32z"/><path fill="#64574a" d="M60.7 91.2l3-8.5 23.6 8.1-3 8.5z"/><ellipse fill="#8d9fae" rx="1" ry="1" transform="matrix(23.55578 -23.3919 57.67979 58.08388 221.5 141)"/><ellipse fill="#68675b" cx="67" cy="61" rx="39" ry="3"/><path fill="#b0b6b5" d="M-4 23l24 30 101-13z"/><path fill="#d3b88d" d="M128 70.3L0 74.7v-3l128-4.4z"/><path fill="#9c9fa4" d="M63 96h95v19H63z"/><path fill="#d4dedd" d="M49.2 58.5l20.2-6.7-44.6-10.4 10.5 11z"/><path fill="#dbd8ce" d="M1 13h165v19H1z"/><path fill="#897540" d="M40 64l-7-16-49 23z"/><ellipse fill="#8ea7be" rx="1" ry="1" transform="matrix(10.06318 13.032 -21.08153 16.27895 217.8 88.5)"/><path fill="#514f4a" d="M19 116h50v14H19z"/><ellipse fill="#221c10" rx="1" ry="1" transform="matrix(-6.43165 -3.02645 2.49786 -5.3083 243 106.5)"/><ellipse fill="#d7eefb" rx="1" ry="1" transform="matrix(1.23258 -14.49021 80.12262 6.81544 226.3 2)"/><ellipse fill="#969494" cx="59" cy="141" rx="28" ry="7"/><path fill="#abb5bf" d="M220 99L95 80l63 29z"/><ellipse fill="#878988" cx="105" cy="157" rx="44" ry="44"/><path fill="#7e90a5" d="M184.3 92l-37.5-1.9-25-12.5 66.5 2.3z"/><ellipse fill="#9a9fa4" cx="190" cy="119" rx="54" ry="20"/><ellipse fill="#b0c5d7" cx="188" cy="55" rx="88" ry="15"/></g></svg>