<svg xmlns="http://www.w3.org/2000/svg" viewBox="0 0 440 272"><path fill="#a1a6a8" d="M0 0h440v271H0z"/><g transform="translate(.9 .9) scale(1.71875)" fill-opacity=".5"><ellipse fill="#4b3316" rx="1" ry="1" transform="matrix(-45.96513 47.18286 -48.83827 -47.57782 11.7 118.1)"/><ellipse fill="#efffff" rx="1" ry="1" transform="matrix(-1.91248 -60.85605 173.0386 -5.43796 168.5 2.7)"/><path d="M238 78h18v33h-18z"/><ellipse fill="#777f84" rx="1" ry="1" transform="matrix(-20.40432 43.14503 -81.42541 -38.50803 124.2 150.7)"/><ellipse fill="#aaa695" rx="1" ry="1" transform="matrix(-2.87667 25.64606 -47.17563 -5.2916 62.9 56.2)"/><ellipse fill="#a7c0d8" cx="208" cy="50" rx="122" ry="21"/><ellipse fill="#594c40" rx="1" ry="1" transform="matrix(-23.33748 -19.28131 26.53053 -32.1117 21 124.6)"/><ellipse fill="#eaefee" cx="156" cy="12" rx="150" ry="15"/><ellipse fill="#a88d5a" cx="27" cy="66" rx="92" ry="9"/><ellipse fill="#140200" rx="1" ry="1" transform="matrix(-6.0561 7.89245 -5.1873 -3.98036 244.4 99.7)"/><path fill="#cfdee2" d="M90.7 60L-15.5 47l.8-7L91.5 53z"/><path fill="#989a9e" d="M31 134h47v14H31z"/><ellipse fill="#8ea9c2" rx="1" ry="1" transform="rotate(147.5 91.2 75.9) scale(35.30597 22.20346)"/><ellipse fill="#8797a3" rx="1" ry="1" transform="matrix(65.25714 30.83705 -10.96418 23.20233 219 146)"/><path fill="#a5b2bd" d="M270.8 113.6l-15.5 18.3-16-13.5 15.4-18.3z"/><ellipse fill="#918e8a" rx="1" ry="1" transform="matrix(-11.91905 -9.61746 13.14813 -16.29465 80.6 97.9)"/><path fill="#231506" d="M240.7 114.3L239 87.4l9-12.8 1 30.9z"/><ellipse fill="#66665e" cx="64" cy="61" rx="46" ry="3"/><path fill="#6c6150" d="M37.3 94.6L74.5 82 88 101l-11-4.5z"/><ellipse fill="#adb9c4" cx="85" cy="39" rx="80" ry="10"/><ellipse fill="#7b6d3d" cx="21" cy="58" rx="18" ry="9"/><path fill="#a1aeba" d="M209 52L68 71l85 58z"/><ellipse fill="#ceb085" rx="1" ry="1" transform="rotate(178.4 11.4 35.8) scale(104.88242 2.02749)"/><ellipse fill="#58544d" cx="44" cy="122" rx="42" ry="8"/><path fill="#72889f" d="M181.8 93.4l6.9-19.4-1.7 5.6-65.2 4z"/><ellipse fill="#d9d5cc" cx="29" cy="21" rx="135" ry="12"/><ellipse fill="#d7eefc" rx="1" ry="1" transform="matrix(-.87065 16.32844 -71.4987 -3.81238 225 0)"/><ellipse fill="#858a8c" cx="109" cy="151" rx="54" ry="36"/><path fill="#a3bdd3" d="M238.8 103l1.6-51.6-140 11L235.6 70z"/><path fill="#bcbeb8" d="M20.3 57.2l-5-18L-16 17.4l62.3 14.8z"/></g></svg>