<svg xmlns="http://www.w3.org/2000/svg" viewBox="0 0 440 272"><filter id="b"><feGaussianBlur stdDeviation="10" /></filter><path fill="#805655" d="M0 0h440v271H0z"/><g filter="url(#b)" transform="translate(.9 .9) scale(1.71875)" fill-opacity=".5"><ellipse fill="#ff8772" cx="160" cy="39" rx="146" ry="44"/><ellipse fill="#002735" rx="1" ry="1" transform="matrix(254.9591 4.56724 -.70916 39.5877 131.5 127.3)"/><ellipse cx="128" cy="118" rx="35" ry="15"/><ellipse fill="#ff7d5e" rx="1" ry="1" transform="rotate(88.9 31.7 76.8) scale(29.09537 60.86192)"/><path fill="#624455" d="M218 42l47 49 6-73z"/><ellipse fill="#81707c" rx="1" ry="1" transform="matrix(223.2728 -17.12967 .89496 11.66521 141.5 0)"/><ellipse fill="#515961" cx="215" cy="108" rx="53" ry="24"/><ellipse fill="#222f37" cx="1" cy="157" rx="40" ry="83"/><ellipse fill="#341d17" cx="130" cy="77" rx="2" ry="81"/><ellipse fill="#ff6d52" cx="201" cy="65" rx="27" ry="12"/><ellipse fill="#4e5059" rx="1" ry="1" transform="matrix(54.745 5.35236 -2.60316 26.62569 48.7 102.3)"/><path fill="#ff805c" d="M131 10h20v71h-20z"/><ellipse fill="#f47369" rx="1" ry="1" transform="matrix(-39.57212 12.96436 -3.3623 -10.26303 207.2 26.3)"/><ellipse fill="#726774" rx="1" ry="1" transform="rotate(31.1 91.2 327.8) scale(16.05136 31.65366)"/><ellipse fill="#ab7977" rx="1" ry="1" transform="rotate(-119.9 17.3 16.6) scale(9.07226 147.39668)"/><ellipse fill="#905d61" rx="1" ry="1" transform="matrix(1.83074 -8.76411 57.32507 11.97466 70.3 76.8)"/><ellipse cx="128" cy="111" rx="26" ry="7"/><path fill="#193037" d="M127 114l-84 24 108 2z"/><path fill="#965767" d="M147 63l55-23-53 7z"/><path fill="#ff8c5f" d="M72 32h48v25H72z"/><ellipse fill="#765361" cx="234" cy="45" rx="42" ry="7"/><ellipse fill="#bab4a8" cx="100" rx="29" ry="4"/><ellipse fill="#65555f" rx="1" ry="1" transform="rotate(103.2 1.4 15.3) scale(9.36905 22.75716)"/><ellipse fill="#1f2729" cx="10" cy="154" rx="55" ry="20"/><ellipse fill="#2f3943" cx="255" cy="92" rx="53" ry="5"/><path fill="#5a5962" d="M136 86h46v18h-46z"/><path fill="#c47476" d="M176 12.8l66.7 3.8 22.6-22.2-40.9 7z"/><path fill="#ff7356" d="M202.2 53.1L183.7 57l12.5 12.4 49.3-2.7z"/><ellipse fill="#9c5a56" rx="1" ry="1" transform="matrix(.52216 4.3336 -57.7595 6.95955 217 78.4)"/><path fill="#be5f61" d="M22.8-1.5L63.4 8 22 8.5l-27.5 5z"/></g></svg>