<svg xmlns="http://www.w3.org/2000/svg" viewBox="0 0 440 272"><path fill="#805655" d="M0 0h440v271H0z"/><g transform="translate(.9 .9) scale(1.71875)" fill-opacity=".5"><ellipse fill="#ff8773" rx="1" ry="1" transform="matrix(-1.46451 -51.56803 134.23084 -3.8121 157.1 31.7)"/><ellipse fill="#002835" rx="1" ry="1" transform="matrix(-.10575 -50.35777 237.24553 -.49822 120.8 136.8)"/><ellipse fill="#000001" rx="1" ry="1" transform="matrix(-1.43656 16.5405 -34.54166 -2.99998 131.9 120.3)"/><ellipse fill="#ff7e5d" rx="1" ry="1" transform="matrix(.64866 30.51918 -57.06173 1.2128 109.7 43.5)"/><ellipse fill="#5c4357" cx="255" cy="45" rx="35" ry="17"/><ellipse fill="#7b707d" rx="1" ry="1" transform="matrix(.76488 10.71019 -133.39263 9.52641 143 2)"/><ellipse fill="#515961" rx="1" ry="1" transform="matrix(-50.54223 7.95168 -3.34951 -21.29007 212.8 108)"/><ellipse fill="#f36855" rx="1" ry="1" transform="matrix(-2.37757 13.62287 -37.23479 -6.49851 205.3 65.8)"/><ellipse fill="#d77a6d" cx="33" cy="44" rx="35" ry="16"/><ellipse fill="#212e37" rx="1" ry="1" transform="matrix(-14.31298 -69.11478 22.74516 -4.7103 19.7 143.6)"/><ellipse fill="#4b515b" rx="1" ry="1" transform="rotate(8.6 -675.7 397.2) scale(45.00436 23.75828)"/><ellipse fill="#ff7f5c" cx="169" cy="35" rx="72" ry="5"/><ellipse fill="#8c5765" rx="1" ry="1" transform="matrix(.48722 6.05561 -47.9888 3.86109 196.3 47.5)"/><path fill="#020001" d="M122.3 104.9L93.7 116l42.4 2.7-6.6-42.7z"/><path fill="#7e6672" d="M185 26.6l-32.7 5.2L173-11.8l32.5 6.5z"/><ellipse cx="130" cy="27" rx="1" ry="38"/><path fill="#fc7b5c" d="M132 9h21v72h-21z"/><ellipse fill="#8a5a61" cx="133" cy="88" rx="77" ry="3"/><path fill="#fc746b" d="M195 14h48v14h-48z"/><path fill="#192f36" d="M40 140l71-24 49 17z"/><ellipse fill="#6a626d" rx="1" ry="1" transform="rotate(79.8 -.6 23.6) scale(9.77278 28.49813)"/><path fill="#b9a79b" d="M127 3.5l-57 5-1-12 56.8-5z"/><path fill="#fe8a5f" d="M69 31h59v25H69z"/><ellipse fill="#1f2529" rx="1" ry="1" transform="matrix(7.45377 -18.4405 50.95445 20.59614 25.1 157)"/><ellipse fill="#985f63" rx="1" ry="1" transform="rotate(103.9 3.3 60) scale(7.15799 47.76825)"/><path fill="#020000" d="M129 25h1v86h-1z"/><ellipse fill="#505760" rx="1" ry="1" transform="matrix(49.04275 8.91258 -1.8564 10.21514 186.7 104.6)"/><path fill="#ff7c55" d="M181.8 62.1l2.7-10.6 41.7 10.4-2.7 10.6z"/><path d="M109 105h44v12h-44z"/><path fill="#cb6568" d="M1.1 11l52.6-7.8-18.1 6.1 5-15.6z"/></g></svg>