<?xml version="1.0" standalone="no"?>
<!DOCTYPE svg PUBLIC "-//W3C//DTD SVG 20010904//EN"
 "http://www.w3.org/TR/2001/REC-SVG-20010904/DTD/svg10.dtd">
<svg version="1.0" xmlns="http://www.w3.org/2000/svg"
 width="400.000000pt" height="400.000000pt" viewBox="0 0 400.000000 400.000000"
 preserveAspectRatio="xMidYMid meet">
<metadata>
Created by potrace 1.11, written by Peter Selinger 2001-2013
</metadata>
<g transform="translate(0.000000,400.000000) scale(0.100000,-0.100000)"
fill="#000000" stroke="none">
<path d="M965 3486 c-368 -231 -787 -612 -810 -737 -4 -19 -8 -38 -9 -44 -2
-5 -6 -30 -10 -55 -4 -25 -9 -54 -11 -65 -1 -11 -6 -54 -10 -95 -3 -41 -8 -90
-11 -108 -2 -18 -4 -80 -5 -138 l-1 -105 -48 -22 c-48 -21 -49 -23 -44 -57 3
-19 7 -43 10 -52 3 -10 7 -28 9 -40 3 -13 16 -61 31 -108 14 -47 28 -93 31
-103 7 -21 16 -20 198 23 72 18 139 33 150 36 11 2 99 22 195 44 189 45 189
45 270 61 124 24 147 29 185 34 23 3 50 7 61 9 12 2 45 7 75 10 68 7 45 -4
-81 -38 -52 -14 -144 -42 -205 -62 -60 -19 -117 -37 -125 -39 -27 -6 -284 -95
-305 -105 -11 -5 -56 -23 -100 -38 -44 -16 -117 -44 -161 -61 l-82 -33 32 -54
c26 -45 35 -53 56 -49 101 17 99 17 109 -7 71 -173 95 -219 128 -244 46 -35
176 -99 233 -114 71 -19 80 -21 170 -27 l85 -5 45 71 c25 39 48 71 52 71 5 0
8 -21 9 -47 0 -27 2 -59 4 -73 3 -14 7 -41 10 -60 10 -67 16 -95 36 -163 19
-63 21 -67 46 -63 l26 5 -23 -23 c-33 -36 -129 -84 -201 -101 -66 -15 -237
-15 -271 0 -28 12 -22 -12 17 -66 148 -201 531 -265 700 -117 28 24 49 54 56
77 l11 38 40 -43 c94 -102 238 -128 444 -81 234 55 487 251 587 456 20 41 21
47 5 34 -40 -32 -276 -108 -367 -119 -50 -6 -179 -4 -221 2 -64 11 -104 7
-165 -16 -53 -19 -115 -25 -197 -18 -28 2 -11 15 29 21 59 10 145 58 170 95
25 38 23 83 -5 122 -32 42 -94 79 -142 84 -38 4 -42 3 -26 -7 70 -42 86 -99
40 -142 -14 -13 -38 -28 -53 -33 -27 -10 -186 -9 -228 1 -11 3 -41 8 -65 12
-59 9 -68 15 -73 56 -10 67 -13 285 -4 344 8 62 54 211 71 232 15 19 -54 46
-151 58 -25 3 -46 7 -48 8 -12 13 472 201 568 221 13 3 35 8 49 11 42 10 123
25 160 31 19 3 46 7 60 10 90 16 315 22 440 11 78 -7 281 -40 315 -52 38 -13
-100 108 -150 131 -27 13 -45 24 -40 25 6 0 19 2 30 5 27 5 105 14 185 20 l65
5 17 -39 c27 -59 97 -147 116 -146 30 2 124 16 146 21 12 2 91 6 176 8 161 3
231 -4 395 -38 56 -12 62 -11 101 10 35 20 161 75 189 83 53 15 48 18 -165
123 -233 114 -331 155 -512 212 -65 20 -118 41 -118 46 0 16 71 144 116 206
24 34 73 91 109 127 62 63 63 66 37 67 -15 1 -81 2 -147 3 l-120 3 -89 -44
c-86 -43 -178 -102 -278 -179 -34 -25 -49 -32 -52 -22 -3 7 -19 60 -37 118
-36 119 -112 304 -168 412 -35 65 -45 76 -92 100 -52 26 -304 128 -399 162
-134 47 -421 122 -535 140 -90 14 -121 19 -135 21 -27 5 -154 16 -230 20 l-76
4 -99 -63z"/>
<path d="M2075 1889 c-165 -14 -268 -33 -395 -76 -84 -28 -222 -98 -246 -124
-15 -16 -13 -18 20 -24 26 -5 58 1 125 24 49 17 99 31 110 31 18 0 20 -4 14
-27 -20 -82 0 -180 49 -238 17 -20 16 -21 -28 -49 -25 -16 -43 -31 -40 -33 2
-3 29 1 58 7 65 15 323 21 398 9 30 -5 72 -11 92 -14 21 -3 54 -13 73 -21 56
-23 40 1 -32 49 -70 46 -155 87 -180 87 -11 0 -11 4 1 23 9 12 18 40 22 62 3
22 7 41 9 43 3 3 -12 88 -21 115 -4 14 1 17 33 17 21 -1 56 -4 79 -9 22 -4 50
-4 61 0 11 4 35 10 54 13 61 9 249 83 249 97 0 7 -17 12 -80 24 -86 17 -302
24 -425 14z"/>
</g>
</svg>
